<?xml version="1.0" standalone="no"?>
<!DOCTYPE svg PUBLIC "-//W3C//DTD SVG 1.1//EN" "http://www.w3.org/Graphics/SVG/1.1/DTD/svg11.dtd" >
<svg xmlns="http://www.w3.org/2000/svg" xmlns:xlink="http://www.w3.org/1999/xlink" version="1.1">
<metadata>
Created by FontForge 20170731 at Fri Dec 28 22:38:13 2018
 By Aleksey,,,
Copyright (c) 2019 by www.fontiran.com (Moslem Ebrahimi). All rights reserved.
</metadata>
<defs>
<font id="IRANSansWeb-Light" horiz-adv-x="0" >
  <font-face 
    font-family="IRANSansWeb Light"
    font-weight="300"
    font-stretch="normal"
    units-per-em="2300"
    panose-1="2 11 5 6 3 8 4 2 2 4"
    ascent="1840"
    descent="-460"
    x-height="1215"
    cap-height="1635"
    bbox="-1097 -1228 3140 2724"
    underline-thickness="100"
    underline-position="-750"
    unicode-range="U+001D-FEFF"
  />
<missing-glyph horiz-adv-x="1229" 
d="M102 -362v1806h1024v-1806h-1024zM217 -248h795v1577h-795v-1577z" />
    <glyph glyph-name="allah" unicode="&#xfedf;&#xfee0;&#x651;&#x64e;&#xfeea;" horiz-adv-x="2052" arabic-form="isolated" 
d="M1099 17q-70 0 -120.5 13t-88 35t-64 50.5t-47.5 58.5q-69 -10 -125.5 -15t-104.5 -5q-245 0 -343 118q-22 26 -34 56.5t-15 62.5q-1 12 -1 23q0 20 4 45t16 52v1q27 54 64.5 100t80 84t88 68t88.5 53t81.5 40t67.5 28q-6 60 -9 92.5t-4.5 48.5t-2 20t-0.5 6
q44 4 79.5 7.5t77.5 7.5q12 -131 21.5 -228t17 -168.5t13 -122t10 -88t8.5 -67t9 -58.5q9 -60 32 -93t54.5 -49t68 -19.5t73.5 -3.5q45 0 81 8.5t61.5 27.5t39 50.5t13.5 78.5q0 42 -2.5 107.5t-8 159.5t-13 219t-17.5 286l158 17q5 -76 10 -135t9.5 -109.5t8.5 -96.5t7 -95
q13 -183 19.5 -273.5t6.5 -92.5q1 -39 18.5 -68.5t42.5 -48.5t54.5 -28.5t56.5 -9.5q92 0 130 42.5t38 130.5q0 7 -18 228t-55 658q43 9 77.5 17.5t76.5 17.5q34 -450 51 -698q16 -234 16 -283v-5q-2 -128 -83.5 -191t-231.5 -63q-48 0 -89 7.5t-72.5 20.5t-52 28.5
t-29.5 32.5q-29 -34 -63.5 -52.5t-72.5 -27.5t-79 -11t-83 -2zM673 721q-15 -3 -42.5 -14t-60.5 -29t-69.5 -41.5t-69.5 -49.5t-60.5 -54.5t-43 -57t-15.5 -55.5v-3q0 -25 19 -48q26 -30 71.5 -43t100.5 -15q15 -1 31 -1q40 0 89.5 4t100.5 10q-6 29 -12 70.5t-12.5 92.5
t-13 110.5t-13.5 123.5zM1278 1662q8 32 12 67t4 69q0 35 -4 70.5t-12 66.5l60 17q7 -30 11 -65t4 -75q0 -38 -3.5 -78t-13.5 -88zM1200 1268q-48 0 -73 28.5t-34 69.5q-8 31 -8 64q0 11 1.5 38t9.5 59q17 -3 30.5 -7t28.5 -7q-4 -17 -7 -47q-1 -15 -1 -31q0 -15 2 -37.5
t13.5 -45t37.5 -22.5q16 0 29 8.5t23.5 22t19 30.5t14.5 33q12 35 16.5 61.5t6.5 37.5h17h19.5t27.5 -1q1 -27 5.5 -51.5t11.5 -47.5q4 -14 10.5 -30t15.5 -29.5t20 -22t25 -8.5q20 0 31.5 11t17 26.5t7 33.5t1.5 33q0 21 -5.5 44t-13 45t-16 40.5t-15.5 30.5l53 30
q5 -9 15 -28.5t19.5 -45.5t17 -56t7.5 -60t-6 -59.5t-20.5 -53.5t-37 -38.5t-55.5 -14.5q-26 0 -45.5 10t-34.5 26.5t-26 36.5t-19 40q-17 -36 -35 -58.5t-35.5 -35t-34 -17.5t-31.5 -5z" />
    <glyph glyph-name="riyal" unicode="&#x631;&#xfef3;&#xfe8e;&#x644;" horiz-adv-x="3340" arabic-form="isolated" 
d="M379 330q-23 -50 -41 -96t-31 -94t-19 -102q-5 -46 -5 -101v-19q2 -92 36.5 -165.5t92 -125.5t132.5 -79.5t158 -27.5q51 0 106.5 11t108.5 35t100.5 61t83.5 88.5t57 119t21 151.5q0 73 -2 170.5t-5.5 209t-7.5 231t-9 236.5t-9.5 225.5t-8.5 197.5t-6.5 153t-3.5 92
q44 1 79 3.5t77 4.5q8 -158 14.5 -307.5t11.5 -295.5q5 -123 9.5 -252.5t8.5 -251.5t6 -229.5t2 -186.5q0 -117 -28.5 -208.5t-76.5 -160.5t-111 -117t-133 -78.5t-141.5 -44t-136.5 -13.5q-62 0 -129.5 13t-133 41.5t-124.5 72.5t-103.5 105.5t-69.5 141.5q-25 77 -25 173
v7q0 70 11.5 139t28.5 131t36.5 115t36.5 91zM1996 176h116q60 0 110.5 4t92 17.5t74 38.5t57.5 68q15 25 17 63q1 10 1 19q0 30 -6 69.5t-20 89.5t-30.5 99.5t-35 96t-33.5 85.5l141 71q19 -46 40.5 -99.5t40.5 -110.5t34 -116.5t21 -116.5q3 -31 3 -61q0 -25 -3.5 -64.5
t-24.5 -86.5q-29 -64 -70.5 -107t-96.5 -68.5t-122.5 -36t-146.5 -10.5h-159v156zM3022 625q16 -52 36.5 -117.5t38.5 -136t30.5 -143t12.5 -138.5q0 -83 -24.5 -162t-67.5 -151.5t-102.5 -139t-129.5 -125.5t-148.5 -109.5t-159.5 -91.5l-69 140q105 54 203 123.5t174 151
t122 173.5t46 191q0 54 -11 115t-28 124.5t-37 126.5t-38 122zM1995 20q-91 0 -163 19.5t-122 62.5t-76.5 111.5t-26.5 166.5q0 74 0.5 165t0.5 189t-1.5 199t-4.5 196.5t-9 180.5t-15 152l156 28q9 -53 15 -125t10 -155t5.5 -172.5t1.5 -175.5q0 -123 1 -237v-77
q0 -76 -1 -152q0 -65 10.5 -107t36 -67.5t67.5 -35.5t106 -10h29v-156h-20zM2041 -327l-146 -146l-148 147l146 147zM2396 -329l-145 -146l-148 148l146 146z" />
    <glyph glyph-name="uni06440622.isol" unicode="&#xfedf;&#xfe82;" horiz-adv-x="1270" arabic-form="isolated" 
d="M1105 590q1 -8 1 -15.5v-14.5q0 -55 -11.5 -116t-33.5 -119t-52.5 -109t-69.5 -86q-64 -60 -151 -102t-190 -65q-55 -12 -108 -17t-106 -5q-65 0 -128 9q8 43 14.5 78.5t13.5 75.5q23 -4 47 -5t51 -1q45 0 96 6t105 18q-21 112 -63.5 231t-95.5 234.5t-111 222t-110 193
t-93 148.5t-59 88l130 91q13 -19 37 -55.5t56.5 -87.5t70.5 -113.5t78 -132.5q120 -212 196.5 -402.5t113.5 -363.5q47 30 87 63.5t69 80t45 109.5q14 58 14 140v11q-25 230 -50.5 455t-50.5 455q44 4 79.5 8t78.5 8q3 -19 9.5 -66.5t15.5 -115.5t19 -153t20 -180.5
t19.5 -197t16.5 -202.5zM-127 1436q11 41 34.5 79t55.5 67t70 46.5t77 17.5q42 0 77.5 -10.5t64.5 -23.5q27 -11 56 -19.5t59 -9.5h7q19 0 39.5 9.5t40 24.5t34.5 31t24 27q25 -16 49.5 -32.5t48.5 -31.5q-6 -9 -25.5 -34t-52 -50.5t-75.5 -45.5q-39 -18 -86 -18h-9
q-44 0 -81 11t-69 24q-33 13 -63 22q-20 6 -40 6q-11 0 -22 -2q-18 -3 -34 -17t-29 -32.5t-22 -39t-15 -35.5z" />
    <glyph glyph-name="uni06440622.fina" unicode="&#xfee0;&#xfe82;" horiz-adv-x="1399" arabic-form="final" 
d="M1140 560q5 -55 9 -105t11 -92.5t20.5 -77t38.5 -59t63.5 -37.5t96.5 -13h41v-156h-60q-30 0 -70.5 3t-82.5 20t-81.5 54.5t-67.5 106.5q-62 -79 -149 -133t-186.5 -85t-206.5 -39q-46 -4 -91 -4q-61 0 -119 7q8 43 14.5 78.5t13.5 75.5q58 -8 118 -8q17 0 64 2t117 24
q-21 112 -63.5 231t-95.5 234.5t-111 222t-110 193t-93 148.5t-59 88l130 91q13 -19 37 -55.5t56.5 -87.5t70.5 -113.5t78 -132.5q120 -212 196.5 -402.5t113.5 -363.5q43 20 82.5 51.5t68 79t42.5 114.5q9 41 9 91q0 32 -4 68q-11 119 -21 233t-20 226.5t-20.5 224.5
t-22.5 226q44 4 79.5 8t78.5 8q3 -18 7.5 -65t10.5 -115t13 -155t15.5 -186t18 -206.5t20.5 -217.5zM-127 1436q11 41 34.5 79t55.5 67t70 46.5t77 17.5q42 0 77.5 -10.5t64.5 -23.5q27 -11 56 -19.5t59 -9.5h7q19 0 39.5 9.5t40 24.5t34.5 31t24 27q25 -16 49.5 -32.5
t48.5 -31.5q-6 -9 -25.5 -34t-52 -50.5t-75.5 -45.5q-39 -18 -86 -18h-9q-44 0 -81 11t-69 24q-33 13 -63 22q-20 6 -40 6q-11 0 -22 -2q-18 -3 -34 -17t-29 -32.5t-22 -39t-15 -35.5z" />
    <glyph glyph-name="uni06440623.isol" unicode="&#xfedf;&#xfe84;" horiz-adv-x="1270" arabic-form="isolated" 
d="M1105 590q1 -8 1 -15.5v-14.5q0 -55 -11.5 -116t-33.5 -119t-52.5 -109t-69.5 -86q-64 -60 -151 -102t-190 -65q-55 -12 -108 -17t-106 -5q-65 0 -128 9q8 43 14.5 78.5t13.5 75.5q23 -4 47 -5t51 -1q45 0 96 6t105 18q-21 112 -63.5 231t-95.5 234.5t-111 222t-110 193
t-93 148.5t-59 88l130 91q13 -19 37 -55.5t56.5 -87.5t70.5 -113.5t78 -132.5q120 -212 196.5 -402.5t113.5 -363.5q47 30 87 63.5t69 80t45 109.5q14 58 14 140v11q-25 230 -50.5 455t-50.5 455q44 4 79.5 8t78.5 8q3 -19 9.5 -66.5t15.5 -115.5t19 -153t20 -180.5
t19.5 -197t16.5 -202.5zM316 1945q-42 6 -84 10q-8 1 -15 1q-35 0 -69 -15q-25 -11 -44 -29.5t-29.5 -41.5t-11.5 -48v-8q0 -21 9 -41t24 -37.5t35.5 -30.5t44 -21t48.5 -8q12 0 24 1.5t26 6.5q19 7 42 18.5t44.5 23t38.5 21.5t24 16l53 -69q-42 -29 -106 -65t-154 -86
l-244 -135q-12 22 -21 39t-21 38l210 117q-55 18 -94.5 56.5t-56.5 80.5q-14 36 -14 72q0 7 1 31.5t18.5 63.5t49 69.5t72.5 47.5q52 20 105 20q39 0 72.5 -6.5t48.5 -11.5z" />
    <glyph glyph-name="uni06440623.fina" unicode="&#xfee0;&#xfe84;" horiz-adv-x="1399" arabic-form="final" 
d="M1140 560q5 -55 9 -105t11 -92.5t20.5 -77t38.5 -59t63.5 -37.5t96.5 -13h41v-156h-60q-30 0 -70.5 3t-82.5 20t-81.5 54.5t-67.5 106.5q-62 -79 -149 -133t-186.5 -85t-206.5 -39q-46 -4 -91 -4q-61 0 -119 7q8 43 14.5 78.5t13.5 75.5q58 -8 118 -8q17 0 64 2t117 24
q-21 112 -63.5 231t-95.5 234.5t-111 222t-110 193t-93 148.5t-59 88l130 91q13 -19 37 -55.5t56.5 -87.5t70.5 -113.5t78 -132.5q120 -212 196.5 -402.5t113.5 -363.5q43 20 82.5 51.5t68 79t42.5 114.5q9 41 9 91q0 32 -4 68q-11 119 -21 233t-20 226.5t-20.5 224.5
t-22.5 226q44 4 79.5 8t78.5 8q3 -18 7.5 -65t10.5 -115t13 -155t15.5 -186t18 -206.5t20.5 -217.5zM316 1945q-42 6 -84 10q-8 1 -15 1q-35 0 -69 -15q-25 -11 -44 -29.5t-29.5 -41.5t-11.5 -48v-8q0 -21 9 -41t24 -37.5t35.5 -30.5t44 -21t48.5 -8q12 0 24 1.5t26 6.5
q19 7 42 18.5t44.5 23t38.5 21.5t24 16l53 -69q-42 -29 -106 -65t-154 -86l-244 -135q-12 22 -21 39t-21 38l210 117q-55 18 -94.5 56.5t-56.5 80.5q-14 36 -14 72q0 7 1 31.5t18.5 63.5t49 69.5t72.5 47.5q52 20 105 20q39 0 72.5 -6.5t48.5 -11.5z" />
    <glyph glyph-name="uni06440625.isol" unicode="&#xfedf;&#xfe88;" horiz-adv-x="1270" arabic-form="isolated" 
d="M1105 590q1 -8 1 -15.5v-14.5q0 -55 -11.5 -116t-33.5 -119t-52.5 -109t-69.5 -86q-64 -60 -151 -102t-190 -65q-55 -12 -108 -17t-106 -5q-65 0 -128 9q8 43 14.5 78.5t13.5 75.5q23 -4 47 -5t51 -1q45 0 96 6t105 18q-21 112 -63.5 231t-95.5 234.5t-111 222t-110 193
t-93 148.5t-59 88l130 91q13 -19 37 -55.5t56.5 -87.5t70.5 -113.5t78 -132.5q120 -212 196.5 -402.5t113.5 -363.5q47 30 87 63.5t69 80t45 109.5q14 58 14 140v11q-25 230 -50.5 455t-50.5 455q44 4 79.5 8t78.5 8q3 -19 9.5 -66.5t15.5 -115.5t19 -153t20 -180.5
t19.5 -197t16.5 -202.5zM510 -261q-42 6 -84 10q-8 1 -15 1q-35 0 -69 -15q-25 -11 -44 -29.5t-29.5 -41.5t-11.5 -48v-8q0 -21 9 -41t24 -37.5t35.5 -30.5t44 -21t48.5 -8q12 0 24 1.5t26 6.5q19 7 42 18.5t44.5 23t38.5 21.5t24 16l53 -69q-42 -29 -106 -65t-154 -86
l-244 -135q-12 22 -21 39t-21 38l210 117q-55 18 -94.5 56.5t-56.5 80.5q-14 36 -14 72q0 7 1 31.5t18.5 63.5t49 69.5t72.5 47.5q52 20 105 20q39 0 72.5 -6.5t48.5 -11.5z" />
    <glyph glyph-name="uni06440625.fina" unicode="&#xfee0;&#xfe88;" horiz-adv-x="1399" arabic-form="final" 
d="M1140 560q5 -55 9 -105t11 -92.5t20.5 -77t38.5 -59t63.5 -37.5t96.5 -13h41v-156h-60q-30 0 -70.5 3t-82.5 20t-81.5 54.5t-67.5 106.5q-62 -79 -149 -133t-186.5 -85t-206.5 -39q-46 -4 -91 -4q-61 0 -119 7q8 43 14.5 78.5t13.5 75.5q58 -8 118 -8q17 0 64 2t117 24
q-21 112 -63.5 231t-95.5 234.5t-111 222t-110 193t-93 148.5t-59 88l130 91q13 -19 37 -55.5t56.5 -87.5t70.5 -113.5t78 -132.5q120 -212 196.5 -402.5t113.5 -363.5q43 20 82.5 51.5t68 79t42.5 114.5q9 41 9 91q0 32 -4 68q-11 119 -21 233t-20 226.5t-20.5 224.5
t-22.5 226q44 4 79.5 8t78.5 8q3 -18 7.5 -65t10.5 -115t13 -155t15.5 -186t18 -206.5t20.5 -217.5zM510 -261q-42 6 -84 10q-8 1 -15 1q-35 0 -69 -15q-25 -11 -44 -29.5t-29.5 -41.5t-11.5 -48v-8q0 -21 9 -41t24 -37.5t35.5 -30.5t44 -21t48.5 -8q12 0 24 1.5t26 6.5
q19 7 42 18.5t44.5 23t38.5 21.5t24 16l53 -69q-42 -29 -106 -65t-154 -86l-244 -135q-12 22 -21 39t-21 38l210 117q-55 18 -94.5 56.5t-56.5 80.5q-14 36 -14 72q0 7 1 31.5t18.5 63.5t49 69.5t72.5 47.5q52 20 105 20q39 0 72.5 -6.5t48.5 -11.5z" />
    <glyph glyph-name="uni06440627.isol" unicode="&#xfedf;&#xfe8e;" horiz-adv-x="1264" arabic-form="isolated" 
d="M1105 590q1 -8 1 -15.5v-14.5q0 -55 -11.5 -116t-33.5 -119t-52.5 -109t-69.5 -86q-64 -60 -151 -102t-190 -65q-55 -12 -108 -17t-106 -5q-65 0 -128 9q8 43 14.5 78.5t13.5 75.5q23 -4 47 -5t51 -1q45 0 96 6t105 18q-21 112 -63.5 231t-95.5 234.5t-111 222t-110 193
t-93 148.5t-59 88l130 91q13 -19 37 -55.5t56.5 -87.5t70.5 -113.5t78 -132.5q120 -212 196.5 -402.5t113.5 -363.5q47 30 87 63.5t69 80t45 109.5q14 58 14 140v11q-25 230 -50.5 455t-50.5 455q44 4 79.5 8t78.5 8q3 -19 9.5 -66.5t15.5 -115.5t19 -153t20 -180.5
t19.5 -197t16.5 -202.5z" />
    <glyph glyph-name="uni06440627.fina" unicode="&#xfee0;&#xfe8e;" horiz-adv-x="1399" arabic-form="final" 
d="M1140 560q5 -55 9 -105t11 -92.5t20.5 -77t38.5 -59t63.5 -37.5t96.5 -13h41v-156h-60q-30 0 -70.5 3t-82.5 20t-81.5 54.5t-67.5 106.5q-62 -79 -149 -133t-186.5 -85t-206.5 -39q-46 -4 -91 -4q-61 0 -119 7q8 43 14.5 78.5t13.5 75.5q58 -8 118 -8q17 0 64 2t117 24
q-21 112 -63.5 231t-95.5 234.5t-111 222t-110 193t-93 148.5t-59 88l130 91q13 -19 37 -55.5t56.5 -87.5t70.5 -113.5t78 -132.5q120 -212 196.5 -402.5t113.5 -363.5q43 20 82.5 51.5t68 79t42.5 114.5q9 41 9 91q0 32 -4 68q-11 119 -21 233t-20 226.5t-20.5 224.5
t-22.5 226q44 4 79.5 8t78.5 8q3 -18 7.5 -65t10.5 -115t13 -155t15.5 -186t18 -206.5t20.5 -217.5z" />
    <glyph glyph-name="uni06440671.isol" unicode="&#xfedf;&#xfb51;" horiz-adv-x="1270" 
d="M1105 590q1 -8 1 -15.5v-14.5q0 -55 -11.5 -116t-33.5 -119t-52.5 -109t-69.5 -86q-64 -60 -151 -102t-190 -65q-55 -12 -108 -17t-106 -5q-65 0 -128 9q8 43 14.5 78.5t13.5 75.5q23 -4 47 -5t51 -1q45 0 96 6t105 18q-21 112 -63.5 231t-95.5 234.5t-111 222t-110 193
t-93 148.5t-59 88l130 91q13 -19 37 -55.5t56.5 -87.5t70.5 -113.5t78 -132.5q120 -212 196.5 -402.5t113.5 -363.5q47 30 87 63.5t69 80t45 109.5q14 58 14 140v11q-25 230 -50.5 455t-50.5 455q44 4 79.5 8t78.5 8q3 -19 9.5 -66.5t15.5 -115.5t19 -153t20 -180.5
t19.5 -197t16.5 -202.5zM343 1526q24 0 54.5 3t59.5 12t51 26.5t29 47.5q1 7 1 13q0 10 -4.5 21.5t-15.5 21.5t-26 15q-12 4 -26 4h-5q-40 0 -74 -20.5t-59 -46.5q-34 -35 -61 -90q22 -5 42 -6t34 -1zM600 1676q9 -24 9 -47q0 -20 -11.5 -51t-50.5 -66q-45 -32 -98 -42.5
t-116 -12.5h-11q-28 0 -52.5 4t-44.5 11t-34.5 16t-26.5 17q-16 11 -29 19q-12 6 -28 6h-5q-24 -1 -48 -12.5t-52 -30.5l-29 67q39 23 78 34.5t58 11.5q26 0 48 -10t42 -29q35 63 70 104q24 27 49.5 47t54.5 32q42 18 87 18q51 0 86.5 -20t53.5 -66z" />
    <glyph glyph-name="uni06440671.fina" unicode="&#xfee0;&#xfb51;" horiz-adv-x="1399" 
d="M1140 560q5 -55 9 -105t11 -92.5t20.5 -77t38.5 -59t63.5 -37.5t96.5 -13h41v-156h-60q-30 0 -70.5 3t-82.5 20t-81.5 54.5t-67.5 106.5q-62 -79 -149 -133t-186.5 -85t-206.5 -39q-46 -4 -91 -4q-61 0 -119 7q8 43 14.5 78.5t13.5 75.5q58 -8 118 -8q17 0 64 2t117 24
q-21 112 -63.5 231t-95.5 234.5t-111 222t-110 193t-93 148.5t-59 88l130 91q13 -19 37 -55.5t56.5 -87.5t70.5 -113.5t78 -132.5q120 -212 196.5 -402.5t113.5 -363.5q43 20 82.5 51.5t68 79t42.5 114.5q9 41 9 91q0 32 -4 68q-11 119 -21 233t-20 226.5t-20.5 224.5
t-22.5 226q44 4 79.5 8t78.5 8q3 -18 7.5 -65t10.5 -115t13 -155t15.5 -186t18 -206.5t20.5 -217.5zM343 1526q24 0 54.5 3t59.5 12t51 26.5t29 47.5q1 7 1 13q0 10 -4.5 21.5t-15.5 21.5t-26 15q-12 4 -26 4h-5q-40 0 -74 -20.5t-59 -46.5q-34 -35 -61 -90q22 -5 42 -6
t34 -1zM600 1676q9 -24 9 -47q0 -20 -11.5 -51t-50.5 -66q-45 -32 -98 -42.5t-116 -12.5h-11q-28 0 -52.5 4t-44.5 11t-34.5 16t-26.5 17q-16 11 -29 19q-12 6 -28 6h-5q-24 -1 -48 -12.5t-52 -30.5l-29 67q39 23 78 34.5t58 11.5q26 0 48 -10t42 -29q35 63 70 104
q24 27 49.5 47t54.5 32q42 18 87 18q51 0 86.5 -20t53.5 -66z" />
    <glyph glyph-name="yeye" unicode="&#xfbff;&#xfbff;" horiz-adv-x="1756" 
d="M-23 176h96q88 0 169 9t142.5 35t96.5 75q32 44 32 115v12q-1 27 -3 51.5t-6.5 51t-11 56.5t-16.5 68q42 11 75.5 21.5t73.5 21.5q12 -43 19 -79t11.5 -69.5t8 -67t8.5 -72.5q5 -42 12.5 -82.5t26 -73t52.5 -52.5t92 -20q9 0 17 -2q7 2 16 2h76q88 0 169 9t142.5 35
t96.5 75q32 44 32 115v12q-1 27 -3 51.5t-6.5 51t-11 56.5t-16.5 68q42 11 75.5 21.5t73.5 21.5q12 -43 19 -79t11.5 -69.5t8 -67t8.5 -72.5q5 -42 12.5 -82.5t26 -73t52.5 -52.5t92 -20h26v-156h-24q-48 0 -88 10.5t-73.5 29t-61.5 43.5t-50 55q-39 -38 -97 -64
t-126.5 -42.5t-142.5 -24t-145 -7.5h-76q-8 0 -16 1q-7 -1 -15 -1q-48 0 -88 10.5t-73.5 29t-61.5 43.5t-50 55q-39 -38 -97 -64t-126.5 -42.5t-142.5 -24t-145 -7.5h-96v156zM1641 -344l-148 -149l-150 150l148 148zM1247 -343l-148 -148l-150 149l148 149zM751 -474
l-148 -149l-150 150l148 148zM357 -473l-148 -148l-150 149l148 149z" />
    <glyph glyph-name="yeye1" unicode="&#xfbfe;&#xfbff;" horiz-adv-x="1717" 
d="M357 -488l-148 -148l-150 149l148 149zM1602 -345l-148 -149l-150 150l148 148zM1208 -344l-148 -148l-150 149l148 149zM-20 176h93q88 0 169 9t142.5 35t96.5 75q32 44 32 115v12q-1 27 -3 51.5t-6.5 51t-11 56.5t-16.5 68q42 11 75.5 21.5t73.5 21.5q12 -43 19 -79
t11.5 -69.5t8 -67t8.5 -72.5q5 -42 12.5 -82.5t26 -73t52.5 -52.5t92 -20q7 0 14 -1q6 1 13 1h111q56 0 123.5 2.5t130.5 15t113.5 39t71.5 73.5v-1q16 33 16 88q0 47 -14 106t-36 129q-8 25 -19.5 54t-22.5 56.5t-21.5 50.5t-16.5 37l142 71q6 -14 16 -36t22 -51t24.5 -63
t24.5 -71q26 -81 39 -151t13 -130q0 -88 -28 -153q-35 -73 -95.5 -125.5t-144.5 -75.5q-26 -8 -67 -12t-84.5 -6t-82.5 -2.5t-61 -0.5h-154q-6 0 -12 1q-7 -1 -13 -1q-48 0 -88 10.5t-73.5 29t-61.5 43.5t-50 55q-39 -38 -97 -64t-126.5 -42.5t-142.5 -24t-145 -7.5h-93v156
zM751 -489l-148 -149l-150 150l148 148z" />
    <glyph glyph-name="uni0621" unicode="&#x621;" horiz-adv-x="1019" arabic-form="isolated" 
d="M780 567q-9 4 -18.5 7t-19.5 7q-41 14 -90 22q-25 4 -49 4t-48 -4q-31 -6 -56 -22t-42 -39t-26.5 -51t-9.5 -57q0 -40 18.5 -75t48.5 -61.5t68.5 -41.5t78.5 -15q31 0 64.5 7.5t66 19t63 25t56.5 25.5q15 -29 28.5 -54.5t28.5 -53.5q-19 -9 -41.5 -19t-57 -24t-85 -33
t-125 -47t-177.5 -66.5t-242 -90.5l-42 119l293 111q-75 48 -122 117.5t-47 153.5q0 72 32.5 132t86 100.5t121.5 58.5q39 10 80 10q29 0 58 -5q28 -5 53.5 -12t46.5 -14.5t36.5 -13.5t23.5 -9z" />
    <glyph glyph-name="uni0622" unicode="&#x622;" horiz-adv-x="707" arabic-form="isolated" 
d="M428 1424q31 -363 40 -714q2 -88 2 -175q0 -261 -18 -515q-44 2 -79.5 5t-77.5 5q11 96 15 214t4 245t-4 256.5t-10.5 249.5t-13.5 224.5t-14 180.5zM-18 1547q11 41 34.5 79t55.5 67t70 46.5t77 17.5q42 0 77.5 -10.5t64.5 -23.5q27 -11 56 -19.5t59 -9.5h7
q19 0 39.5 9.5t40 24.5t34.5 31t24 27q25 -16 49.5 -32.5t48.5 -31.5q-6 -9 -25.5 -34t-52 -50.5t-75.5 -45.5q-39 -18 -86 -18h-9q-44 0 -81 11t-69 24q-33 13 -63 22q-20 6 -40 6q-11 0 -22 -2q-18 -3 -34 -17t-29 -32.5t-22 -39t-15 -35.5z" />
    <glyph glyph-name="uni0623" unicode="&#x623;" horiz-adv-x="548" arabic-form="isolated" 
d="M338 1424q31 -363 40 -714q2 -88 2 -175q0 -261 -18 -515q-44 2 -79.5 5t-77.5 5q11 96 15 214t4 245t-4 256.5t-10.5 249.5t-13.5 224.5t-14 180.5zM391 1989q-42 6 -84 10q-8 1 -15 1q-35 0 -69 -15q-25 -11 -44 -29.5t-29.5 -41.5t-11.5 -48v-8q0 -21 9 -41t24 -37.5
t35.5 -30.5t44 -21t48.5 -8q12 0 24 1.5t26 6.5q19 7 42 18.5t44.5 23t38.5 21.5t24 16l53 -69q-42 -29 -106 -65t-154 -86l-244 -135q-12 22 -21 39t-21 38l210 117q-55 18 -94.5 56.5t-56.5 80.5q-14 36 -14 72q0 7 1 31.5t18.5 63.5t49 69.5t72.5 47.5q52 20 105 20
q39 0 72.5 -6.5t48.5 -11.5z" />
    <glyph glyph-name="uni0624" unicode="&#x624;" horiz-adv-x="1068" arabic-form="isolated" 
d="M101 -525q152 33 274 92t209.5 132.5t139 156.5t63.5 164q-33 -1 -65 -1q-47 0 -108 2.5t-128.5 14t-123 34t-95.5 61t-62 94.5t-22 134q1 48 11.5 101.5t30 105.5t47.5 99.5t65 83t82 57t99 21.5q74 0 134 -32.5t107.5 -86.5t82.5 -124.5t58 -147t34 -153.5t11 -144
q0 -113 -30.5 -213t-84.5 -185.5t-129 -155t-165 -123t-191 -89t-207 -52.5zM518 670q-37 0 -73 -30t-64.5 -76t-46 -100t-17.5 -102q5 -49 31 -81t66 -52t89.5 -29.5t101 -13t100.5 -3.5h88q0 45 -8.5 98.5t-24.5 107.5t-40 105t-54.5 90t-67.5 62.5t-80 23.5zM568 1434
q-42 6 -84 10q-8 1 -15 1q-35 0 -69 -15q-25 -11 -44 -29.5t-29.5 -41.5t-11.5 -48v-8q0 -21 9 -41t24 -37.5t35.5 -30.5t44 -21t48.5 -8q12 0 24 1.5t26 6.5q19 7 42 18.5t44.5 23t38.5 21.5t24 16l53 -69q-42 -29 -106 -65t-154 -86l-244 -135q-12 22 -21 39t-21 38
l210 117q-55 18 -94.5 56.5t-56.5 80.5q-14 36 -14 72q0 7 1 31.5t18.5 63.5t49 69.5t72.5 47.5q52 20 105 20q39 0 72.5 -6.5t48.5 -11.5z" />
    <glyph glyph-name="uni0625" unicode="&#x625;" horiz-adv-x="509" arabic-form="isolated" 
d="M338 1424q31 -363 40 -714q2 -88 2 -175q0 -261 -18 -515q-44 2 -79.5 5t-77.5 5q11 96 15 214t4 245t-4 256.5t-10.5 249.5t-13.5 224.5t-14 180.5zM383 -221q-42 6 -84 10q-8 1 -15 1q-35 0 -69 -15q-25 -11 -44 -29.5t-29.5 -41.5t-11.5 -48v-8q0 -21 9 -41t24 -37.5
t35.5 -30.5t44 -21t48.5 -8q12 0 24 1.5t26 6.5q19 7 42 18.5t44.5 23t38.5 21.5t24 16l53 -69q-42 -29 -106 -65t-154 -86l-244 -135q-12 22 -21 39t-21 38l210 117q-55 18 -94.5 56.5t-56.5 80.5q-14 36 -14 72q0 7 1 31.5t18.5 63.5t49 69.5t72.5 47.5q52 20 105 20
q39 0 72.5 -6.5t48.5 -11.5z" />
    <glyph glyph-name="uni0626" unicode="&#x626;" horiz-adv-x="1776" arabic-form="isolated" 
d="M1497 823q37 0 70.5 -4.5t61.5 -11t50 -14t36 -12.5q-10 -21 -19 -39t-17 -35t-16.5 -34.5t-18.5 -38.5q-21 8 -59 16.5t-84 8.5h-12q-51 0 -102 -16t-99.5 -47.5t-89.5 -73t-70.5 -88t-46 -95t-16.5 -92.5q0 -55 24 -89.5t61.5 -56.5t82.5 -34.5t88 -22.5
q55 -14 108.5 -29.5t94.5 -42t66.5 -68t25.5 -106.5q0 -96 -38 -169t-101.5 -126.5t-146.5 -89t-173 -57t-182 -30.5t-172 -9q-149 0 -275 36.5t-218.5 109.5t-144.5 182t-52 255q0 47 6 97q8 57 20.5 117.5t26.5 119.5t29 114t28.5 101t24.5 80t17 52q40 -14 78 -28t75 -27
q-21 -64 -41 -133t-38 -139.5t-32.5 -140.5t-24.5 -135q-2 -17 -3.5 -37t-1.5 -41q0 -107 40 -186t110.5 -130.5t166.5 -76.5t209 -25q147 0 265 24t202 64t131.5 91t52.5 105v5q0 21 -15 37.5t-42 30t-61 24t-69 19.5q-84 22 -150 48t-112 64t-70 94t-24 138q0 79 23 154
t63.5 141.5t96 122t121 95.5t137 62t145.5 22zM729 1222q-42 6 -84 10q-8 1 -15 1q-35 0 -69 -15q-25 -11 -44 -29.5t-29.5 -41.5t-11.5 -48v-8q0 -21 9 -41t24 -37.5t35.5 -30.5t44 -21t48.5 -8q12 0 24 1.5t26 6.5q19 7 42 18.5t44.5 23t38.5 21.5t24 16l53 -69
q-42 -29 -106 -65t-154 -86l-244 -135q-12 22 -21 39t-21 38l210 117q-55 18 -94.5 56.5t-56.5 80.5q-14 36 -14 72q0 7 1 31.5t18.5 63.5t49 69.5t72.5 47.5q52 20 105 20q39 0 72.5 -6.5t48.5 -11.5z" />
    <glyph glyph-name="uni0627" unicode="&#x627;" horiz-adv-x="536" arabic-form="isolated" 
d="M184 20q10 164 14.5 306.5t4.5 279.5q0 187 -6.5 343.5t-15.5 275t-17.5 196.5t-12.5 110l157 24q6 -42 12 -98t10.5 -118.5t8.5 -127t7.5 -122t5.5 -103.5t3 -72q2 -70 3.5 -146.5t1.5 -163.5q0 -135 -4 -281.5t-15 -311.5z" />
    <glyph glyph-name="uni0628" unicode="&#x628;" horiz-adv-x="2013" arabic-form="isolated" 
d="M994 20q-98 0 -197.5 8t-193 27t-176.5 49.5t-147.5 75.5t-106 106.5t-51.5 141.5q-3 24 -3 50q0 59 21 143t90 206l126 -94q-7 -12 -19.5 -35t-25.5 -52.5t-23.5 -63.5t-14.5 -68q-3 -19 -3 -37q0 -14 3 -37t21 -47q33 -46 95 -85t150 -68t202.5 -45.5t252.5 -16.5
q81 0 178 7t198 25t201.5 49t189.5 80q-4 43 -16.5 88.5t-29.5 89.5t-37 85t-39 75.5t-35 61t-25 42.5l133 86q9 -16 27.5 -48t41 -74.5t45.5 -92.5t41.5 -101.5t29.5 -100.5q8 -42 8 -78v-14q-4 -53 -35 -95.5t-82 -76.5t-117.5 -59.5t-140 -44t-150 -30.5t-147.5 -19
t-133 -10t-106 -3zM1137 -357l-147 -147l-147 147l147 147z" />
    <glyph glyph-name="uni0629" unicode="&#x629;" horiz-adv-x="990" arabic-form="isolated" 
d="M485 16q-4 0 -23 1t-47.5 5.5t-63 13.5t-70.5 26q-90 42 -136 113t-46 168q0 85 40 176.5t118 187.5q31 37 67 72.5t65 62.5q-27 24 -42 37.5t-22 20.5t-8 9q-1 1 -2 1h-1l107 114q13 -12 36 -33.5t52.5 -49t62 -60t63.5 -66.5q118 -135 178 -254t60 -218
q0 -97 -43 -167.5t-125 -112.5q-31 -15 -62.5 -24t-60.5 -14.5t-54 -7t-43 -1.5zM473 719q-30 -26 -70 -68t-76 -93t-61 -106.5t-25 -107.5q0 -17 5.5 -35.5t18 -36.5t33.5 -35t51 -32h-1q21 -10 42 -16t39.5 -9t33 -4t22.5 -1q10 0 27 0.5t37.5 3.5t43 8.5t42.5 15.5
q43 23 69 53.5t26 81.5q0 68 -64.5 170t-176.5 226zM438 1343l-146 -146l-148 147l146 147zM793 1341l-145 -146l-148 148l146 146z" />
    <glyph glyph-name="uni062A" unicode="&#x62a;" horiz-adv-x="2013" arabic-form="isolated" 
d="M994 20q-98 0 -197.5 8t-193 27t-176.5 49.5t-147.5 75.5t-106 106.5t-51.5 141.5q-3 24 -3 50q0 59 21 143t90 206l126 -94q-7 -12 -19.5 -35t-25.5 -52.5t-23.5 -63.5t-14.5 -68q-3 -19 -3 -37q0 -14 3 -37t21 -47q33 -46 95 -85t150 -68t202.5 -45.5t252.5 -16.5
q81 0 178 7t198 25t201.5 49t189.5 80q-4 43 -16.5 88.5t-29.5 89.5t-37 85t-39 75.5t-35 61t-25 42.5l133 86q9 -16 27.5 -48t41 -74.5t45.5 -92.5t41.5 -101.5t29.5 -100.5q8 -42 8 -78v-14q-4 -53 -35 -95.5t-82 -76.5t-117.5 -59.5t-140 -44t-150 -30.5t-147.5 -19
t-133 -10t-106 -3zM979 982l-146 -146l-148 147l146 147zM1334 980l-145 -146l-148 148l146 146z" />
    <glyph glyph-name="uni062B" unicode="&#x62b;" horiz-adv-x="2013" arabic-form="isolated" 
d="M994 20q-98 0 -197.5 8t-193 27t-176.5 49.5t-147.5 75.5t-106 106.5t-51.5 141.5q-3 24 -3 50q0 59 21 143t90 206l126 -94q-7 -12 -19.5 -35t-25.5 -52.5t-23.5 -63.5t-14.5 -68q-3 -19 -3 -37q0 -14 3 -37t21 -47q33 -46 95 -85t150 -68t202.5 -45.5t252.5 -16.5
q81 0 178 7t198 25t201.5 49t189.5 80q-4 43 -16.5 88.5t-29.5 89.5t-37 85t-39 75.5t-35 61t-25 42.5l133 86q9 -16 27.5 -48t41 -74.5t45.5 -92.5t41.5 -101.5t29.5 -100.5q8 -42 8 -78v-14q-4 -53 -35 -95.5t-82 -76.5t-117.5 -59.5t-140 -44t-150 -30.5t-147.5 -19
t-133 -10t-106 -3zM1062 969l146 146l148 -148l-146 -146zM656 970l146 147l148 -148l-146 -147zM879 1260l132 132l133 -133l-132 -132z" />
    <glyph glyph-name="uni062C" unicode="&#x62c;" horiz-adv-x="1647" arabic-form="isolated" 
d="M867 -608q142 0 267 39.5t248 124.5l90 -129q-143 -96 -302 -147.5t-341 -51.5q-150 0 -282 40.5t-230.5 118.5t-155.5 191t-57 257q0 110 36.5 209.5t105 184.5t166.5 153.5t221 116t269 72.5q135 22 285 22h25q-36 19 -78 49.5t-88 65.5t-95.5 70t-101.5 63t-106 46
t-108 18t-101.5 -22t-88.5 -56t-75 -74.5t-60 -76.5q-37 24 -65 42.5t-64 41.5q34 54 79.5 108.5t101 97.5t120.5 70t137 27q84 0 158.5 -21.5t142.5 -57.5t131 -82t125.5 -94.5t125.5 -96.5t131 -87l-63 -182q-80 8 -158 8q-62 0 -160 -8.5t-219.5 -42.5t-224 -88
t-178 -123.5t-121 -152.5t-52.5 -174v-7q0 -76 22.5 -140.5t64.5 -116.5t100 -90.5t126 -64t143.5 -38t153.5 -12.5zM1064 -78l-147 -147l-147 147l147 147z" />
    <glyph glyph-name="uni062D" unicode="&#x62d;" horiz-adv-x="1647" arabic-form="isolated" 
d="M867 -608q142 0 267 39.5t248 124.5l90 -129q-143 -96 -302 -147.5t-341 -51.5q-150 0 -282 40.5t-230.5 118.5t-155.5 191t-57 257q0 110 36.5 209.5t105 184.5t166.5 153.5t221 116t269 72.5q135 22 285 22h25q-36 19 -78 49.5t-88 65.5t-95.5 70t-101.5 63t-106 46
t-108 18t-101.5 -22t-88.5 -56t-75 -74.5t-60 -76.5q-37 24 -65 42.5t-64 41.5q34 54 79.5 108.5t101 97.5t120.5 70t137 27q84 0 158.5 -21.5t142.5 -57.5t131 -82t125.5 -94.5t125.5 -96.5t131 -87l-63 -182q-80 8 -158 8q-62 0 -160 -8.5t-219.5 -42.5t-224 -88
t-178 -123.5t-121 -152.5t-52.5 -174v-7q0 -76 22.5 -140.5t64.5 -116.5t100 -90.5t126 -64t143.5 -38t153.5 -12.5z" />
    <glyph glyph-name="uni062E" unicode="&#x62e;" horiz-adv-x="1647" arabic-form="isolated" 
d="M867 -608q142 0 267 39.5t248 124.5l90 -129q-143 -96 -302 -147.5t-341 -51.5q-150 0 -282 40.5t-230.5 118.5t-155.5 191t-57 257q0 110 36.5 209.5t105 184.5t166.5 153.5t221 116t269 72.5q135 22 285 22h25q-36 19 -78 49.5t-88 65.5t-95.5 70t-101.5 63t-106 46
t-108 18t-101.5 -22t-88.5 -56t-75 -74.5t-60 -76.5q-37 24 -65 42.5t-64 41.5q34 54 79.5 108.5t101 97.5t120.5 70t137 27q84 0 158.5 -21.5t142.5 -57.5t131 -82t125.5 -94.5t125.5 -96.5t131 -87l-63 -182q-80 8 -158 8q-62 0 -160 -8.5t-219.5 -42.5t-224 -88
t-178 -123.5t-121 -152.5t-52.5 -174v-7q0 -76 22.5 -140.5t64.5 -116.5t100 -90.5t126 -64t143.5 -38t153.5 -12.5zM769 1426l-147 -147l-147 147l147 147z" />
    <glyph glyph-name="uni062F" unicode="&#x62f;" horiz-adv-x="1127" arabic-form="isolated" 
d="M545 21q-45 0 -106.5 10t-122 26.5t-112 37.5t-77.5 42l67 153q36 -21 82 -40t97 -33.5t105 -23.5t106 -9q37 0 72.5 4.5t68 15.5t60.5 29t49 45q30 37 30 87q0 8 -4 42.5t-37.5 102.5t-86.5 138t-112 131.5t-116.5 108.5t-98.5 70l65 146q55 -30 111.5 -73.5t110.5 -97
t103.5 -113.5t89.5 -122.5t69 -126t43 -122.5q7 -33 10 -69q1 -15 1 -31q0 -20 -3 -47.5t-16 -61t-37 -61.5q-36 -43 -82.5 -73t-100 -49t-112 -27.5t-116.5 -8.5z" />
    <glyph glyph-name="uni0630" unicode="&#x630;" horiz-adv-x="1138" arabic-form="isolated" 
d="M545 21q-45 0 -106.5 10t-122 26.5t-112 37.5t-77.5 42l67 153q36 -21 82 -40t97 -33.5t105 -23.5t106 -9q37 0 72.5 4.5t68 15.5t60.5 29t49 45q30 37 30 87q0 8 -4 42.5t-37.5 102.5t-86.5 138t-112 131.5t-116.5 108.5t-98.5 70l65 146q55 -30 111.5 -73.5t110.5 -97
t103.5 -113.5t89.5 -122.5t69 -126t43 -122.5q7 -33 10 -69q1 -15 1 -31q0 -20 -3 -47.5t-16 -61t-37 -61.5q-36 -43 -82.5 -73t-100 -49t-112 -27.5t-116.5 -8.5zM609 1486l-147 -147l-147 147l147 147z" />
    <glyph glyph-name="uni0631" unicode="&#x631;" horiz-adv-x="739" arabic-form="isolated" 
d="M481 625q16 -52 36.5 -117.5t38.5 -136t30.5 -143t12.5 -138.5q0 -83 -24.5 -162t-67.5 -151.5t-102.5 -139t-129.5 -125.5t-148.5 -109.5t-159.5 -91.5l-69 140q105 54 203 123.5t174 151t122 173.5t46 191q0 54 -11 115t-28 124.5t-37 126.5t-38 122z" />
    <glyph glyph-name="uni0632" unicode="&#x632;" horiz-adv-x="761" arabic-form="isolated" 
d="M481 625q16 -52 36.5 -117.5t38.5 -136t30.5 -143t12.5 -138.5q0 -83 -24.5 -162t-67.5 -151.5t-102.5 -139t-129.5 -125.5t-148.5 -109.5t-159.5 -91.5l-69 140q105 54 203 123.5t174 151t122 173.5t46 191q0 54 -11 115t-28 124.5t-37 126.5t-38 122zM542 1062
l-147 -147l-147 147l147 147z" />
    <glyph glyph-name="uni0633" unicode="&#x633;" horiz-adv-x="2692" arabic-form="isolated" 
d="M2420 897q15 -27 39 -78.5t47.5 -117t40 -140t16.5 -146.5q-1 -82 -19 -153.5t-56.5 -124.5t-99 -83.5t-145.5 -30.5q-26 0 -56.5 9.5t-62 27.5t-61 45t-53.5 63q-66 -78 -141 -110t-156 -36h-13q-56 0 -109.5 23.5t-97.5 61.5q2 -34 2 -65q0 -92 -20 -184.5t-68 -175
t-118.5 -143.5t-156.5 -100.5t-185.5 -58.5t-205.5 -19q-123 0 -226.5 34t-182 98t-129.5 156.5t-67 210.5q-9 63 -9 124q0 31 4 91t26 146t57.5 166.5t80.5 154.5q34 -25 63 -44t60 -42q-35 -56 -63 -127t-45 -148t-22 -154q-2 -29 -2 -56q0 -46 6 -89q4 -28 14 -65.5
t30 -77.5t52.5 -79.5t80.5 -70.5t114.5 -50t154.5 -19q157 7 270.5 42t186.5 99t107.5 157t34.5 216q0 76 -14.5 146t-37 135.5t-50 126t-52.5 117.5l138 78l54 -123q27 -62 59 -121.5t72 -106t89 -75t111 -29.5q64 3 102 31.5t58 73.5t26.5 103t6.5 120v122q45 4 83.5 8
t81.5 9q2 -17 2 -33v-16v-16q1 -26 3.5 -66.5t9.5 -86t19 -92t32 -83.5t49.5 -60t70.5 -23q38 0 68 22t50 58t30 83q9 42 9 85v9q-4 56 -17.5 111t-31.5 105t-37.5 93t-36.5 76z" />
    <glyph glyph-name="uni0634" unicode="&#x634;" horiz-adv-x="2692" arabic-form="isolated" 
d="M2420 897q15 -27 39 -78.5t47.5 -117t40 -140t16.5 -146.5q-1 -82 -19 -153.5t-56.5 -124.5t-99 -83.5t-145.5 -30.5q-26 0 -56.5 9.5t-62 27.5t-61 45t-53.5 63q-66 -78 -141 -110t-156 -36h-13q-56 0 -109.5 23.5t-97.5 61.5q2 -34 2 -65q0 -92 -20 -184.5t-68 -175
t-118.5 -143.5t-156.5 -100.5t-185.5 -58.5t-205.5 -19q-123 0 -226.5 34t-182 98t-129.5 156.5t-67 210.5q-9 63 -9 124q0 31 4 91t26 146t57.5 166.5t80.5 154.5q34 -25 63 -44t60 -42q-35 -56 -63 -127t-45 -148t-22 -154q-2 -29 -2 -56q0 -46 6 -89q4 -28 14 -65.5
t30 -77.5t52.5 -79.5t80.5 -70.5t114.5 -50t154.5 -19q157 7 270.5 42t186.5 99t107.5 157t34.5 216q0 76 -14.5 146t-37 135.5t-50 126t-52.5 117.5l138 78l54 -123q27 -62 59 -121.5t72 -106t89 -75t111 -29.5q64 3 102 31.5t58 73.5t26.5 103t6.5 120v122q45 4 83.5 8
t81.5 9q2 -17 2 -33v-16v-16q1 -26 3.5 -66.5t9.5 -86t19 -92t32 -83.5t49.5 -60t70.5 -23q38 0 68 22t50 58t30 83q9 42 9 85v9q-4 56 -17.5 111t-31.5 105t-37.5 93t-36.5 76zM1980 1177l146 146l148 -148l-146 -146zM1574 1178l146 147l148 -148l-146 -147zM1797 1468
l132 132l133 -133l-132 -132z" />
    <glyph glyph-name="uni0635" unicode="&#x635;" horiz-adv-x="2916" arabic-form="isolated" 
d="M836 -629q-137 0 -255.5 31.5t-207 99.5t-139 174.5t-50.5 256.5q0 56 12.5 129.5t34 151.5t50 152.5t59.5 133.5l132 -85q-14 -27 -36.5 -78.5t-43.5 -118t-36 -142.5t-15 -151q0 -102 36 -176.5t101 -123.5t156.5 -72.5t201.5 -23.5q123 0 220 36.5t164.5 103.5
t103 162t35.5 212q0 78 -13.5 158t-33 152.5t-40 133t-34.5 98.5q37 14 75.5 29.5t70.5 26.5q17 -39 30.5 -70.5t26.5 -58.5t26.5 -52t30.5 -52q35 -56 72 -88.5t60 -46.5q92 148 177.5 247t166.5 162t157 96.5t150 49.5q50 11 100 11q11 0 47.5 -2.5t93 -22t106 -53
t85.5 -80t57 -105.5t21 -128q0 -86 -31.5 -154t-85 -119.5t-124 -87.5t-147.5 -58.5t-156 -32.5t-150 -10q-89 0 -165 9.5t-145.5 31t-136.5 55.5t-137 82q0 -9 0.5 -24.5t1 -32t1 -32t0.5 -24.5q0 -152 -48 -277t-136.5 -214.5t-214 -139t-281.5 -49.5zM1767 201
q78 -29 162 -43t175 -14q51 0 111 7.5t120 23t115.5 40.5t98 60t68 80.5t25.5 102.5q0 59 -31 104t-79.5 73.5t-107.5 38.5q-28 5 -56 5q-30 0 -60 -6q-57 -12 -113 -40.5t-109 -67.5t-101.5 -86t-89.5 -95.5t-73.5 -95.5t-54.5 -87z" />
    <glyph glyph-name="uni0636" unicode="&#x636;" horiz-adv-x="2912" arabic-form="isolated" 
d="M836 -629q-137 0 -255.5 31.5t-207 99.5t-139 174.5t-50.5 256.5q0 56 12.5 129.5t34 151.5t50 152.5t59.5 133.5l132 -85q-14 -27 -36.5 -78.5t-43.5 -118t-36 -142.5t-15 -151q0 -102 36 -176.5t101 -123.5t156.5 -72.5t201.5 -23.5q123 0 220 36.5t164.5 103.5
t103 162t35.5 212q0 78 -13.5 158t-33 152.5t-40 133t-34.5 98.5q37 14 75.5 29.5t70.5 26.5q17 -39 30.5 -70.5t26.5 -58.5t26.5 -52t30.5 -52q35 -56 72 -88.5t60 -46.5q92 148 177.5 247t166.5 162t157 96.5t150 49.5q50 11 100 11q11 0 47.5 -2.5t93 -22t106 -53
t85.5 -80t57 -105.5t21 -128q0 -86 -31.5 -154t-85 -119.5t-124 -87.5t-147.5 -58.5t-156 -32.5t-150 -10q-89 0 -165 9.5t-145.5 31t-136.5 55.5t-137 82q0 -9 0.5 -24.5t1 -32t1 -32t0.5 -24.5q0 -152 -48 -277t-136.5 -214.5t-214 -139t-281.5 -49.5zM1767 201
q78 -29 162 -43t175 -14q51 0 111 7.5t120 23t115.5 40.5t98 60t68 80.5t25.5 102.5q0 59 -31 104t-79.5 73.5t-107.5 38.5q-28 5 -56 5q-30 0 -60 -6q-57 -12 -113 -40.5t-109 -67.5t-101.5 -86t-89.5 -95.5t-73.5 -95.5t-54.5 -87zM2537 1258l-147 -147l-147 147l147 147z
" />
    <glyph glyph-name="uni0637" unicode="&#x637;" horiz-adv-x="1816" arabic-form="isolated" 
d="M856 20q-122 0 -223 10t-189.5 28t-168 43t-157.5 55q16 41 28.5 75t27.5 72q60 -23 123 -42.5t133 -36.5q21 31 58.5 81.5t83.5 110.5q7 48 12 90t8 80.5t4.5 74.5t1.5 73q0 63 -3.5 133t-10.5 161q-7 99 -15 183.5t-15.5 150.5t-13.5 110t-9 61l157 21q3 -22 10 -81
t15 -136t16.5 -162.5t14.5 -161.5q3 -32 4.5 -55t2.5 -44.5t2 -45t1.5 -56t1.5 -79t3 -112.5q267 255 483 287q32 5 65 5q41 0 100.5 -11.5t123.5 -50t106.5 -99.5t47.5 -141q1 -11 1 -22q0 -41 -10 -86.5t-30 -91t-45.5 -83.5t-52.5 -64q-82 -79 -173 -127t-182 -74
t-177.5 -34.5t-159.5 -8.5zM603 192q59 -11 125 -14.5t132 -3.5q60 0 133 5t151 25t155.5 59.5t146.5 108.5q19 19 35.5 46.5t28 59t17.5 65.5q3 21 3 40q0 12 -1 23q-6 48 -32.5 78.5t-64 47t-81.5 20.5q-22 2 -43 2t-42 -2q-106 -17 -229 -97t-261 -233z" />
    <glyph glyph-name="uni0638" unicode="&#x638;" horiz-adv-x="1807" arabic-form="isolated" 
d="M856 20q-122 0 -223 10t-189.5 28t-168 43t-157.5 55q16 41 28.5 75t27.5 72q60 -23 123 -42.5t133 -36.5q21 31 58.5 81.5t83.5 110.5q7 48 12 90t8 80.5t4.5 74.5t1.5 73q0 63 -3.5 133t-10.5 161q-7 99 -15 183.5t-15.5 150.5t-13.5 110t-9 61l157 21q3 -22 10 -81
t15 -136t16.5 -162.5t14.5 -161.5q3 -32 4.5 -55t2.5 -44.5t2 -45t1.5 -56t1.5 -79t3 -112.5q267 255 483 287q32 5 65 5q41 0 100.5 -11.5t123.5 -50t106.5 -99.5t47.5 -141q1 -11 1 -22q0 -41 -10 -86.5t-30 -91t-45.5 -83.5t-52.5 -64q-82 -79 -173 -127t-182 -74
t-177.5 -34.5t-159.5 -8.5zM603 192q59 -11 125 -14.5t132 -3.5q60 0 133 5t151 25t155.5 59.5t146.5 108.5q19 19 35.5 46.5t28 59t17.5 65.5q3 21 3 40q0 12 -1 23q-6 48 -32.5 78.5t-64 47t-81.5 20.5q-22 2 -43 2t-42 -2q-106 -17 -229 -97t-261 -233zM1467 1406
l-147 -147l-147 147l147 147z" />
    <glyph glyph-name="uni0639" unicode="&#x639;" horiz-adv-x="1532" arabic-form="isolated" 
d="M828 -687q-91 0 -179.5 18t-168 53.5t-147 90t-115 128t-72.5 165.5q-21 77 -21 167q0 18 1 37q6 121 49.5 218t117 175t172 139t214.5 110q-43 15 -78.5 48t-61 76t-39.5 94q-13 47 -13 93v7q2 82 35.5 155.5t89.5 128.5t129 88.5t154 36.5q11 1 23 1q42 0 89.5 -10.5
t98.5 -33t97.5 -53.5t85.5 -67q-24 -29 -50 -61.5t-49 -60.5q-31 24 -65 46.5t-70 40.5t-74.5 29t-77.5 12h-4q-44 0 -91.5 -20t-86 -55t-61.5 -82q-19 -39 -19 -83q0 -9 1 -19q6 -57 35 -99.5t74 -71t102 -41.5q46 -12 94 -12q11 0 21 1q40 2 82 7t83.5 11.5t81 15
t74.5 17.5l25 -163q-52 -9 -106 -18.5t-130 -21.5q-88 -15 -153.5 -29.5t-117.5 -30.5t-96 -34.5t-89 -40.5q-24 -12 -57.5 -32t-69.5 -48t-72.5 -65t-66 -83.5t-49.5 -102t-24 -121.5q-1 -18 -1 -36q0 -95 39.5 -178t116 -144t179 -92.5t215.5 -31.5q62 0 126 10t126 30
t120.5 49.5t110.5 69.5l93 -133q-78 -62 -153.5 -100t-148.5 -59t-142.5 -28t-135.5 -7z" />
    <glyph glyph-name="uni063A" unicode="&#x63a;" horiz-adv-x="1534" arabic-form="isolated" 
d="M828 -687q-91 0 -179.5 18t-168 53.5t-147 90t-115 128t-72.5 165.5q-21 77 -21 167q0 18 1 37q6 121 49.5 218t117 175t172 139t214.5 110q-43 15 -78.5 48t-61 76t-39.5 94q-13 47 -13 93v7q2 82 35.5 155.5t89.5 128.5t129 88.5t154 36.5q11 1 23 1q42 0 89.5 -10.5
t98.5 -33t97.5 -53.5t85.5 -67q-24 -29 -50 -61.5t-49 -60.5q-31 24 -65 46.5t-70 40.5t-74.5 29t-77.5 12h-4q-44 0 -91.5 -20t-86 -55t-61.5 -82q-19 -39 -19 -83q0 -9 1 -19q6 -57 35 -99.5t74 -71t102 -41.5q46 -12 94 -12q11 0 21 1q40 2 82 7t83.5 11.5t81 15
t74.5 17.5l25 -163q-52 -9 -106 -18.5t-130 -21.5q-88 -15 -153.5 -29.5t-117.5 -30.5t-96 -34.5t-89 -40.5q-24 -12 -57.5 -32t-69.5 -48t-72.5 -65t-66 -83.5t-49.5 -102t-24 -121.5q-1 -18 -1 -36q0 -95 39.5 -178t116 -144t179 -92.5t215.5 -31.5q62 0 126 10t126 30
t120.5 49.5t110.5 69.5l93 -133q-78 -62 -153.5 -100t-148.5 -59t-142.5 -28t-135.5 -7zM1059 1713l-147 -147l-147 147l147 147z" />
    <glyph glyph-name="uni0641" unicode="&#x641;" horiz-adv-x="1985" arabic-form="isolated" 
d="M1036 20q-98 0 -197.5 8t-193.5 27t-177.5 49.5t-148.5 75.5t-107 106.5t-53 141.5q-3 24 -3 50q0 59 20.5 143t89.5 206l126 -94q-7 -12 -19.5 -35t-25.5 -52.5t-23.5 -63.5t-14.5 -68q-3 -19 -3 -37q0 -14 3 -37t21 -47q33 -46 95 -85.5t150 -69t202.5 -46t252.5 -16.5
q148 0 258 9.5t191 32t137 59.5t94 91q-64 -6 -121 -6q-67 0 -150.5 11t-154.5 56t-100 124q-18 47 -18 108q0 41 8 88q10 62 36 125.5t65 114.5t90 83.5t113 32.5q63 0 117 -27t97.5 -73t76.5 -106t55.5 -126t34 -134t11.5 -128q0 -99 -29.5 -174t-83.5 -129.5
t-129.5 -90.5t-168.5 -57.5t-200 -30.5t-223 -9zM1478 947q-17 0 -42.5 -13.5t-51.5 -40.5t-48.5 -68.5t-32.5 -96.5q-5 -27 -5 -49q0 -40 20.5 -73.5t68 -53t108 -23t117.5 -3.5q21 0 48.5 0.5t60.5 3.5q-1 35 -9.5 79.5t-24 90.5t-37 90.5t-48.5 79.5t-58 56t-66 21z
M1633 1481l-147 -147l-147 147l147 147z" />
    <glyph glyph-name="uni0642" unicode="&#x642;" horiz-adv-x="1574" arabic-form="isolated" 
d="M1028 670q-37 0 -73 -30t-64.5 -76t-46 -100t-17.5 -102q0 -49 24.5 -81.5t64.5 -53t90.5 -31t103.5 -15t103.5 -4.5h89.5q0 45 -8.5 99t-24.5 109t-40 106t-54.5 91t-67.5 64t-80 24zM1297 20q-32 -1 -64 -1q-47 0 -108.5 2.5t-129 14t-123 34t-95.5 61t-62 94.5
t-22 134q1 48 11.5 101.5t30 105.5t47.5 99.5t65 83t82 57t99 21.5q74 0 134 -32.5t107.5 -86.5t82.5 -124.5t58 -147t34 -153.5t11 -144q0 -197 -52.5 -340.5t-147.5 -237t-227.5 -139t-292.5 -45.5q-149 3 -267.5 45t-201.5 120t-127 191.5t-44 259.5q0 77 14 150
t37 140.5t52.5 128.5t61.5 114l128 -94q-18 -28 -41 -73t-44 -102.5t-35 -126t-14 -143.5q0 -46 7.5 -97.5t27.5 -102t54.5 -96t88.5 -80t129 -55t177 -20.5q120 0 218 34t170 97t116 152.5t55 200.5zM982 1212l-146 -146l-148 147l146 147zM1337 1210l-145 -146l-148 148
l146 146z" />
    <glyph glyph-name="uni0643" unicode="&#x643;" horiz-adv-x="2024" arabic-form="isolated" 
d="M1856 508q0 -110 -39.5 -189t-106.5 -133t-156 -87t-187.5 -52t-200.5 -27t-195 -11q-33 -1 -64 -1q-53 0 -118 4t-136.5 16t-134 28.5t-115.5 35.5q-97 38 -166 92.5t-103 126.5q-21 44 -30 89q-8 41 -8 82v29t10 70t26 88q20 51 41 89.5t34 58.5l126 -94
q-19 -26 -32 -55.5t-24 -58.5q-21 -56 -24 -114q-1 -8 -1 -16q0 -50 22 -96q28 -50 88.5 -89.5t149.5 -67.5t205 -43t254 -15q67 0 147 4t161 16.5t157 36t134.5 62.5t94 95t35.5 135l-1 957l156 16q1 -950 1 -982zM1135 981q-46 6 -86 10q-7 1 -15 1q-33 0 -67 -15
q-24 -11 -43 -29.5t-30.5 -41.5t-12.5 -48v-7q0 -22 10 -42q8 -20 23 -37.5t35.5 -31t44.5 -21t49 -7.5q45 1 96.5 26.5t102.5 60.5l53 -69q-42 -29 -106 -65t-154 -86l-244 -135q-12 22 -21 39t-21 38l210 117q-54 23 -93 59t-58 78q-12 35 -12 71q0 8 1 33t18 63.5t48 69
t72 47.5q52 20 105 20q39 0 72.5 -6.5t48.5 -11.5z" />
    <glyph glyph-name="uni0644" unicode="&#x644;" horiz-adv-x="1483" arabic-form="isolated" 
d="M379 330q-23 -50 -41 -96t-31 -94t-19 -102q-5 -46 -5 -101v-19q2 -92 36.5 -165.5t92 -125.5t132.5 -79.5t158 -27.5q51 0 106.5 11t108.5 35t100.5 61t83.5 88.5t57 119t21 151.5q0 73 -2 170.5t-5.5 209t-7.5 231t-9 236.5t-9.5 225.5t-8.5 197.5t-6.5 153t-3.5 92
q44 1 79 3.5t77 4.5q8 -158 14.5 -307.5t11.5 -295.5q5 -123 9.5 -252.5t8.5 -251.5t6 -229.5t2 -186.5q0 -117 -28.5 -208.5t-76.5 -160.5t-111 -117t-133 -78.5t-141.5 -44t-136.5 -13.5q-62 0 -129.5 13t-133 41.5t-124.5 72.5t-103.5 105.5t-69.5 141.5q-25 77 -25 173
v7q0 70 11.5 139t28.5 131t36.5 115t36.5 91z" />
    <glyph glyph-name="uni0645" unicode="&#x645;" horiz-adv-x="1237" arabic-form="isolated" 
d="M730 253q61 -25 101 -35t49 -11q18 7 31.5 33t22.5 58.5t13.5 65.5t4.5 54q0 40 -11 83.5t-33 79.5t-55.5 59.5t-78.5 23.5h-3q-22 0 -45.5 -15t-47 -41.5t-46 -60.5t-41.5 -70.5t-34.5 -73.5t-26.5 -69zM153 -711l-36 908v12q0 38 10.5 73.5t33.5 63.5t56.5 44t75.5 16
q34 0 91 -16q15 43 35.5 92.5t47 98t58.5 93t71 78t85 52.5q42 17 89 17h10q80 -3 139.5 -34t99.5 -81.5t61.5 -114.5t26.5 -133q1 -19 1 -39q0 -41 -6.5 -95t-29.5 -112t-63.5 -101.5t-101.5 -58.5q-11 -3 -26 -3q-18 0 -50.5 5.5t-86.5 22t-115.5 40t-123 47.5
t-119.5 46.5t-106 37.5q-5 -6 -5.5 -14t-0.5 -31l35 -914h-156z" />
    <glyph glyph-name="uni0646" unicode="&#x646;" horiz-adv-x="1619" arabic-form="isolated" 
d="M767 -668q-149 3 -267.5 45t-201.5 120t-127 191.5t-44 259.5q0 77 13.5 156.5t36 154.5t52 142t61.5 120l128 -94q-18 -28 -41 -79t-43 -116t-34 -140t-14 -150q0 -46 7.5 -97t27.5 -100t54.5 -93.5t88.5 -79.5t129 -56.5t177 -24.5h27q121 0 221.5 33.5t172.5 101
t109.5 164t37.5 214.5q0 88 -17.5 169t-42 149t-50.5 119t-43 78l139 89q9 -14 25.5 -43.5t35.5 -71.5t39 -95t36 -115t26.5 -131t10.5 -143q0 -158 -54 -286t-151 -217t-231 -134q-119 -41 -257 -41q-19 0 -37 1zM967 648l-147 -147l-147 147l147 147z" />
    <glyph glyph-name="uni0647" unicode="&#x647;" horiz-adv-x="990" arabic-form="isolated" 
d="M485 16q-4 0 -23 1t-47.5 5.5t-63 13.5t-70.5 26q-90 42 -136 113t-46 168q0 85 40 176.5t118 187.5q31 37 67 72.5t65 62.5q-27 24 -42 37.5t-22 20.5t-8 9q-1 1 -2 1h-1l107 114q13 -12 36 -33.5t52.5 -49t62 -60t63.5 -66.5q118 -135 178 -254t60 -218
q0 -97 -43 -167.5t-125 -112.5q-31 -15 -62.5 -24t-60.5 -14.5t-54 -7t-43 -1.5zM473 719q-30 -26 -70 -68t-76 -93t-61 -106.5t-25 -107.5q0 -17 5.5 -35.5t18 -36.5t33.5 -35t51 -32h-1q21 -10 42 -16t39.5 -9t33 -4t22.5 -1q10 0 27 0.5t37.5 3.5t43 8.5t42.5 15.5
q43 23 69 53.5t26 81.5q0 68 -64.5 170t-176.5 226z" />
    <glyph glyph-name="uni0648" unicode="&#x648;" horiz-adv-x="1078" arabic-form="isolated" 
d="M101 -525q152 33 274 92t209.5 132.5t139 156.5t63.5 164q-33 -1 -65 -1q-47 0 -108 2.5t-128.5 14t-123 34t-95.5 61t-62 94.5t-22 134q1 48 11.5 101.5t30 105.5t47.5 99.5t65 83t82 57t99 21.5q74 0 134 -32.5t107.5 -86.5t82.5 -124.5t58 -147t34 -153.5t11 -144
q0 -113 -30.5 -213t-84.5 -185.5t-129 -155t-165 -123t-191 -89t-207 -52.5zM518 670q-37 0 -73 -30t-64.5 -76t-46 -100t-17.5 -102q5 -49 31 -81t66 -52t89.5 -29.5t101 -13t100.5 -3.5h88q0 45 -8.5 98.5t-24.5 107.5t-40 105t-54.5 90t-67.5 62.5t-80 23.5z" />
    <glyph glyph-name="uni0649" unicode="&#x649;" horiz-adv-x="1793" arabic-form="isolated" 
d="M1497 823q37 0 70.5 -4.5t61.5 -11t50 -14t36 -12.5q-10 -21 -19 -39t-17 -35t-16.5 -34.5t-18.5 -38.5q-21 8 -59 16.5t-84 8.5h-12q-51 0 -102 -16t-99.5 -47.5t-89.5 -73t-70.5 -88t-46 -95t-16.5 -92.5q0 -55 24 -89.5t61.5 -56.5t82.5 -34.5t88 -22.5
q55 -14 108.5 -29.5t94.5 -42t66.5 -68t25.5 -106.5q0 -96 -38 -169t-101.5 -126.5t-146.5 -89t-173 -57t-182 -30.5t-172 -9q-149 0 -275 36.5t-218.5 109.5t-144.5 182t-52 255q0 47 6 97q8 57 20.5 117.5t26.5 119.5t29 114t28.5 101t24.5 80t17 52q40 -14 78 -28t75 -27
q-21 -64 -41 -133t-38 -139.5t-32.5 -140.5t-24.5 -135q-2 -17 -3.5 -37t-1.5 -41q0 -107 40 -186t110.5 -130.5t166.5 -76.5t209 -25q147 0 265 24t202 64t131.5 91t52.5 105v5q0 21 -15 37.5t-42 30t-61 24t-69 19.5q-84 22 -150 48t-112 64t-70 94t-24 138q0 79 23 154
t63.5 141.5t96 122t121 95.5t137 62t145.5 22z" />
    <glyph glyph-name="uni064A" unicode="&#x64a;" horiz-adv-x="1774" arabic-form="isolated" 
d="M1497 823q37 0 70.5 -4.5t61.5 -11t50 -14t36 -12.5q-10 -21 -19 -39t-17 -35t-16.5 -34.5t-18.5 -38.5q-21 8 -59 16.5t-84 8.5h-12q-51 0 -102 -16t-99.5 -47.5t-89.5 -73t-70.5 -88t-46 -95t-16.5 -92.5q0 -55 24 -89.5t61.5 -56.5t82.5 -34.5t88 -22.5
q55 -14 108.5 -29.5t94.5 -42t66.5 -68t25.5 -106.5q0 -96 -38 -169t-101.5 -126.5t-146.5 -89t-173 -57t-182 -30.5t-172 -9q-149 0 -275 36.5t-218.5 109.5t-144.5 182t-52 255q0 47 6 97q8 57 20.5 117.5t26.5 119.5t29 114t28.5 101t24.5 80t17 52q40 -14 78 -28t75 -27
q-21 -64 -41 -133t-38 -139.5t-32.5 -140.5t-24.5 -135q-2 -17 -3.5 -37t-1.5 -41q0 -107 40 -186t110.5 -130.5t166.5 -76.5t209 -25q147 0 265 24t202 64t131.5 91t52.5 105v5q0 21 -15 37.5t-42 30t-61 24t-69 19.5q-84 22 -150 48t-112 64t-70 94t-24 138q0 79 23 154
t63.5 141.5t96 122t121 95.5t137 62t145.5 22zM781 -983l-146 -146l-148 147l146 147zM1136 -985l-145 -146l-148 148l146 146z" />
    <glyph glyph-name="uni066E.init" unicode="&#x66e;" horiz-adv-x="715" 
d="M-20 176h116q60 0 110.5 4t92 17.5t74 38.5t57.5 68q15 25 17 63q1 10 1 19q0 30 -6 69.5t-20 89.5t-30.5 99.5t-35 96t-33.5 85.5l141 71q19 -46 40.5 -99.5t40.5 -110.5t34 -116.5t21 -116.5q3 -31 3 -61q0 -25 -3.5 -64.5t-24.5 -86.5q-29 -64 -70.5 -107t-96.5 -68.5
t-122.5 -36t-146.5 -10.5h-159v156z" />
    <glyph glyph-name="uni066E.medi" unicode="&#x66e;" horiz-adv-x="705" 
d="M725 176v-156h-20q-96 0 -163 37.5t-113 96.5q-69 -68 -169 -101t-243 -33h-37v156h37q178 0 259 65.5t81 194.5q0 54 -7.5 110t-27.5 127q42 11 76.5 21.5t73.5 21.5q8 -30 14 -60.5t10.5 -64t8.5 -73.5t8 -89q3 -40 12 -84.5t30 -82t57 -62t93 -24.5h20z" />
    <glyph glyph-name="uni066E.fina" unicode="&#x66e;" horiz-adv-x="2316" 
d="M2336 176v-156h-42q-70 0 -137.5 18t-124.5 54t-99.5 90.5t-63.5 127.5q-70 -73 -152.5 -127.5t-184.5 -91t-226.5 -55t-277.5 -19.5q-275 1 -462.5 61t-283.5 171.5t-99 270.5v13q0 154 89 346q38 -21 70 -39.5t69 -38.5q-14 -36 -31 -89t-26 -110q-6 -37 -6 -72
q0 -20 3 -58t33 -80q35 -50 94 -89.5t140 -68t184 -43.5t226 -15q180 0 311.5 29.5t223 76.5t150 105t93 114.5t50.5 106t25 78.5l152 -42q-5 -18 -10.5 -42.5t-9.5 -50t-7 -49.5t-3 -43v-9q0 -64 27 -115t70.5 -87t96.5 -54t101 -18h38z" />
    <glyph glyph-name="uni066F.init" unicode="&#x66f;" horiz-adv-x="932" 
d="M0 176q140 0 246.5 9.5t185.5 32t134.5 59.5t93.5 91q-66 -6 -125 -6q-64 0 -146 10t-152 54t-100 123q-19 50 -19 118q0 38 6 82q9 60 34 123.5t64.5 115t91.5 84.5t114 33q63 0 117 -27t97.5 -73t76.5 -106t55.5 -126t34 -134t11.5 -128q0 -99 -30 -174t-83.5 -129.5
t-128 -90.5t-164 -57.5t-191.5 -30.5t-209 -9h-34v156h20zM428 947q-17 0 -42.5 -13.5t-51.5 -40.5t-48.5 -68.5t-32.5 -96.5q-5 -27 -5 -49q0 -40 20.5 -73.5t68 -53t108 -23t117.5 -3.5q21 0 48.5 0.5t60.5 3.5q-1 35 -9.5 79.5t-24 90.5t-37 90.5t-48.5 79.5t-58 56
t-66 21z" />
    <glyph glyph-name="uni066F.medi" unicode="&#x66f;" horiz-adv-x="1001" 
d="M508 761q-30 0 -67 -16.5t-69.5 -50t-54 -83.5t-21.5 -116q0 -27 15 -59.5t43.5 -65.5t70 -64t94.5 -55q43 19 75.5 48t55 63.5t34 71.5t11.5 72q0 48 -17 94t-44 82t-60.5 57.5t-65.5 21.5zM0 176q36 0 75.5 1.5t80 4t79.5 6.5t74 9q-39 34 -68 71.5t-48.5 75.5
t-29 75.5t-9.5 72.5q0 75 26.5 150t73.5 135.5t112 99t143 41.5q79 -5 141 -39.5t104.5 -88t64.5 -121.5t22 -139q0 -81 -33 -164.5t-102 -158.5q78 -16 152 -23.5t143 -7.5h20v-156h-19q-122 0 -244 17t-235 55q-47 -18 -106.5 -31.5t-127 -22.5t-141 -13.5t-148.5 -4.5
h-20v156h20z" />
    <glyph glyph-name="uni066F.fina" unicode="&#x66f;" horiz-adv-x="1570" 
d="M1297 20q-32 -1 -64 -1q-47 0 -108.5 2.5t-129 14t-123 34t-95.5 61t-62 94.5t-22 134q1 48 11.5 101.5t30 105.5t47.5 99.5t65 83t82 57t99 21.5q70 0 128.5 -29.5t104.5 -79.5t81 -116t59 -138t37 -146.5t16 -141.5h136v-156h-141q-16 -165 -74 -286.5t-151 -200.5
t-217.5 -117.5t-271.5 -38.5q-149 3 -267.5 45t-201.5 120t-127 191.5t-44 259.5q0 77 14 150t37 140.5t52.5 128.5t61.5 114l128 -94q-18 -28 -41 -73t-44 -102.5t-35 -126t-14 -143.5q0 -46 7.5 -97.5t27.5 -102t54.5 -96t88.5 -80t129 -55t177 -20.5q120 0 218 34t170 97
t116 152.5t55 200.5zM1028 670q-37 0 -73 -30t-64.5 -76t-46 -100t-17.5 -102q0 -49 24.5 -81.5t64.5 -53t90.5 -31t103.5 -15t103.5 -4.5h89.5q0 45 -8.5 99t-24.5 109t-40 106t-54.5 91t-67.5 64t-80 24z" />
    <glyph glyph-name="uni0671" unicode="&#x671;" horiz-adv-x="509" arabic-form="isolated" 
d="M338 1424q31 -363 40 -714q2 -88 2 -175q0 -261 -18 -515q-44 2 -79.5 5t-77.5 5q11 96 15 214t4 245t-4 256.5t-10.5 249.5t-13.5 224.5t-14 180.5zM352 1650q24 0 54.5 3t59.5 12t51 26.5t29 47.5q1 7 1 13q0 10 -4.5 21.5t-15.5 21.5t-26 15q-12 4 -26 4h-5
q-40 0 -74 -20.5t-59 -46.5q-34 -35 -61 -90q22 -5 42 -6t34 -1zM609 1800q9 -24 9 -47q0 -20 -11.5 -51t-50.5 -66q-45 -32 -98 -42.5t-116 -12.5h-11q-28 0 -52.5 4t-44.5 11t-34.5 16t-26.5 17q-16 11 -29 19q-12 6 -28 6h-5q-24 -1 -48 -12.5t-52 -30.5l-29 67
q39 23 78 34.5t58 11.5q26 0 48 -10t42 -29q35 63 70 104q24 27 49.5 47t54.5 32q42 18 87 18q51 0 86.5 -20t53.5 -66z" />
    <glyph glyph-name="uni0679" unicode="&#x679;" horiz-adv-x="2013" arabic-form="isolated" 
d="M994 20q-98 0 -197.5 8t-193 27t-176.5 49.5t-147.5 75.5t-106 106.5t-51.5 141.5q-3 24 -3 50q0 59 21 143t90 206l126 -94q-7 -12 -19.5 -35t-25.5 -52.5t-23.5 -63.5t-14.5 -68q-3 -19 -3 -37q0 -14 3 -37t21 -47q33 -46 95 -85t150 -68t202.5 -45.5t252.5 -16.5
q81 0 178 7t198 25t201.5 49t189.5 80q-4 43 -16.5 88.5t-29.5 89.5t-37 85t-39 75.5t-35 61t-25 42.5l133 86q9 -16 27.5 -48t41 -74.5t45.5 -92.5t41.5 -101.5t29.5 -100.5q8 -42 8 -78v-14q-4 -53 -35 -95.5t-82 -76.5t-117.5 -59.5t-140 -44t-150 -30.5t-147.5 -19
t-133 -10t-106 -3zM1008 820q-53 2 -96.5 6.5t-81 11.5t-72 17t-70.5 24q7 17 14 32.5t14 32.5q50 -20 108 -33l60 81q6 39 9 69t3 62q0 28 -2 59t-5 73q-3 32 -5.5 59t-5 52t-5.5 48.5t-6 49.5l72 14l3 -22q2 -23 5 -55.5t6.5 -68.5t5.5 -64q2 -26 3.5 -40.5t2 -24.5t1 -19
t0.5 -22q0 -11 0.5 -33.5t1.5 -45.5q33 30 62 52.5t57 38.5t55.5 24t57.5 8q28 0 57 -8.5t52 -25.5t38 -41.5t17 -55.5q1 -7 1 -15q0 -14 -4 -32.5t-13 -38.5t-20.5 -36.5t-23.5 -28.5q-36 -35 -75 -56t-77.5 -31.5t-75 -13.5t-68.5 -3zM902 898q15 -2 29.5 -3.5t23.5 -1.5
q14 -1 27.5 -1h27.5q27 0 57.5 4t62.5 14t64 25.5t61 39.5q19 17 28.5 38t9.5 40t-7.5 35.5t-22 28t-34.5 16.5q-11 3 -24 3q-10 0 -21 -2q-46 -7 -98.5 -43.5t-111.5 -102.5z" />
    <glyph glyph-name="uni067E" unicode="&#x67e;" horiz-adv-x="2013" arabic-form="isolated" 
d="M994 20q-98 0 -197.5 8t-193 27t-176.5 49.5t-147.5 75.5t-106 106.5t-51.5 141.5q-3 24 -3 50q0 59 21 143t90 206l126 -94q-7 -12 -19.5 -35t-25.5 -52.5t-23.5 -63.5t-14.5 -68q-3 -19 -3 -37q0 -14 3 -37t21 -47q33 -46 95 -85t150 -68t202.5 -45.5t252.5 -16.5
q81 0 178 7t198 25t201.5 49t189.5 80q-4 43 -16.5 88.5t-29.5 89.5t-37 85t-39 75.5t-35 61t-25 42.5l133 86q9 -16 27.5 -48t41 -74.5t45.5 -92.5t41.5 -101.5t29.5 -100.5q8 -42 8 -78v-14q-4 -53 -35 -95.5t-82 -76.5t-117.5 -59.5t-140 -44t-150 -30.5t-147.5 -19
t-133 -10t-106 -3zM1194 -212l146 -146l-148 -148l-146 146zM788 -213l146 -147l-148 -148l-146 147zM996 -518l132 -132l-133 -133l-132 132z" />
    <glyph glyph-name="uni0686" unicode="&#x686;" horiz-adv-x="1647" arabic-form="isolated" 
d="M867 -608q142 0 267 39.5t248 124.5l90 -129q-143 -96 -302 -147.5t-341 -51.5q-150 0 -282 40.5t-230.5 118.5t-155.5 191t-57 257q0 110 36.5 209.5t105 184.5t166.5 153.5t221 116t269 72.5q135 22 285 22h25q-36 19 -78 49.5t-88 65.5t-95.5 70t-101.5 63t-106 46
t-108 18t-101.5 -22t-88.5 -56t-75 -74.5t-60 -76.5q-37 24 -65 42.5t-64 41.5q34 54 79.5 108.5t101 97.5t120.5 70t137 27q84 0 158.5 -21.5t142.5 -57.5t131 -82t125.5 -94.5t125.5 -96.5t131 -87l-63 -182q-80 8 -158 8q-62 0 -160 -8.5t-219.5 -42.5t-224 -88
t-178 -123.5t-121 -152.5t-52.5 -174v-7q0 -76 22.5 -140.5t64.5 -116.5t100 -90.5t126 -64t143.5 -38t153.5 -12.5zM1119 130l146 -146l-148 -148l-146 146zM713 129l146 -147l-148 -148l-146 147zM921 -176l132 -132l-133 -133l-132 132z" />
    <glyph glyph-name="uni0688" unicode="&#x688;" horiz-adv-x="1138" arabic-form="isolated" 
d="M545 21q-45 0 -106.5 10t-122 26.5t-112 37.5t-77.5 42l67 153q36 -21 82 -40t97 -33.5t105 -23.5t106 -9q37 0 72.5 4.5t68 15.5t60.5 29t49 45q30 37 30 87q0 8 -4 42.5t-37.5 102.5t-86.5 138t-112 131.5t-116.5 108.5t-98.5 70l65 146q55 -30 111.5 -73.5t110.5 -97
t103.5 -113.5t89.5 -122.5t69 -126t43 -122.5q7 -33 10 -69q1 -15 1 -31q0 -20 -3 -47.5t-16 -61t-37 -61.5q-36 -43 -82.5 -73t-100 -49t-112 -27.5t-116.5 -8.5zM513 1300q-53 2 -96.5 6.5t-81 11.5t-72 17t-70.5 24q7 17 14 32.5t14 32.5q50 -20 108 -33l60 81q6 39 9 69
t3 62q0 28 -2 59t-5 73q-3 32 -5.5 59t-5 52t-5.5 48.5t-6 49.5l72 14l3 -22q2 -23 5 -55.5t6.5 -68.5t5.5 -64q2 -26 3.5 -40.5t2 -24.5t1 -19t0.5 -22q0 -11 0.5 -33.5t1.5 -45.5q33 30 62 52.5t57 38.5t55.5 24t57.5 8q28 0 57 -8.5t52 -25.5t38 -41.5t17 -55.5
q1 -7 1 -15q0 -14 -4 -32.5t-13 -38.5t-20.5 -36.5t-23.5 -28.5q-36 -35 -75 -56t-77.5 -31.5t-75 -13.5t-68.5 -3zM407 1378q15 -2 29.5 -3.5t23.5 -1.5q14 -1 27.5 -1h27.5q27 0 57.5 4t62.5 14t64 25.5t61 39.5q19 17 28.5 38t9.5 40t-7.5 35.5t-22 28t-34.5 16.5
q-11 3 -24 3q-10 0 -21 -2q-46 -7 -98.5 -43.5t-111.5 -102.5z" />
    <glyph glyph-name="uni0691" unicode="&#x691;" horiz-adv-x="749" arabic-form="isolated" 
d="M481 625q16 -52 36.5 -117.5t38.5 -136t30.5 -143t12.5 -138.5q0 -83 -24.5 -162t-67.5 -151.5t-102.5 -139t-129.5 -125.5t-148.5 -109.5t-159.5 -91.5l-69 140q105 54 203 123.5t174 151t122 173.5t46 191q0 54 -11 115t-28 124.5t-37 126.5t-38 122zM405 834
q-53 2 -96.5 6.5t-81 11.5t-72 17t-70.5 24q7 17 14 32.5t14 32.5q50 -20 108 -33l60 81q6 39 9 69t3 62q0 28 -2 59t-5 73q-3 32 -5.5 59t-5 52t-5.5 48.5t-6 49.5l72 14l3 -22q2 -23 5 -55.5t6.5 -68.5t5.5 -64q2 -26 3.5 -40.5t2 -24.5t1 -19t0.5 -22q0 -11 0.5 -33.5
t1.5 -45.5q33 30 62 52.5t57 38.5t55.5 24t57.5 8q28 0 57 -8.5t52 -25.5t38 -41.5t17 -55.5q1 -7 1 -15q0 -14 -4 -32.5t-13 -38.5t-20.5 -36.5t-23.5 -28.5q-36 -35 -75 -56t-77.5 -31.5t-75 -13.5t-68.5 -3zM299 912q15 -2 29.5 -3.5t23.5 -1.5q14 -1 27.5 -1h27.5
q27 0 57.5 4t62.5 14t64 25.5t61 39.5q19 17 28.5 38t9.5 40t-7.5 35.5t-22 28t-34.5 16.5q-11 3 -24 3q-10 0 -21 -2q-46 -7 -98.5 -43.5t-111.5 -102.5z" />
    <glyph glyph-name="uni0698" unicode="&#x698;" horiz-adv-x="760" arabic-form="isolated" 
d="M481 625q16 -52 36.5 -117.5t38.5 -136t30.5 -143t12.5 -138.5q0 -83 -24.5 -162t-67.5 -151.5t-102.5 -139t-129.5 -125.5t-148.5 -109.5t-159.5 -91.5l-69 140q105 54 203 123.5t174 151t122 173.5t46 191q0 54 -11 115t-28 124.5t-37 126.5t-38 122zM443 989l146 146
l148 -148l-146 -146zM37 990l146 147l148 -148l-146 -147zM260 1280l132 132l133 -133l-132 -132z" />
    <glyph glyph-name="uni06A9" unicode="&#x6a9;" horiz-adv-x="2138" arabic-form="isolated" 
d="M2110 1470l-796 -320q96 -80 193 -163t175.5 -169t128 -175t49.5 -180q-3 -102 -47.5 -175t-117 -123t-164.5 -79t-189 -44t-192 -19q-64 -3 -120 -3q-28 0 -54 1q-89 2 -188 8.5t-196.5 24t-187 49t-157.5 82.5t-108 125.5t-40 178.5q0 34 10 79.5t26.5 92t37 90
t40.5 75.5l127 -93q-19 -33 -34.5 -62t-27 -57.5t-19 -58.5t-10.5 -65q2 -95 60 -154.5t156 -93.5t230 -47.5t283 -15.5h27q56 0 129 3t156 13t161 29t138.5 49.5t97 74.5t36.5 105q0 43 -26 94t-69 105.5t-98.5 110.5t-114 109.5t-116 101.5t-104.5 87q5 54 11.5 104.5
t11.5 102.5l830 346z" />
    <glyph glyph-name="uni06AF" unicode="&#x6af;" horiz-adv-x="2138" arabic-form="isolated" 
d="M2110 1470l-796 -320q96 -80 193 -163t175.5 -169t128 -175t49.5 -180q-3 -102 -47.5 -175t-117 -123t-164.5 -79t-189 -44t-192 -19q-64 -3 -120 -3q-28 0 -54 1q-89 2 -188 8.5t-196.5 24t-187 49t-157.5 82.5t-108 125.5t-40 178.5q0 34 10 79.5t26.5 92t37 90
t40.5 75.5l127 -93q-19 -33 -34.5 -62t-27 -57.5t-19 -58.5t-10.5 -65q2 -95 60 -154.5t156 -93.5t230 -47.5t283 -15.5h27q56 0 129 3t156 13t161 29t138.5 49.5t97 74.5t36.5 105q0 43 -26 94t-69 105.5t-98.5 110.5t-114 109.5t-116 101.5t-104.5 87q5 54 11.5 104.5
t11.5 102.5l830 346zM1988 1772l-781 -330l7 106l735 307z" />
    <glyph glyph-name="uni06BA" unicode="&#x6ba;" horiz-adv-x="1630" arabic-form="isolated" 
d="M767 -668q-149 3 -267.5 45t-201.5 120t-127 191.5t-44 259.5q0 77 13.5 156.5t36 154.5t52 142t61.5 120l128 -94q-18 -28 -41 -79t-43 -116t-34 -140t-14 -150q0 -46 7.5 -97t27.5 -100t54.5 -93.5t88.5 -79.5t129 -56.5t177 -24.5h27q121 0 221.5 33.5t172.5 101
t109.5 164t37.5 214.5q0 88 -17.5 169t-42 149t-50.5 119t-43 78l139 89q9 -14 25.5 -43.5t35.5 -71.5t39 -95t36 -115t26.5 -131t10.5 -143q0 -158 -54 -286t-151 -217t-231 -134q-119 -41 -257 -41q-19 0 -37 1z" />
    <glyph glyph-name="uni06BE" unicode="&#x6be;" horiz-adv-x="1520" arabic-form="isolated" 
d="M42 180q0 16 7 31.5t20 26.5t31 16q8 2 16 2q11 0 22 -3q168 -60 280 -60q34 0 62 5q-83 85 -123 167t-40 158q0 53 14.5 111t45 111t78.5 95.5t114 65.5l-102 41l73 144q46 -18 85 -33.5t76 -30.5t74 -30.5t79 -33.5q87 -37 170 -78.5t153 -84t123 -86t82 -84.5
q83 -122 83 -248q0 -94 -47 -174t-142 -134l1 1q-25 -16 -61 -27t-76 -18t-80 -10t-73 -3q-82 0 -159.5 13t-158.5 48q-48 -16 -116 -21q-41 -4 -84 -4q-28 0 -80.5 2.5t-128.5 14.5t-140 31q-37 11 -57.5 28.5t-20.5 50.5zM1022 571q0 -45 -13 -96.5t-36 -103.5
t-56.5 -100.5t-73.5 -87.5q42 -9 72.5 -11.5t53.5 -2.5h46q77 0 135.5 18t97.5 49t58.5 72t19.5 86q0 40 -22 87.5t-64 94.5t-103.5 91t-140.5 78q20 -51 24 -93q2 -31 2 -55v-14v-12zM741 801q-9 4 -17 4q-4 0 -7 -1q-61 -6 -111 -33.5t-84 -68.5t-50 -92q-11 -34 -11 -68
q0 -18 3 -35q6 -39 23 -76t42.5 -70t58.5 -61.5t69 -50.5q53 24 92 61.5t65 82t38.5 93t12.5 93.5q0 40 -9 78.5t-25 69t-39 50.5t-50 24h-1z" />
    <glyph glyph-name="uni06C0" unicode="&#x6c0;" horiz-adv-x="990" arabic-form="isolated" 
d="M485 16q-4 0 -23 1t-47.5 5.5t-63 13.5t-70.5 26q-90 42 -136 113t-46 168q0 85 40 176.5t118 187.5q31 37 67 72.5t65 62.5q-27 24 -42 37.5t-22 20.5t-8 9q-1 1 -2 1h-1l107 114q13 -12 36 -33.5t52.5 -49t62 -60t63.5 -66.5q118 -135 178 -254t60 -218
q0 -97 -43 -167.5t-125 -112.5q-31 -15 -62.5 -24t-60.5 -14.5t-54 -7t-43 -1.5zM473 719q-30 -26 -70 -68t-76 -93t-61 -106.5t-25 -107.5q0 -17 5.5 -35.5t18 -36.5t33.5 -35t51 -32h-1q21 -10 42 -16t39.5 -9t33 -4t22.5 -1q10 0 27 0.5t37.5 3.5t43 8.5t42.5 15.5
q43 23 69 53.5t26 81.5q0 68 -64.5 170t-176.5 226zM299 1175v0q119 0 206.5 31.5t124.5 88.5q39 61 9 129q-23 43 -65.5 59t-85.5 21q-80 9 -97 39q-22 63 44 137q33 37 85.5 56t113.5 -2l33 83q-163 55 -297 -75q-106 -118 -61 -235q25 -50 71.5 -68t92.5 -23
q29 -5 53 -11.5t31 -18.5q11 -23 -2 -42q-19 -31 -84.5 -55t-171.5 -24v-90z" />
    <glyph glyph-name="uni06C1" unicode="&#x6c1;" horiz-adv-x="983" arabic-form="isolated" 
d="M485 16q-4 0 -23 1t-47.5 5.5t-63 13.5t-70.5 26q-90 42 -136 113t-46 168q0 85 40 176.5t118 187.5q31 37 67 72.5t65 62.5q-27 24 -42 37.5t-22 20.5t-8 9q-1 1 -2 1h-1l107 114q13 -12 36 -33.5t52.5 -49t62 -60t63.5 -66.5q118 -135 178 -254t60 -218
q0 -97 -43 -167.5t-125 -112.5q-31 -15 -62.5 -24t-60.5 -14.5t-54 -7t-43 -1.5zM473 719q-30 -26 -70 -68t-76 -93t-61 -106.5t-25 -107.5q0 -17 5.5 -35.5t18 -36.5t33.5 -35t51 -32h-1q21 -10 42 -16t39.5 -9t33 -4t22.5 -1q10 0 27 0.5t37.5 3.5t43 8.5t42.5 15.5
q43 23 69 53.5t26 81.5q0 68 -64.5 170t-176.5 226z" />
    <glyph glyph-name="uni06C2.fina" unicode="&#x6c2;" horiz-adv-x="1347" 
d="M1338 20q-70 1 -127.5 24.5t-106.5 61t-92.5 84.5t-85.5 95q-35 40 -69 77.5t-70 66.5t-75.5 47t-85.5 18q-76 0 -131.5 -34.5t-97 -92.5t-71.5 -133t-54 -156q-43 11 -77 20t-75 20q28 106 71 202.5t104 169.5t142.5 116.5t188.5 43.5q69 0 127.5 -23t109.5 -60.5
t95.5 -84.5t85.5 -95q33 -38 68 -76t72.5 -68t78 -48.5t84.5 -18.5h20v-156h-29zM480 1191q-42 6 -84 10q-8 1 -15 1q-35 0 -69 -15q-25 -11 -44 -29.5t-29.5 -41.5t-11.5 -48v-8q0 -21 9 -41t24 -37.5t35.5 -30.5t44 -21t48.5 -8q12 0 24 1.5t26 6.5q19 7 42 18.5t44.5 23
t38.5 21.5t24 16l53 -69q-42 -29 -106 -65t-154 -86l-244 -135q-12 22 -21 39t-21 38l210 117q-55 18 -94.5 56.5t-56.5 80.5q-14 36 -14 72q0 7 1 31.5t18.5 63.5t49 69.5t72.5 47.5q52 20 105 20q39 0 72.5 -6.5t48.5 -11.5z" />
    <glyph glyph-name="uni06C3.fina" unicode="&#x6c3;" horiz-adv-x="1347" 
d="M1338 20q-70 1 -127.5 24.5t-106.5 61t-92.5 84.5t-85.5 95q-35 40 -69 77.5t-70 66.5t-75.5 47t-85.5 18q-76 0 -131.5 -34.5t-97 -92.5t-71.5 -133t-54 -156q-43 11 -77 20t-75 20q28 106 71 202.5t104 169.5t142.5 116.5t188.5 43.5q69 0 127.5 -23t109.5 -60.5
t95.5 -84.5t85.5 -95q33 -38 68 -76t72.5 -68t78 -48.5t84.5 -18.5h20v-156h-29zM561 967l-146 -146l-148 147l146 147zM916 965l-145 -146l-148 148l146 146z" />
    <glyph glyph-name="uni06CC" unicode="&#x6cc;" horiz-adv-x="1774" arabic-form="isolated" 
d="M1497 823q37 0 70.5 -4.5t61.5 -11t50 -14t36 -12.5q-10 -21 -19 -39t-17 -35t-16.5 -34.5t-18.5 -38.5q-21 8 -59 16.5t-84 8.5h-12q-51 0 -102 -16t-99.5 -47.5t-89.5 -73t-70.5 -88t-46 -95t-16.5 -92.5q0 -55 24 -89.5t61.5 -56.5t82.5 -34.5t88 -22.5
q55 -14 108.5 -29.5t94.5 -42t66.5 -68t25.5 -106.5q0 -96 -38 -169t-101.5 -126.5t-146.5 -89t-173 -57t-182 -30.5t-172 -9q-149 0 -275 36.5t-218.5 109.5t-144.5 182t-52 255q0 47 6 97q8 57 20.5 117.5t26.5 119.5t29 114t28.5 101t24.5 80t17 52q40 -14 78 -28t75 -27
q-21 -64 -41 -133t-38 -139.5t-32.5 -140.5t-24.5 -135q-2 -17 -3.5 -37t-1.5 -41q0 -107 40 -186t110.5 -130.5t166.5 -76.5t209 -25q147 0 265 24t202 64t131.5 91t52.5 105v5q0 21 -15 37.5t-42 30t-61 24t-69 19.5q-84 22 -150 48t-112 64t-70 94t-24 138q0 79 23 154
t63.5 141.5t96 122t121 95.5t137 62t145.5 22z" />
    <glyph glyph-name="uni06D2" unicode="&#x6d2;" horiz-adv-x="1298" arabic-form="isolated" 
d="M768 176v-156h-315q-44 0 -80 -14.5t-62.5 -37.5t-41 -51t-14.5 -55q0 -21 8.5 -39.5t26.5 -32.5t45.5 -22t66.5 -8h897v-156h-893q-80 0 -137.5 20.5t-95 54t-55 78t-17.5 92.5q0 58 24 116.5t69.5 105.5t111 76t147.5 29h315z" />
    <glyph glyph-name="uni06D3" unicode="&#x6d3;" horiz-adv-x="1298" arabic-form="isolated" 
d="M768 176v-156h-315q-44 0 -80 -14.5t-62.5 -37.5t-41 -51t-14.5 -55q0 -21 8.5 -39.5t26.5 -32.5t45.5 -22t66.5 -8h897v-156h-893q-80 0 -137.5 20.5t-95 54t-55 78t-17.5 92.5q0 58 24 116.5t69.5 105.5t111 76t147.5 29h315zM475 800q-42 6 -84 10q-8 1 -15 1
q-35 0 -69 -15q-25 -11 -44 -29.5t-29.5 -41.5t-11.5 -48v-8q0 -21 9 -41t24 -37.5t35.5 -30.5t44 -21t48.5 -8q12 0 24 1.5t26 6.5q19 7 42 18.5t44.5 23t38.5 21.5t24 16l53 -69q-42 -29 -106 -65t-154 -86l-244 -135q-12 22 -21 39t-21 38l210 117q-55 18 -94.5 56.5
t-56.5 80.5q-14 36 -14 72q0 7 1 31.5t18.5 63.5t49 69.5t72.5 47.5q52 20 105 20q39 0 72.5 -6.5t48.5 -11.5z" />
    <glyph glyph-name="uni0671.fina" unicode="&#x671;" horiz-adv-x="640" arabic-form="final" 
d="M660 20h-20q-113 0 -187 26.5t-117.5 76t-61 119.5t-17.5 157q0 90 1 179.5t1 180.5q0 94 -1.5 191.5t-6.5 187.5q-4 75 -9.5 141t-13.5 113l156 28q8 -51 13.5 -117.5t9.5 -135.5q7 -112 9 -220.5t2 -217.5q0 -89 -1 -176t-1 -175q0 -66 16 -106t45 -61.5t69.5 -28
t89.5 -6.5h24v-156zM385 1650q24 0 54.5 3t59.5 12t51 26.5t29 47.5q1 7 1 13q0 10 -4.5 21.5t-15.5 21.5t-26 15q-12 4 -26 4h-5q-40 0 -74 -20.5t-59 -46.5q-34 -35 -61 -90q22 -5 42 -6t34 -1zM642 1800q9 -24 9 -47q0 -20 -11.5 -51t-50.5 -66q-45 -32 -98 -42.5
t-116 -12.5h-11q-28 0 -52.5 4t-44.5 11t-34.5 16t-26.5 17q-16 11 -29 19q-12 6 -28 6h-5q-24 -1 -48 -12.5t-52 -30.5l-29 67q39 23 78 34.5t58 11.5q26 0 48 -10t42 -29q35 63 70 104q24 27 49.5 47t54.5 32q42 18 87 18q51 0 86.5 -20t53.5 -66z" />
    <glyph glyph-name="uni067E.fina" unicode="&#x67e;" horiz-adv-x="2316" arabic-form="final" 
d="M2336 176v-156h-42q-70 0 -137.5 18t-124.5 54t-99.5 90.5t-63.5 127.5q-70 -73 -152.5 -127.5t-184.5 -91t-226.5 -55t-277.5 -19.5q-275 1 -462.5 61t-283.5 171.5t-99 270.5v13q0 154 89 346q38 -21 70 -39.5t69 -38.5q-14 -36 -31 -89t-26 -110q-6 -37 -6 -72
q0 -20 3 -58t33 -80q35 -50 94 -89.5t140 -68t184 -43.5t226 -15q180 0 311.5 29.5t223 76.5t150 105t93 114.5t50.5 106t25 78.5l152 -42q-5 -18 -10.5 -42.5t-9.5 -50t-7 -49.5t-3 -43v-9q0 -64 27 -115t70.5 -87t96.5 -54t101 -18h38zM1203 -212l146 -146l-148 -148
l-146 146zM797 -213l146 -147l-148 -148l-146 147zM1005 -518l132 -132l-133 -133l-132 132z" />
    <glyph glyph-name="uni067E.init" unicode="&#x67e;" horiz-adv-x="843" arabic-form="initial" 
d="M-20 176h186q60 0 121 4t114.5 17.5t96 38.5t67.5 68q15 25 17 63q1 10 1 19q0 30 -6 69.5t-20 89.5t-30.5 99.5t-35 96t-33.5 85.5l141 71q19 -46 40.5 -99.5t40.5 -110.5t34 -116.5t21 -116.5q3 -31 3 -61q0 -25 -3.5 -64.5t-24.5 -86.5q-29 -64 -77.5 -107t-113 -68.5
t-143.5 -36t-167 -10.5h-229v156zM581 -212l146 -146l-148 -148l-146 146zM175 -213l146 -147l-148 -148l-146 147zM383 -518l132 -132l-133 -133l-132 132z" />
    <glyph glyph-name="uni067E.medi" unicode="&#x67e;" horiz-adv-x="852" arabic-form="medial" 
d="M872 176v-156h-20q-96 0 -163 37.5t-113 96.5q-34 -34 -75.5 -59t-95 -41.5t-121 -25t-154.5 -8.5h-150v156h150q102 0 173.5 16.5t116 49t64.5 81t20 113.5q0 54 -7.5 110t-27.5 127q42 11 76.5 21.5t73.5 21.5q8 -30 14 -60.5t10.5 -64t8.5 -73.5t8 -89q3 -40 12 -84.5
t30 -82t57 -62t93 -24.5h20zM581 -212l146 -146l-148 -148l-146 146zM175 -213l146 -147l-148 -148l-146 147zM383 -518l132 -132l-133 -133l-132 132z" />
    <glyph glyph-name="uni0679.fina" unicode="&#x679;" horiz-adv-x="2316" arabic-form="final" 
d="M2336 176v-156h-42q-70 0 -137.5 18t-124.5 54t-99.5 90.5t-63.5 127.5q-70 -73 -152.5 -127.5t-184.5 -91t-226.5 -55t-277.5 -19.5q-275 1 -462.5 61t-283.5 171.5t-99 270.5v13q0 154 89 346q38 -21 70 -39.5t69 -38.5q-14 -36 -31 -89t-26 -110q-6 -37 -6 -72
q0 -20 3 -58t33 -80q35 -50 94 -89.5t140 -68t184 -43.5t226 -15q180 0 311.5 29.5t223 76.5t150 105t93 114.5t50.5 106t25 78.5l152 -42q-5 -18 -10.5 -42.5t-9.5 -50t-7 -49.5t-3 -43v-9q0 -64 27 -115t70.5 -87t96.5 -54t101 -18h38zM1115 820q-53 2 -96.5 6.5t-81 11.5
t-72 17t-70.5 24q7 17 14 32.5t14 32.5q50 -20 108 -33l60 81q6 39 9 69t3 62q0 28 -2 59t-5 73q-3 32 -5.5 59t-5 52t-5.5 48.5t-6 49.5l72 14l3 -22q2 -23 5 -55.5t6.5 -68.5t5.5 -64q2 -26 3.5 -40.5t2 -24.5t1 -19t0.5 -22q0 -11 0.5 -33.5t1.5 -45.5q33 30 62 52.5
t57 38.5t55.5 24t57.5 8q28 0 57 -8.5t52 -25.5t38 -41.5t17 -55.5q1 -7 1 -15q0 -14 -4 -32.5t-13 -38.5t-20.5 -36.5t-23.5 -28.5q-36 -35 -75 -56t-77.5 -31.5t-75 -13.5t-68.5 -3zM1009 898q15 -2 29.5 -3.5t23.5 -1.5q14 -1 27.5 -1h27.5q27 0 57.5 4t62.5 14t64 25.5
t61 39.5q19 17 28.5 38t9.5 40t-7.5 35.5t-22 28t-34.5 16.5q-11 3 -24 3q-10 0 -21 -2q-46 -7 -98.5 -43.5t-111.5 -102.5z" />
    <glyph glyph-name="uni0679.init" unicode="&#x679;" horiz-adv-x="843" arabic-form="initial" 
d="M-20 176h186q60 0 121 4t114.5 17.5t96 38.5t67.5 68q15 25 17 63q1 10 1 19q0 30 -6 69.5t-20 89.5t-30.5 99.5t-35 96t-33.5 85.5l141 71q19 -46 40.5 -99.5t40.5 -110.5t34 -116.5t21 -116.5q3 -31 3 -61q0 -25 -3.5 -64.5t-24.5 -86.5q-29 -64 -77.5 -107t-113 -68.5
t-143.5 -36t-167 -10.5h-229v156zM410 1112q-53 2 -96.5 6.5t-81 11.5t-72 17t-70.5 24q7 17 14 32.5t14 32.5q50 -20 108 -33l60 81q6 39 9 69t3 62q0 28 -2 59t-5 73q-3 32 -5.5 59t-5 52t-5.5 48.5t-6 49.5l72 14l3 -22q2 -23 5 -55.5t6.5 -68.5t5.5 -64q2 -26 3.5 -40.5
t2 -24.5t1 -19t0.5 -22q0 -11 0.5 -33.5t1.5 -45.5q33 30 62 52.5t57 38.5t55.5 24t57.5 8q28 0 57 -8.5t52 -25.5t38 -41.5t17 -55.5q1 -7 1 -15q0 -14 -4 -32.5t-13 -38.5t-20.5 -36.5t-23.5 -28.5q-36 -35 -75 -56t-77.5 -31.5t-75 -13.5t-68.5 -3zM304 1190
q15 -2 29.5 -3.5t23.5 -1.5q14 -1 27.5 -1h27.5q27 0 57.5 4t62.5 14t64 25.5t61 39.5q19 17 28.5 38t9.5 40t-7.5 35.5t-22 28t-34.5 16.5q-11 3 -24 3q-10 0 -21 -2q-46 -7 -98.5 -43.5t-111.5 -102.5z" />
    <glyph glyph-name="uni0679.medi" unicode="&#x679;" horiz-adv-x="852" arabic-form="medial" 
d="M872 176v-156h-20q-96 0 -163 37.5t-113 96.5q-34 -34 -75.5 -59t-95 -41.5t-121 -25t-154.5 -8.5h-150v156h150q102 0 173.5 16.5t116 49t64.5 81t20 113.5q0 54 -7.5 110t-27.5 127q42 11 76.5 21.5t73.5 21.5q8 -30 14 -60.5t10.5 -64t8.5 -73.5t8 -89q3 -40 12 -84.5
t30 -82t57 -62t93 -24.5h20zM410 955q-53 2 -96.5 6.5t-81 11.5t-72 17t-70.5 24q7 17 14 32.5t14 32.5q50 -20 108 -33l60 81q6 39 9 69t3 62q0 28 -2 59t-5 73q-3 32 -5.5 59t-5 52t-5.5 48.5t-6 49.5l72 14l3 -22q2 -23 5 -55.5t6.5 -68.5t5.5 -64q2 -26 3.5 -40.5
t2 -24.5t1 -19t0.5 -22q0 -11 0.5 -33.5t1.5 -45.5q33 30 62 52.5t57 38.5t55.5 24t57.5 8q28 0 57 -8.5t52 -25.5t38 -41.5t17 -55.5q1 -7 1 -15q0 -14 -4 -32.5t-13 -38.5t-20.5 -36.5t-23.5 -28.5q-36 -35 -75 -56t-77.5 -31.5t-75 -13.5t-68.5 -3zM304 1033
q15 -2 29.5 -3.5t23.5 -1.5q14 -1 27.5 -1h27.5q27 0 57.5 4t62.5 14t64 25.5t61 39.5q19 17 28.5 38t9.5 40t-7.5 35.5t-22 28t-34.5 16.5q-11 3 -24 3q-10 0 -21 -2q-46 -7 -98.5 -43.5t-111.5 -102.5z" />
    <glyph glyph-name="veh.isol" unicode="&#x6a4;" horiz-adv-x="1985" arabic-form="isolated" 
d="M1036 20q-98 0 -197.5 8t-193.5 27t-177.5 49.5t-148.5 75.5t-107 106.5t-53 141.5q-3 24 -3 50q0 59 20.5 143t89.5 206l126 -94q-7 -12 -19.5 -35t-25.5 -52.5t-23.5 -63.5t-14.5 -68q-3 -19 -3 -37q0 -14 3 -37t21 -47q33 -46 95 -85.5t150 -69t202.5 -46t252.5 -16.5
q148 0 258 9.5t191 32t137 59.5t94 91q-64 -6 -121 -6q-67 0 -150.5 11t-154.5 56t-100 124q-18 47 -18 108q0 41 8 88q10 62 36 125.5t65 114.5t90 83.5t113 32.5q63 0 117 -27t97.5 -73t76.5 -106t55.5 -126t34 -134t11.5 -128q0 -99 -29.5 -174t-83.5 -129.5
t-129.5 -90.5t-168.5 -57.5t-200 -30.5t-223 -9zM1478 947q-17 0 -42.5 -13.5t-51.5 -40.5t-48.5 -68.5t-32.5 -96.5q-5 -27 -5 -49q0 -40 20.5 -73.5t68 -53t108 -23t117.5 -3.5q21 0 48.5 0.5t60.5 3.5q-1 35 -9.5 79.5t-24 90.5t-37 90.5t-48.5 79.5t-58 56t-66 21z
M1535 1455l146 146l148 -148l-146 -146zM1129 1456l146 147l148 -148l-146 -147zM1352 1746l132 132l133 -133l-132 -132z" />
    <glyph glyph-name="veh.fina" unicode="&#x6a4;" horiz-adv-x="2106" arabic-form="final" 
d="M994 20q-98 0 -197.5 8t-193 27t-176.5 49.5t-147.5 75.5t-106 106.5t-51.5 141.5q-3 24 -3 50q0 59 21 143t90 206l126 -94q-7 -12 -19.5 -35t-25.5 -52.5t-23.5 -63.5t-14.5 -68q-3 -19 -3 -37q0 -14 3 -37t21 -47q33 -46 95 -85.5t150 -69t202.5 -46t252.5 -16.5
q77 0 139.5 1.5t113 4t91.5 6.5t76 9q-39 34 -68 71.5t-48.5 75.5t-29 75.5t-9.5 72.5q0 75 26.5 150t73.5 135.5t112 99t143 41.5q79 -5 141 -39.5t104.5 -88t64.5 -121.5t22 -139q0 -81 -33 -164.5t-102 -158.5q78 -16 152 -23.5t143 -7.5h20v-156h-19q-122 0 -244 17
t-235 55q-47 -18 -108 -31.5t-139 -22.5t-174 -13.5t-213 -4.5zM1613 761q-30 0 -67 -16.5t-69.5 -50t-54 -83.5t-21.5 -116q0 -27 15 -59.5t43.5 -65.5t70 -64t94.5 -55q43 19 75.5 48t55 63.5t34 71.5t11.5 72q0 48 -17 94t-44 82t-60.5 57.5t-65.5 21.5zM1670 1271
l146 146l148 -148l-146 -146zM1264 1272l146 147l148 -148l-146 -147zM1487 1562l132 132l133 -133l-132 -132z" />
    <glyph glyph-name="veh.init" unicode="&#x6a4;" horiz-adv-x="943" arabic-form="initial" 
d="M0 176q140 0 246.5 9.5t185.5 32t134.5 59.5t93.5 91q-66 -6 -125 -6q-64 0 -146 10t-152 54t-100 123q-19 50 -19 118q0 38 6 82q9 60 34 123.5t64.5 115t91.5 84.5t114 33q63 0 117 -27t97.5 -73t76.5 -106t55.5 -126t34 -134t11.5 -128q0 -99 -30 -174t-83.5 -129.5
t-128 -90.5t-164 -57.5t-191.5 -30.5t-209 -9h-34v156h20zM428 947q-17 0 -42.5 -13.5t-51.5 -40.5t-48.5 -68.5t-32.5 -96.5q-5 -27 -5 -49q0 -40 20.5 -73.5t68 -53t108 -23t117.5 -3.5q21 0 48.5 0.5t60.5 3.5q-1 35 -9.5 79.5t-24 90.5t-37 90.5t-48.5 79.5t-58 56
t-66 21zM476 1461l146 146l148 -148l-146 -146zM70 1462l146 147l148 -148l-146 -147zM293 1752l132 132l133 -133l-132 -132z" />
    <glyph glyph-name="veh.medi" unicode="&#x6a4;" horiz-adv-x="1001" arabic-form="medial" 
d="M508 761q-30 0 -67 -16.5t-69.5 -50t-54 -83.5t-21.5 -116q0 -27 15 -59.5t43.5 -65.5t70 -64t94.5 -55q43 19 75.5 48t55 63.5t34 71.5t11.5 72q0 48 -17 94t-44 82t-60.5 57.5t-65.5 21.5zM0 176q36 0 75.5 1.5t80 4t79.5 6.5t74 9q-39 34 -68 71.5t-48.5 75.5
t-29 75.5t-9.5 72.5q0 75 26.5 150t73.5 135.5t112 99t143 41.5q79 -5 141 -39.5t104.5 -88t64.5 -121.5t22 -139q0 -81 -33 -164.5t-102 -158.5q78 -16 152 -23.5t143 -7.5h20v-156h-19q-122 0 -244 17t-235 55q-47 -18 -106.5 -31.5t-127 -22.5t-141 -13.5t-148.5 -4.5
h-20v156h20zM552 1271l146 146l148 -148l-146 -146zM146 1272l146 147l148 -148l-146 -147zM369 1562l132 132l133 -133l-132 -132z" />
    <glyph glyph-name="uni0686.fina" unicode="&#x686;" horiz-adv-x="1702" arabic-form="final" 
d="M931 -608q142 0 267 39.5t248 124.5l90 -129q-143 -96 -302 -147.5t-341 -51.5q-150 0 -282 40.5t-230.5 118.5t-155.5 191t-57 257q0 110 36.5 209.5t105 184.5t166.5 153.5t221 116t269 72.5q135 22 285 22h25q-37 19 -78.5 49.5t-87.5 65.5t-95.5 70t-101.5 63
t-106 46t-108 18t-101.5 -22t-88.5 -56t-75 -74.5t-60 -76.5q-37 24 -65 42.5t-64 41.5q34 54 79.5 108.5t101 97.5t120.5 70t137 27q84 0 158.5 -21.5t142.5 -57.5t131 -82t125.5 -94.5t125.5 -96.5t131 -87l-51 -159l-154 -10v-12q0 -79 24.5 -131.5t74.5 -83t123 -41.5
t166 -11h46v-156h-46q-130 0 -231.5 20.5t-171 69.5t-105.5 130t-36 203q-167 -16 -311.5 -67t-253.5 -128t-175 -176t-75 -211v-7q0 -76 22.5 -140.5t64.5 -116.5t100 -90.5t126 -64t143.5 -38t153.5 -12.5zM1090 96l146 -146l-148 -148l-146 146zM684 95l146 -147
l-148 -148l-146 147zM892 -210l132 -132l-133 -133l-132 132z" />
    <glyph glyph-name="uni0686.init" unicode="&#x686;" horiz-adv-x="1587" arabic-form="initial" 
d="M-20 176h217q135 0 273 27.5t273.5 72.5t267 103t254.5 120l-298 124q-48 20 -93.5 40.5t-88 37.5t-80.5 27.5t-71 10.5q-38 0 -72 -13.5t-63.5 -35.5t-54.5 -49t-44.5 -54t-34 -50.5t-22.5 -37.5l-134 80q11 23 31.5 56.5t58.5 79.5q75 91 159.5 136t175.5 45
q47 0 95.5 -11t98.5 -29t101.5 -41.5t104.5 -48.5q58 -27 105.5 -51.5t93.5 -47t95.5 -44.5t111.5 -45q8 -44 16 -79.5t16 -77.5q-35 -14 -56.5 -23.5t-41 -19t-41.5 -21t-58 -29.5q-108 -53 -235 -108t-265.5 -99.5t-284.5 -72.5t-293 -28h-217v156zM1005 -212l146 -146
l-148 -148l-146 146zM599 -213l146 -147l-148 -148l-146 147zM807 -518l132 -132l-133 -133l-132 132z" />
    <glyph glyph-name="uni0686.medi" unicode="&#x686;" horiz-adv-x="1667" arabic-form="medial" 
d="M-20 176h203q136 0 261.5 25t243 66t229.5 93t220 106l60 30q-44 15 -95.5 39t-106.5 50.5t-112 54t-113 49t-109 35.5t-100 14q-56 0 -104 -28.5t-85.5 -67.5t-63.5 -79.5t-38 -63.5l-130 88q31 57 72.5 113t94 99.5t116 70.5t138.5 27q68 0 137.5 -19t139 -48.5
t139 -65.5t138.5 -70t137 -62.5t135 -42.5q4 -23 8 -42t8 -37t8 -36.5t9 -40.5l-27 -12t-20 -9t-29 -14t-55 -27q13 -45 39.5 -77t61 -53.5t72.5 -34.5t74.5 -19.5t67 -8.5t49.5 -2h34v-156h-34q-95 0 -176.5 19t-146.5 55t-112 88t-73 118q-105 -53 -217.5 -103.5
t-232.5 -89.5t-248 -63t-264 -24h-203v156zM937 -210l146 -146l-148 -148l-146 146zM531 -211l146 -147l-148 -148l-146 147zM739 -516l132 -132l-133 -133l-132 132z" />
    <glyph glyph-name="uni0688.fina" unicode="&#x688;" horiz-adv-x="1262" arabic-form="final" 
d="M1282 176v-156h-20q-62 0 -111 11t-87.5 30.5t-68 45t-51.5 54.5q-50 -32 -101 -58t-105 -44.5t-112 -28.5t-123 -10q-54 0 -107.5 11.5t-104 33t-97 53t-85.5 70.5q25 35 46 63.5t45 62.5q79 -69 165.5 -101.5t162.5 -32.5q46 0 95 10.5t94.5 28t84 40.5t64.5 48
l-313 754q41 17 73.5 31t70.5 30q15 -37 34 -82.5t42 -100.5q38 -94 97.5 -235.5t141.5 -340.5q17 -43 33 -77.5t42.5 -59t67.5 -37.5t107 -13h20zM684 1326q-53 2 -96.5 6.5t-81 11.5t-72 17t-70.5 24q7 17 14 32.5t14 32.5q50 -20 108 -33l60 81q6 39 9 69t3 62
q0 28 -2 59t-5 73q-3 32 -5.5 59t-5 52t-5.5 48.5t-6 49.5l72 14l3 -22q2 -23 5 -55.5t6.5 -68.5t5.5 -64q2 -26 3.5 -40.5t2 -24.5t1 -19t0.5 -22q0 -11 0.5 -33.5t1.5 -45.5q33 30 62 52.5t57 38.5t55.5 24t57.5 8q28 0 57 -8.5t52 -25.5t38 -41.5t17 -55.5q1 -7 1 -15
q0 -14 -4 -32.5t-13 -38.5t-20.5 -36.5t-23.5 -28.5q-36 -35 -75 -56t-77.5 -31.5t-75 -13.5t-68.5 -3zM578 1404q15 -2 29.5 -3.5t23.5 -1.5q14 -1 27.5 -1h27.5q27 0 57.5 4t62.5 14t64 25.5t61 39.5q19 17 28.5 38t9.5 40t-7.5 35.5t-22 28t-34.5 16.5q-11 3 -24 3
q-10 0 -21 -2q-46 -7 -98.5 -43.5t-111.5 -102.5z" />
    <glyph glyph-name="uni0698.fina" unicode="&#x698;" horiz-adv-x="813" arabic-form="final" 
d="M605 69q0 -82 -24.5 -160.5t-68 -151.5t-103 -139.5t-129.5 -126t-148 -110t-158 -91.5q-19 40 -35.5 71t-34.5 69q64 35 131.5 79t130.5 95t117.5 109.5t93.5 122t58 132.5q13 49 13 99q0 21 -2 43q-6 54 -19.5 115t-30 121t-33 114.5t-28.5 94.5l150 46
q38 -112 75.5 -192.5t78 -132t84 -76t93.5 -24.5h20v-156h-20q-14 0 -39 1.5t-55 11t-61 30.5t-56 59v-53zM447 989l146 146l148 -148l-146 -146zM41 990l146 147l148 -148l-146 -147zM264 1280l132 132l133 -133l-132 -132z" />
    <glyph glyph-name="uni0691.fina" unicode="&#x691;" horiz-adv-x="813" arabic-form="final" 
d="M605 69q0 -82 -24.5 -160.5t-68 -151.5t-103 -139.5t-129.5 -126t-148 -110t-158 -91.5q-19 40 -35.5 71t-34.5 69q64 35 131.5 79t130.5 95t117.5 109.5t93.5 122t58 132.5q13 49 13 99q0 21 -2 43q-6 54 -19.5 115t-30 121t-33 114.5t-28.5 94.5l150 46
q38 -112 75.5 -192.5t78 -132t84 -76t93.5 -24.5h20v-156h-20q-14 0 -39 1.5t-55 11t-61 30.5t-56 59v-53zM405 834q-53 2 -96.5 6.5t-81 11.5t-72 17t-70.5 24q7 17 14 32.5t14 32.5q50 -20 108 -33l60 81q6 39 9 69t3 62q0 28 -2 59t-5 73q-3 32 -5.5 59t-5 52t-5.5 48.5
t-6 49.5l72 14l3 -22q2 -23 5 -55.5t6.5 -68.5t5.5 -64q2 -26 3.5 -40.5t2 -24.5t1 -19t0.5 -22q0 -11 0.5 -33.5t1.5 -45.5q33 30 62 52.5t57 38.5t55.5 24t57.5 8q28 0 57 -8.5t52 -25.5t38 -41.5t17 -55.5q1 -7 1 -15q0 -14 -4 -32.5t-13 -38.5t-20.5 -36.5t-23.5 -28.5
q-36 -35 -75 -56t-77.5 -31.5t-75 -13.5t-68.5 -3zM299 912q15 -2 29.5 -3.5t23.5 -1.5q14 -1 27.5 -1h27.5q27 0 57.5 4t62.5 14t64 25.5t61 39.5q19 17 28.5 38t9.5 40t-7.5 35.5t-22 28t-34.5 16.5q-11 3 -24 3q-10 0 -21 -2q-46 -7 -98.5 -43.5t-111.5 -102.5z" />
    <glyph glyph-name="uni06A9.fina" unicode="&#x6a9;" horiz-adv-x="2320" arabic-form="final" 
d="M2340 176v-156h-20q-78 0 -152.5 13.5t-141.5 43.5t-124 78t-99 117q-38 -58 -96.5 -99.5t-129 -69.5t-149.5 -45t-158 -26t-154 -11q-38 -1 -73 -1t-67 1q-89 2 -188 8.5t-196.5 24t-187 49t-157.5 82.5t-108 125.5t-40 178.5q0 34 10 79.5t26.5 92t37 90t40.5 75.5
l127 -93q-19 -33 -34.5 -62t-27 -57.5t-19 -58.5t-10.5 -65q2 -95 60 -154.5t156 -93.5t230 -47.5t283 -15.5h27q56 0 129 3t156 13t161 29t138.5 49.5t97 74.5t36.5 105q0 43 -26 94t-69 105.5t-98.5 110.5t-114 109.5t-116 101.5t-104.5 87q5 54 11.5 104.5t11.5 102.5
l830 346l62 -144l-796 -320q81 -68 164.5 -138.5t155.5 -143t127 -147.5t81 -151q18 -49 37.5 -99.5t49.5 -97t73 -87t107 -70.5q42 -20 94 -29.5t115 -10.5h22z" />
    <glyph glyph-name="uni06A9.init" unicode="&#x6a9;" horiz-adv-x="1021" arabic-form="initial" 
d="M-20 176h125q58 0 117.5 1.5t115 10t104 25t84.5 46.5t57 75t21 111q0 79 -39 155.5t-105 154.5t-154 159.5t-186 170.5l21 182l792 339q16 -38 32 -73.5t31 -71.5l-728 -306q57 -48 121.5 -105t122.5 -123q67 -74 112.5 -142.5t73.5 -131t40 -119t12 -105.5
q0 -90 -36.5 -165.5t-101.5 -129.5t-153.5 -84t-192.5 -30h-286v156z" />
    <glyph glyph-name="uni06A9.medi" unicode="&#x6a9;" horiz-adv-x="1188" arabic-form="medial" 
d="M-20 176h349q43 0 89.5 12.5t85.5 38.5t64.5 65.5t25.5 92.5q0 51 -22.5 111.5t-59.5 124.5t-85.5 129.5t-101 125.5t-104.5 111t-97 88q5 51 11.5 99.5t12.5 99.5l854 368q16 -38 32 -73.5t31 -71.5l-807 -339q88 -78 150 -146.5t111 -136t91.5 -137.5t91.5 -151
q45 -74 85.5 -146t89.5 -129.5t112.5 -94.5t154.5 -41h64v-156h-29q-70 0 -123 8.5t-104 25.5h1q-69 25 -131.5 80.5t-114.5 121.5q-21 -60 -58.5 -104t-88.5 -73t-113 -43.5t-132 -15.5h-335v156z" />
    <glyph glyph-name="uni06AF.fina" unicode="&#x6af;" horiz-adv-x="2320" arabic-form="final" 
d="M2340 176v-156h-20q-78 0 -152.5 13.5t-141.5 43.5t-124 78t-99 117q-38 -58 -96.5 -99.5t-129 -69.5t-149.5 -45t-158 -26t-154 -11q-38 -1 -73 -1t-67 1q-89 2 -188 8.5t-196.5 24t-187 49t-157.5 82.5t-108 125.5t-40 178.5q0 34 10 79.5t26.5 92t37 90t40.5 75.5
l127 -93q-19 -33 -34.5 -62t-27 -57.5t-19 -58.5t-10.5 -65q2 -95 60 -154.5t156 -93.5t230 -47.5t283 -15.5h27q56 0 129 3t156 13t161 29t138.5 49.5t97 74.5t36.5 105q0 43 -26 94t-69 105.5t-98.5 110.5t-114 109.5t-116 101.5t-104.5 87q5 54 11.5 104.5t11.5 102.5
l830 346l62 -144l-796 -320q81 -68 164.5 -138.5t155.5 -143t127 -147.5t81 -151q18 -49 37.5 -99.5t49.5 -97t73 -87t107 -70.5q42 -20 94 -29.5t115 -10.5h22zM1997 1772l-781 -330l7 106l735 307z" />
    <glyph glyph-name="uni06AF.init" unicode="&#x6af;" horiz-adv-x="1023" arabic-form="initial" 
d="M-20 176h125q58 0 117.5 1.5t115 10t104 25t84.5 46.5t57 75t21 111q0 79 -39 155.5t-105 154.5t-154 159.5t-186 170.5l21 182l792 339q16 -38 32 -73.5t31 -71.5l-728 -306q57 -48 121.5 -105t122.5 -123q67 -74 112.5 -142.5t73.5 -131t40 -119t12 -105.5
q0 -90 -36.5 -165.5t-101.5 -129.5t-153.5 -84t-192.5 -30h-286v156zM897 1772l-781 -330l7 106l735 307z" />
    <glyph glyph-name="uni06AF.medi" unicode="&#x6af;" horiz-adv-x="1188" arabic-form="medial" 
d="M-20 176h349q43 0 89.5 12.5t85.5 38.5t64.5 65.5t25.5 92.5q0 51 -22.5 111.5t-59.5 124.5t-85.5 129.5t-101 125.5t-104.5 111t-97 88q5 51 11.5 99.5t12.5 99.5l854 368q16 -38 32 -73.5t31 -71.5l-807 -339q88 -78 150 -146.5t111 -136t91.5 -137.5t91.5 -151
q45 -74 85.5 -146t89.5 -129.5t112.5 -94.5t154.5 -41h64v-156h-29q-70 0 -123 8.5t-104 25.5h1q-69 25 -131.5 80.5t-114.5 121.5q-21 -60 -58.5 -104t-88.5 -73t-113 -43.5t-132 -15.5h-335v156zM932 1772l-781 -330l7 106l735 307z" />
    <glyph glyph-name="uni06BA.fina" unicode="&#x6ba;" horiz-adv-x="1709" arabic-form="final" 
d="M1729 20h-20q-67 0 -119 19t-97 59q0 -6 0.5 -18t1 -24.5t1 -24.5t0.5 -18q0 -63 -9 -128t-29 -131q-40 -110 -111 -189t-161.5 -131t-194.5 -76.5t-210 -24.5q-273 0 -435 123.5t-210 375.5v-1q-10 57 -10 118q0 32 5.5 95.5t28.5 154.5t57.5 173.5t73.5 148.5
q36 -26 64.5 -48t62.5 -46q-15 -24 -32.5 -61.5t-35 -84t-32.5 -100t-24.5 -109.5t-11.5 -111q-1 -14 -1 -28q0 -40 7 -78q6 -34 22.5 -74.5t44 -81t67 -78.5t91.5 -67t117 -46.5t144 -17.5q104 0 192 22.5t156 63t115 98t70 128.5q17 52 23.5 103t6.5 102q0 61 -9.5 120
t-24 113t-32 102t-34.5 88q-20 41 -29 61t-17 34l133 84q3 -4 16.5 -30.5t42.5 -86.5q49 -93 93 -154t84.5 -97t77 -50.5t71.5 -14.5h20v-156z" />
    <glyph glyph-name="uni06C0.fina" unicode="&#x6c0;" horiz-adv-x="1090" arabic-form="final" 
d="M634 720q-25 -11 -59 -26t-71 -34.5t-73 -43t-64.5 -51t-46 -59t-17.5 -67.5q0 -37 20.5 -61t53.5 -38.5t75 -20t86 -5.5q46 0 95 5.5t86 12.5q-14 69 -28.5 169.5t-30.5 228.5zM544 160q-82 0 -153.5 13.5t-124.5 45t-83.5 82t-30.5 124.5q0 66 28 123t73 105.5
t100.5 88t109.5 69t101 50t76 30.5l-15 145l157 34q1 -8 4 -35t6.5 -63t8 -76t8 -76t6.5 -62t4 -33q16 -131 29.5 -214t23.5 -132t16.5 -70.5t9.5 -28.5v1q13 -31 30 -51t40.5 -32t53.5 -17t68 -5h20v-156h-20q-38 0 -88 6t-99 29h1q-76 35 -131 126q-135 -21 -229 -21z
M435 1151v0q119 0 206.5 31.5t124.5 88.5q39 61 9 129q-23 43 -65.5 59t-85.5 21q-80 9 -97 39q-22 63 44 137q33 37 85.5 56t113.5 -2l33 83q-163 55 -297 -75q-106 -118 -61 -235q25 -50 71.5 -68t92.5 -23q29 -5 53 -11.5t31 -18.5q11 -23 -2 -42q-19 -31 -84.5 -55
t-171.5 -24v-90z" />
    <glyph glyph-name="uni06C1.fina" unicode="&#x6c1;" horiz-adv-x="1347" arabic-form="final" 
d="M1338 20q-70 1 -127.5 24.5t-106.5 61t-92.5 84.5t-85.5 95q-35 40 -69 77.5t-70 66.5t-75.5 47t-85.5 18q-76 0 -131.5 -34.5t-97 -92.5t-71.5 -133t-54 -156q-43 11 -77 20t-75 20q28 106 71 202.5t104 169.5t142.5 116.5t188.5 43.5q69 0 127.5 -23t109.5 -60.5
t95.5 -84.5t85.5 -95q33 -38 68 -76t72.5 -68t78 -48.5t84.5 -18.5h20v-156h-29z" />
    <glyph glyph-name="uni06C1.init" unicode="&#x6c1;" horiz-adv-x="728" arabic-form="initial" 
d="M496 -453q-28 3 -55.5 16.5t-49.5 35.5t-36 49.5t-15 59.5q1 40 12.5 80.5t32.5 83t52 89t71 99.5l79 -52q-20 -30 -42 -64.5t-40 -67.5t-30 -63t-12 -51q0 -34 26 -56t90 -45zM-20 176h78q49 0 98 2t92.5 14t80.5 38.5t63 75.5q15 28 18 66q1 11 1 22q0 27 -5 63.5
t-16.5 82t-25.5 88.5q-8 25 -19 54t-22.5 56.5t-22 50.5t-16.5 37l141 74q6 -13 16 -35.5t22 -51.5t25 -64t25 -73q17 -54 30.5 -109t18.5 -110q3 -27 3 -55q0 -27 -4 -68t-24 -92q-26 -65 -72.5 -107.5t-105 -68t-125.5 -36t-133 -10.5h-121v156z" />
    <glyph glyph-name="uni06C1.medi" unicode="&#x6c1;" horiz-adv-x="1011" arabic-form="medial" 
d="M-20 176h20q45 0 79.5 8.5t51.5 22.5q9 7 17.5 22t16 32t13.5 34t11 30l148 -53q-8 -43 -11 -84.5t-3 -81.5q0 -233 164 -421q18 106 48 195.5t83 155t134 102.5t200 38h79v-156h-78q-73 0 -125 -23t-88 -61.5t-57.5 -88t-33 -102t-14.5 -103.5q-2 -38 -2 -71v-22
q-34 -20 -64.5 -36.5t-63.5 -35.5q-159 101 -245 255h1q-73 129 -91 318q-14 -9 -34.5 -14.5t-43 -9t-46.5 -5t-46 -1.5h-20v156zM880 -701q-28 3 -55.5 16.5t-49.5 35.5t-36 49.5t-15 59.5q1 40 12.5 80.5t32.5 83t52 89t71 99.5l79 -52q-20 -30 -42 -64.5t-40 -67.5
t-30 -63t-12 -51q0 -34 26 -56t90 -45z" />
    <glyph glyph-name="uni06BE.fina" unicode="&#x6be;" horiz-adv-x="1172" arabic-form="final" 
d="M746 737q-26 -25 -51.5 -50.5t-53.5 -62.5q-68 -97 -98 -206q-22 -80 -22 -168q0 -32 3 -66q85 16 146 50t100.5 78t58 95.5t18.5 102.5q0 61 -25 119q-8 16 -18 32.5t-20.5 31t-20.5 26.5t-17 18zM56 14q0 15 4.5 26t15 20t27 17t39.5 17h-1l225 90q-2 23 -3 43.5
t-1 37.5q0 60 11 119.5t28 116.5q16 48 36.5 89.5t42.5 76t43.5 62t39.5 47.5q14 16 34.5 36t44.5 38t50.5 30t53.5 14q35 0 68 -18.5t61.5 -49t52.5 -70t40.5 -82t26 -85t9.5 -78.5q0 -52 -11 -104.5t-32 -101.5t-52.5 -92t-73.5 -75q-40 -29 -85 -51.5t-101 -36.5
q-14 -5 -36.5 -9.5t-53.5 -9.5q28 -72 72.5 -147.5t105.5 -156.5q13 84 53 165t98.5 144.5t131.5 102.5q71 37 148 37h4h20v-156h-28q-61 0 -110 -26.5t-84 -70t-54 -99.5t-19 -116q0 -54 16.5 -106t51.5 -98q3 -2 6.5 -5.5l6.5 -6.5q-27 -33 -51.5 -62t-50.5 -60
q-90 74 -164.5 149.5t-134.5 156t-105.5 167t-77.5 182.5q-61 -21 -131 -44.5t-132 -44.5q-33 1 -54 23t-21 55z" />
    <glyph glyph-name="uni06BE.init" unicode="&#x6be;" horiz-adv-x="1514" arabic-form="initial" 
d="M-20 176h29q68 0 120 1.5t94 4.5t76.5 7t66.5 9q-88 85 -130 167t-42 158q0 53 15.5 111t47.5 111t82.5 95.5t120.5 65.5l-107 41l77 144q66 -25 148.5 -56.5t171 -68.5t176.5 -78t164.5 -84t136.5 -87t91 -87q88 -121 88 -248q0 -94 -49.5 -174t-149.5 -134l1 1
q-27 -16 -65 -27t-80 -18t-84.5 -10t-76.5 -3q-88 0 -169.5 13t-166.5 48q-51 -16 -118 -27t-140.5 -18t-150 -10t-148.5 -3h-29v156zM749 183q70 -15 139 -15q24 0 81.5 4.5t129.5 33.5t116 77.5t44 110.5q0 40 -23 87.5t-67.5 94.5t-109 91t-148.5 78q31 -75 31 -154
t-24 -154t-68 -140.5t-101 -113.5zM617 804q-15 2 -29 2q-42 0 -87.5 -22.5t-83 -67t-56.5 -100.5q-14 -41 -14 -79q0 -15 2 -30q6 -39 24.5 -76t45.5 -70t61.5 -61.5t72.5 -50.5q56 24 97.5 61.5t68.5 82t40.5 93t13.5 93.5q0 31 -7 67.5t-24.5 69t-47.5 57t-77 31.5z" />
    <glyph glyph-name="uni06BE.medi" unicode="&#x6be;" horiz-adv-x="1035" arabic-form="medial" 
d="M-20 176h183q-1 12 -1 25q0 48 10 116t32.5 147.5t56.5 156.5t77 138t95 98t110 37q40 0 74 -18.5t62 -49.5t49.5 -73t36.5 -88.5t22.5 -96t7.5 -95.5q0 -96 -36 -171.5t-97 -130t-140 -89.5t-166 -51q13 -33 36 -80.5t54.5 -97t70 -93.5t82.5 -70q-2 19 -2 38
q0 77 30 156.5t91 146.5t143 106t174 39h20v-156h-28q-61 0 -116 -29.5t-96 -77t-65.5 -107.5t-24.5 -122q0 -51 17.5 -98.5t57.5 -92.5l-104 -125q-101 63 -180 136.5t-139 153t-102 161.5t-68 162l-14 39h-213v156zM541 730q-26 0 -53 -23t-52 -61t-46.5 -87t-38 -102
t-26 -105.5t-9.5 -97.5q0 -14 1.5 -31t3.5 -34q78 0 138.5 25.5t102.5 69.5t64 103t22 127q0 31 -10.5 68.5t-26 70.5t-34.5 55t-36 22z" />
    <glyph glyph-name="uni06D2.fina" unicode="&#x6d2;" horiz-adv-x="991" arabic-form="final" 
d="M1010 176v-156h-557q-44 0 -80 -14.5t-62.5 -37.5t-41 -51t-14.5 -55q0 -21 8.5 -39.5t26.5 -32.5t45.5 -22t66.5 -8h967v-156h-963q-80 0 -137.5 20.5t-95 54t-55 78t-17.5 92.5q0 58 24 116.5t69.5 105.5t111 76t147.5 29h557z" />
    <glyph glyph-name="uni06D3.fina" unicode="&#x6d3;" horiz-adv-x="991" arabic-form="final" 
d="M1010 176v-156h-557q-44 0 -80 -14.5t-62.5 -37.5t-41 -51t-14.5 -55q0 -21 8.5 -39.5t26.5 -32.5t45.5 -22t66.5 -8h967v-156h-963q-80 0 -137.5 20.5t-95 54t-55 78t-17.5 92.5q0 58 24 116.5t69.5 105.5t111 76t147.5 29h557zM542 776q-42 6 -84 10q-8 1 -15 1
q-35 0 -69 -15q-25 -11 -44 -29.5t-29.5 -41.5t-11.5 -48v-8q0 -21 9 -41t24 -37.5t35.5 -30.5t44 -21t48.5 -8q12 0 24 1.5t26 6.5q19 7 42 18.5t44.5 23t38.5 21.5t24 16l53 -69q-42 -29 -106 -65t-154 -86l-244 -135q-12 22 -21 39t-21 38l210 117q-55 18 -94.5 56.5
t-56.5 80.5q-14 36 -14 72q0 7 1 31.5t18.5 63.5t49 69.5t72.5 47.5q52 20 105 20q39 0 72.5 -6.5t48.5 -11.5z" />
    <glyph glyph-name="uni0649.init" unicode="&#x649;" horiz-adv-x="723" arabic-form="initial" 
d="M-20 176h116q60 0 110.5 4t92 17.5t74 38.5t57.5 68q15 25 17 63q1 10 1 19q0 30 -6 69.5t-20 89.5t-30.5 99.5t-35 96t-33.5 85.5l141 71q19 -46 40.5 -99.5t40.5 -110.5t34 -116.5t21 -116.5q3 -31 3 -61q0 -25 -3.5 -64.5t-24.5 -86.5q-29 -64 -70.5 -107t-96.5 -68.5
t-122.5 -36t-146.5 -10.5h-159v156z" />
    <glyph glyph-name="uni0649.medi" unicode="&#x649;" horiz-adv-x="705" arabic-form="medial" 
d="M725 176v-156h-20q-96 0 -163 37.5t-113 96.5q-69 -68 -169 -101t-243 -33h-37v156h37q178 0 259 65.5t81 194.5q0 54 -7.5 110t-27.5 127q42 11 76.5 21.5t73.5 21.5q8 -30 14 -60.5t10.5 -64t8.5 -73.5t8 -89q3 -40 12 -84.5t30 -82t57 -62t93 -24.5h20z" />
    <glyph glyph-name="uni06CC.fina" unicode="&#x6cc;" horiz-adv-x="1715" arabic-form="final" 
d="M830 -632q-85 0 -176 8.5t-175 33t-154 70t-114 120.5q-93 135 -93 351v23.5t1 24.5q7 134 46 287.5t115 339.5q40 -16 74 -30t71 -29q-72 -182 -110.5 -340.5t-38.5 -279.5q0 -161 65 -259q29 -42 67 -70t81 -46.5t88.5 -28t90.5 -13.5t86.5 -4.5t75.5 -0.5q30 0 85 5
t119.5 17t131 32t120.5 49t88.5 69t34.5 93q0 14 -11.5 33.5t-37.5 41t-68 45t-102 45.5q-36 12 -70.5 22.5t-66 18.5t-57 14t-43.5 9l11 158l771 -1v-156h-320q45 -37 74 -70.5t46.5 -62.5t24 -53.5t6.5 -43.5q-1 -81 -38 -144t-97 -110t-137.5 -79t-158.5 -52
t-160.5 -28.5t-144.5 -8.5z" />
    <glyph glyph-name="uni06CC.init" unicode="&#x6cc;" horiz-adv-x="838" arabic-form="initial" 
d="M-20 176h186q60 0 121 4t114.5 17.5t96 38.5t67.5 68q15 25 17 63q1 10 1 19q0 30 -6 69.5t-20 89.5t-30.5 99.5t-35 96t-33.5 85.5l141 71q19 -46 40.5 -99.5t40.5 -110.5t34 -116.5t21 -116.5q3 -31 3 -61q0 -25 -3.5 -64.5t-24.5 -86.5q-29 -64 -77.5 -107t-113 -68.5
t-143.5 -36t-167 -10.5h-229v156zM338 -327l-146 -146l-148 147l146 147zM693 -329l-145 -146l-148 148l146 146z" />
    <glyph glyph-name="uni06CC.medi" unicode="&#x6cc;" horiz-adv-x="852" arabic-form="medial" 
d="M872 176v-156h-20q-96 0 -163 37.5t-113 96.5q-34 -34 -75.5 -59t-95 -41.5t-121 -25t-154.5 -8.5h-150v156h150q102 0 173.5 16.5t116 49t64.5 81t20 113.5q0 54 -7.5 110t-27.5 127q42 11 76.5 21.5t73.5 21.5q8 -30 14 -60.5t10.5 -64t8.5 -73.5t8 -89q3 -40 12 -84.5
t30 -82t57 -62t93 -24.5h20zM338 -327l-146 -146l-148 147l146 147zM693 -329l-145 -146l-148 148l146 146z" />
    <glyph glyph-name="uni0651064C" unicode="&#xfc5e;" arabic-form="isolated" 
d="M-146 1683q-76 3 -122 45.5t-46 114.5q0 43 11.5 81.5t21.5 57.5q18 -9 35 -16t34 -15q-9 -23 -16.5 -52.5t-7.5 -56.5q0 -45 27 -63.5t66 -18.5q36 0 57 19t31.5 47.5t13.5 60.5t3 58q0 10 -0.5 16t-0.5 13l66 18q4 -63 17.5 -105t30 -66.5t34 -35t29.5 -10.5
q36 4 55 21t25 42q4 15 4 32q0 12 -3 33t-13.5 51t-24 58t-26.5 48q16 12 32 22t31 20q9 -15 23 -39.5t27 -54.5t23 -63.5t11 -65.5v-7q0 -39 -12 -70.5t-35 -54.5t-54.5 -35t-67.5 -12q-26 0 -60 13t-67 56q-29 -42 -65.5 -64t-86.5 -22zM-151 2108q7 11 14.5 29t11.5 39
q2 16 2 32q0 6 -0.5 19.5t-10.5 33.5t-27 25q-8 2 -15 2q-10 0 -24.5 -4t-33 -15.5t-32.5 -22.5l-54 55q24 27 57 45t68 23q9 1 18 1q25 0 52.5 -10t51.5 -41q14 -19 20 -46t6.5 -53t-1.5 -47t-3 -28q50 20 101.5 47.5t96.5 60.5q-31 16 -66.5 32.5t-66 39t-51 54
t-20.5 76.5t24 83.5t61.5 64t82.5 32.5q13 2 25 2q32 0 62 -13q42 -23 64.5 -62t29.5 -85q4 -25 4 -50q0 -22 -4.5 -57t-19.5 -77l35 -13l-26 -75q-9 2 -21.5 7.5t-28.5 12.5q-33 -35 -74.5 -63.5t-84.5 -51t-85 -39.5t-76 -29zM25 2488q-2 -3 -4 -15q-1 -6 -1 -12
q0 -8 3 -21.5t18 -33t49 -37.5l107 -50q8 21 15 54q5 28 5 58q0 5 -1 24.5t-13 49.5t-41 46q-15 7 -31 7q-5 0 -18 -2.5t-32.5 -13t-34.5 -25.5t-21 -29z" />
    <glyph glyph-name="uni0651064D" unicode="&#xfc5f;" arabic-form="isolated" 
d="M-146 1683q-76 3 -122 45.5t-46 114.5q0 43 11.5 81.5t21.5 57.5q18 -9 35 -16t34 -15q-9 -23 -16.5 -52.5t-7.5 -56.5q0 -45 27 -63.5t66 -18.5q36 0 57 19t31.5 47.5t13.5 60.5t3 58q0 10 -0.5 16t-0.5 13l66 18q4 -63 17.5 -105t30 -66.5t34 -35t29.5 -10.5
q36 4 55 21t25 42q4 15 4 32q0 12 -3 33t-13.5 51t-24 58t-26.5 48q16 12 32 22t31 20q9 -15 23 -39.5t27 -54.5t23 -63.5t11 -65.5v-7q0 -39 -12 -70.5t-35 -54.5t-54.5 -35t-67.5 -12q-26 0 -60 13t-67 56q-29 -42 -65.5 -64t-86.5 -22zM314 1590l-577 -228v98l577 220
v-90zM314 1332l-577 -228v98l577 220v-90z" />
    <glyph glyph-name="uni0651064E" unicode="&#xfc60;" arabic-form="isolated" 
d="M-146 1683q-76 3 -122 45.5t-46 114.5q0 43 11.5 81.5t21.5 57.5q18 -9 35 -16t34 -15q-9 -23 -16.5 -52.5t-7.5 -56.5q0 -45 27 -63.5t66 -18.5q36 0 57 19t31.5 47.5t13.5 60.5t3 58q0 10 -0.5 16t-0.5 13l66 18q4 -63 17.5 -105t30 -66.5t34 -35t29.5 -10.5
q36 4 55 21t25 42q4 15 4 32q0 12 -3 33t-13.5 51t-24 58t-26.5 48q16 12 32 22t31 20q9 -15 23 -39.5t27 -54.5t23 -63.5t11 -65.5v-7q0 -39 -12 -70.5t-35 -54.5t-54.5 -35t-67.5 -12q-26 0 -60 13t-67 56q-29 -42 -65.5 -64t-86.5 -22zM311 2317l-577 -228v98l577 220
v-90z" />
    <glyph glyph-name="uni0651064F" unicode="&#xfc61;" arabic-form="isolated" 
d="M-146 1683q-76 3 -122 45.5t-46 114.5q0 43 11.5 81.5t21.5 57.5q18 -9 35 -16t34 -15q-9 -23 -16.5 -52.5t-7.5 -56.5q0 -45 27 -63.5t66 -18.5q36 0 57 19t31.5 47.5t13.5 60.5t3 58q0 10 -0.5 16t-0.5 13l66 18q4 -63 17.5 -105t30 -66.5t34 -35t29.5 -10.5
q36 4 55 21t25 42q4 15 4 32q0 12 -3 33t-13.5 51t-24 58t-26.5 48q16 12 32 22t31 20q9 -15 23 -39.5t27 -54.5t23 -63.5t11 -65.5v-7q0 -39 -12 -70.5t-35 -54.5t-54.5 -35t-67.5 -12q-26 0 -60 13t-67 56q-29 -42 -65.5 -64t-86.5 -22zM-268 2151q27 8 67.5 22.5t85.5 34
t91.5 44.5t86.5 55q-31 16 -66.5 32.5t-66 39t-51 54t-20.5 76.5t24 83.5t61.5 64t82.5 32.5q13 2 25 2q32 0 62 -13q42 -23 64.5 -62t29.5 -85q4 -25 4 -50q0 -22 -4.5 -57t-19.5 -77l35 -13l-26 -75q-9 2 -21.5 7.5t-28.5 12.5q-42 -44 -100 -79t-115 -61t-105.5 -42.5
t-71.5 -23.5zM-59 2542q-2 -3 -4 -15q-1 -6 -1 -12q0 -8 3 -21.5t18 -33t49 -37.5l107 -50q8 21 15 54q5 28 5 58q0 5 -1 24.5t-13 49.5t-41 46q-15 7 -31 7q-5 0 -18 -2.5t-32.5 -13t-34.5 -25.5t-21 -29z" />
    <glyph glyph-name="uni06510650" unicode="&#xfc62;" arabic-form="isolated" 
d="M-146 1683q-76 3 -122 45.5t-46 114.5q0 43 11.5 81.5t21.5 57.5q18 -9 35 -16t34 -15q-9 -23 -16.5 -52.5t-7.5 -56.5q0 -45 27 -63.5t66 -18.5q36 0 57 19t31.5 47.5t13.5 60.5t3 58q0 10 -0.5 16t-0.5 13l66 18q4 -63 17.5 -105t30 -66.5t34 -35t29.5 -10.5
q36 4 55 21t25 42q4 15 4 32q0 12 -3 33t-13.5 51t-24 58t-26.5 48q16 12 32 22t31 20q9 -15 23 -39.5t27 -54.5t23 -63.5t11 -65.5v-7q0 -39 -12 -70.5t-35 -54.5t-54.5 -35t-67.5 -12q-26 0 -60 13t-67 56q-29 -42 -65.5 -64t-86.5 -22zM299 1549l-577 -228v98l577 220
v-90z" />
    <glyph glyph-name="uniFC63" unicode="&#xfc63;" arabic-form="isolated" 
d="M-146 1683q-76 3 -122 45.5t-46 114.5q0 43 11.5 81.5t21.5 57.5q18 -9 35 -16t34 -15q-9 -23 -16.5 -52.5t-7.5 -56.5q0 -45 27 -63.5t66 -18.5q36 0 57 19t31.5 47.5t13.5 60.5t3 58q0 10 -0.5 16t-0.5 13l66 18q4 -63 17.5 -105t30 -66.5t34 -35t29.5 -10.5
q36 4 55 21t25 42q4 15 4 32q0 12 -3 33t-13.5 51t-24 58t-26.5 48q16 12 32 22t31 20q9 -15 23 -39.5t27 -54.5t23 -63.5t11 -65.5v-7q0 -39 -12 -70.5t-35 -54.5t-54.5 -35t-67.5 -12q-26 0 -60 13t-67 56q-29 -42 -65.5 -64t-86.5 -22zM-52 2192q8 40 12.5 85.5t4.5 87.5
q0 22 -1.5 50t-4 57t-6 56.5t-7.5 47.5q18 6 41.5 10.5t39.5 10.5q4 -20 7.5 -46.5t6 -55.5t4 -58t1.5 -54q0 -48 -4 -99t-15 -112z" />
    <glyph glyph-name="fathatan_01" unicode="&#xfe70;" arabic-form="isolated" 
d="M296 2074l-577 -228v98l577 220v-90zM296 1816l-577 -228v98l577 220v-90z" />
    <glyph glyph-name="dammatan_01" unicode="&#xfe72;" arabic-form="isolated" 
d="M-151 1569q7 11 14.5 29t11.5 39q2 16 2 32q0 6 -0.5 19.5t-10.5 33.5t-27 25q-8 2 -15 2q-10 0 -24.5 -4t-33 -15.5t-32.5 -22.5l-54 55q24 27 57 45t68 23q9 1 18 1q25 0 52.5 -10t51.5 -41q14 -19 20 -46t6.5 -53t-1.5 -47t-3 -28q50 20 101.5 47.5t96.5 60.5
q-31 16 -66.5 32.5t-66 39t-51 54t-20.5 76.5t24 83.5t61.5 64t82.5 32.5q13 2 25 2q32 0 62 -13q42 -23 64.5 -62t29.5 -85q4 -25 4 -50q0 -22 -4.5 -57t-19.5 -77l35 -13l-26 -75q-9 2 -21.5 7.5t-28.5 12.5q-33 -35 -74.5 -63.5t-84.5 -51t-85 -39.5t-76 -29zM25 1949
q-2 -3 -4 -15q-1 -6 -1 -12q0 -8 3 -21.5t18 -33t49 -37.5l107 -50q8 21 15 54q5 28 5 58q0 5 -1 24.5t-13 49.5t-41 46q-15 7 -31 7q-5 0 -18 -2.5t-32.5 -13t-34.5 -25.5t-21 -29z" />
    <glyph glyph-name="kasratan_01" unicode="&#xfe74;" arabic-form="isolated" 
d="M305 -347l-577 -228v98l577 220v-90zM305 -605l-577 -228v98l577 220v-90z" />
    <glyph glyph-name="fatha_01" unicode="&#xfe76;" arabic-form="isolated" 
d="M307 1805l-577 -228v98l577 220v-90z" />
    <glyph glyph-name="damma_01" unicode="&#xfe78;" arabic-form="isolated" 
d="M-268 1604q27 8 67.5 22.5t85.5 34t91.5 44.5t86.5 55q-31 16 -66.5 32.5t-66 39t-51 54t-20.5 76.5t24 83.5t61.5 64t82.5 32.5q13 2 25 2q32 0 62 -13q42 -23 64.5 -62t29.5 -85q4 -25 4 -50q0 -22 -4.5 -57t-19.5 -77l35 -13l-26 -75q-9 2 -21.5 7.5t-28.5 12.5
q-42 -44 -100 -79t-115 -61t-105.5 -42.5t-71.5 -23.5zM-59 1995q-2 -3 -4 -15q-1 -6 -1 -12q0 -8 3 -21.5t18 -33t49 -37.5l107 -50q8 21 15 54q5 28 5 58q0 5 -1 24.5t-13 49.5t-41 46q-15 7 -31 7q-5 0 -18 -2.5t-32.5 -13t-34.5 -25.5t-21 -29z" />
    <glyph glyph-name="kasra_01" unicode="&#xfe7a;" arabic-form="isolated" 
d="M300 -354l-577 -228v98l577 220v-90z" />
    <glyph glyph-name="shadda_01" unicode="&#xfe7c;" arabic-form="isolated" 
d="M-146 1683q-76 3 -122 45.5t-46 114.5q0 43 11.5 81.5t21.5 57.5q18 -9 35 -16t34 -15q-9 -23 -16.5 -52.5t-7.5 -56.5q0 -45 27 -63.5t66 -18.5q36 0 57 19t31.5 47.5t13.5 60.5t3 58q0 10 -0.5 16t-0.5 13l66 18q4 -63 17.5 -105t30 -66.5t34 -35t29.5 -10.5
q36 4 55 21t25 42q4 15 4 32q0 12 -3 33t-13.5 51t-24 58t-26.5 48q16 12 32 22t31 20q9 -15 23 -39.5t27 -54.5t23 -63.5t11 -65.5v-7q0 -39 -12 -70.5t-35 -54.5t-54.5 -35t-67.5 -12q-26 0 -60 13t-67 56q-29 -42 -65.5 -64t-86.5 -22z" />
    <glyph glyph-name="sukun_01" unicode="&#xfe7e;" arabic-form="isolated" 
d="M1 1755q27 0 52 13t44.5 34.5t30.5 50.5q9 24 9 50v10q-1 26 -10 54t-26 51t-42 37.5t-58 14.5q-31 0 -56 -15t-43 -38.5t-28 -51t-10 -52.5q0 -28 11.5 -56t30 -50.5t43.5 -37t52 -14.5zM1 2155q49 0 89 -22t68.5 -57t45 -78t18.5 -85v-5q0 -43 -16.5 -86t-46.5 -77
t-71 -54.5t-87 -20.5h-5q-47 0 -87 20.5t-69 55.5t-44.5 79t-15.5 88q0 42 15.5 85t44.5 78t70 57t91 22z" />
    <glyph glyph-name="uni0622.fina" unicode="&#x622;" horiz-adv-x="640" arabic-form="final" 
d="M660 20h-20q-113 0 -187 26.5t-117.5 76t-61 119.5t-17.5 157q0 90 1 179.5t1 180.5q0 94 -1.5 191.5t-6.5 187.5q-4 75 -9.5 141t-13.5 113l156 28q8 -51 13.5 -117.5t9.5 -135.5q7 -112 9 -220.5t2 -217.5q0 -89 -1 -176t-1 -175q0 -66 16 -106t45 -61.5t69.5 -28
t89.5 -6.5h24v-156zM-18 1547q11 41 34.5 79t55.5 67t70 46.5t77 17.5q42 0 77.5 -10.5t64.5 -23.5q27 -11 56 -19.5t59 -9.5h7q19 0 39.5 9.5t40 24.5t34.5 31t24 27q25 -16 49.5 -32.5t48.5 -31.5q-6 -9 -25.5 -34t-52 -50.5t-75.5 -45.5q-39 -18 -86 -18h-9q-44 0 -81 11
t-69 24q-33 13 -63 22q-20 6 -40 6q-11 0 -22 -2q-18 -3 -34 -17t-29 -32.5t-22 -39t-15 -35.5z" />
    <glyph glyph-name="uni0623.fina" unicode="&#x623;" horiz-adv-x="640" arabic-form="final" 
d="M660 20h-20q-113 0 -187 26.5t-117.5 76t-61 119.5t-17.5 157q0 90 1 179.5t1 180.5q0 94 -1.5 191.5t-6.5 187.5q-4 75 -9.5 141t-13.5 113l156 28q8 -51 13.5 -117.5t9.5 -135.5q7 -112 9 -220.5t2 -217.5q0 -89 -1 -176t-1 -175q0 -66 16 -106t45 -61.5t69.5 -28
t89.5 -6.5h24v-156zM401 1989q-42 6 -84 10q-8 1 -15 1q-35 0 -69 -15q-25 -11 -44 -29.5t-29.5 -41.5t-11.5 -48v-8q0 -21 9 -41t24 -37.5t35.5 -30.5t44 -21t48.5 -8q12 0 24 1.5t26 6.5q19 7 42 18.5t44.5 23t38.5 21.5t24 16l53 -69q-42 -29 -106 -65t-154 -86
l-244 -135q-12 22 -21 39t-21 38l210 117q-55 18 -94.5 56.5t-56.5 80.5q-14 36 -14 72q0 7 1 31.5t18.5 63.5t49 69.5t72.5 47.5q52 20 105 20q39 0 72.5 -6.5t48.5 -11.5z" />
    <glyph glyph-name="uni0624.fina" unicode="&#x624;" horiz-adv-x="1043" arabic-form="final" 
d="M101 -525q152 33 274 92t209.5 132.5t139 156.5t63.5 164q-33 -1 -65 -1q-47 0 -108 2.5t-128.5 14t-123 34t-95.5 61t-62 94.5t-22 134q1 48 11.5 101.5t30 105.5t47.5 99.5t65 83t82 57t99 21.5q70 0 128.5 -29.5t104.5 -79.5t81 -116t59 -138t37 -146.5t16 -141.5h119
v-156h-128q-15 -96 -53 -181.5t-94.5 -158t-129 -132t-156 -105t-176 -76.5t-188.5 -46zM518 670q-37 0 -73 -30t-64.5 -76t-46 -100t-17.5 -102q5 -49 31 -81t66 -52t89.5 -29.5t101 -13t100.5 -3.5h88q0 45 -8.5 98.5t-24.5 107.5t-40 105t-54.5 90t-67.5 62.5t-80 23.5z
M568 1434q-42 6 -84 10q-8 1 -15 1q-35 0 -69 -15q-25 -11 -44 -29.5t-29.5 -41.5t-11.5 -48v-8q0 -21 9 -41t24 -37.5t35.5 -30.5t44 -21t48.5 -8q12 0 24 1.5t26 6.5q19 7 42 18.5t44.5 23t38.5 21.5t24 16l53 -69q-42 -29 -106 -65t-154 -86l-244 -135q-12 22 -21 39
t-21 38l210 117q-55 18 -94.5 56.5t-56.5 80.5q-14 36 -14 72q0 7 1 31.5t18.5 63.5t49 69.5t72.5 47.5q52 20 105 20q39 0 72.5 -6.5t48.5 -11.5z" />
    <glyph glyph-name="uni0625.fina" unicode="&#x625;" horiz-adv-x="640" arabic-form="final" 
d="M660 20h-20q-113 0 -187 26.5t-117.5 76t-61 119.5t-17.5 157q0 90 1 179.5t1 180.5q0 94 -1.5 191.5t-6.5 187.5q-4 75 -9.5 141t-13.5 113l156 28q8 -51 13.5 -117.5t9.5 -135.5q7 -112 9 -220.5t2 -217.5q0 -89 -1 -176t-1 -175q0 -66 16 -106t45 -61.5t69.5 -28
t89.5 -6.5h24v-156zM473 -221q-42 6 -84 10q-8 1 -15 1q-35 0 -69 -15q-25 -11 -44 -29.5t-29.5 -41.5t-11.5 -48v-8q0 -21 9 -41t24 -37.5t35.5 -30.5t44 -21t48.5 -8q12 0 24 1.5t26 6.5q19 7 42 18.5t44.5 23t38.5 21.5t24 16l53 -69q-42 -29 -106 -65t-154 -86
l-244 -135q-12 22 -21 39t-21 38l210 117q-55 18 -94.5 56.5t-56.5 80.5q-14 36 -14 72q0 7 1 31.5t18.5 63.5t49 69.5t72.5 47.5q52 20 105 20q39 0 72.5 -6.5t48.5 -11.5z" />
    <glyph glyph-name="uni0626.fina" unicode="&#x626;" horiz-adv-x="1715" arabic-form="final" 
d="M830 -632q-85 0 -176 8.5t-175 33t-154 70t-114 120.5q-93 135 -93 351v23.5t1 24.5q7 134 46 287.5t115 339.5q40 -16 74 -30t71 -29q-72 -182 -110.5 -340.5t-38.5 -279.5q0 -161 65 -259q29 -42 67 -70t81 -46.5t88.5 -28t90.5 -13.5t86.5 -4.5t75.5 -0.5q30 0 85 5
t119.5 17t131 32t120.5 49t88.5 69t34.5 93q0 14 -11.5 33.5t-37.5 41t-68 45t-102 45.5q-36 12 -70.5 22.5t-66 18.5t-57 14t-43.5 9l11 158l771 -1v-156h-320q45 -37 74 -70.5t46.5 -62.5t24 -53.5t6.5 -43.5q-1 -81 -38 -144t-97 -110t-137.5 -79t-158.5 -52
t-160.5 -28.5t-144.5 -8.5zM752 1283q-42 6 -84 10q-8 1 -15 1q-35 0 -69 -15q-25 -11 -44 -29.5t-29.5 -41.5t-11.5 -48v-8q0 -21 9 -41t24 -37.5t35.5 -30.5t44 -21t48.5 -8q12 0 24 1.5t26 6.5q19 7 42 18.5t44.5 23t38.5 21.5t24 16l53 -69q-42 -29 -106 -65t-154 -86
l-244 -135q-12 22 -21 39t-21 38l210 117q-55 18 -94.5 56.5t-56.5 80.5q-14 36 -14 72q0 7 1 31.5t18.5 63.5t49 69.5t72.5 47.5q52 20 105 20q39 0 72.5 -6.5t48.5 -11.5z" />
    <glyph glyph-name="uni0626.init" unicode="&#x626;" horiz-adv-x="838" arabic-form="initial" 
d="M-20 176h186q60 0 121 4t114.5 17.5t96 38.5t67.5 68q15 25 17 63q1 10 1 19q0 30 -6 69.5t-20 89.5t-30.5 99.5t-35 96t-33.5 85.5l141 71q19 -46 40.5 -99.5t40.5 -110.5t34 -116.5t21 -116.5q3 -31 3 -61q0 -25 -3.5 -64.5t-24.5 -86.5q-29 -64 -77.5 -107t-113 -68.5
t-143.5 -36t-167 -10.5h-229v156zM531 1516q-42 6 -84 10q-8 1 -15 1q-35 0 -69 -15q-25 -11 -44 -29.5t-29.5 -41.5t-11.5 -48v-8q0 -21 9 -41t24 -37.5t35.5 -30.5t44 -21t48.5 -8q12 0 24 1.5t26 6.5q19 7 42 18.5t44.5 23t38.5 21.5t24 16l53 -69q-42 -29 -106 -65
t-154 -86l-244 -135q-12 22 -21 39t-21 38l210 117q-55 18 -94.5 56.5t-56.5 80.5q-14 36 -14 72q0 7 1 31.5t18.5 63.5t49 69.5t72.5 47.5q52 20 105 20q39 0 72.5 -6.5t48.5 -11.5z" />
    <glyph glyph-name="uni0626.medi" unicode="&#x626;" horiz-adv-x="852" arabic-form="medial" 
d="M872 176v-156h-20q-96 0 -163 37.5t-113 96.5q-34 -34 -75.5 -59t-95 -41.5t-121 -25t-154.5 -8.5h-150v156h150q102 0 173.5 16.5t116 49t64.5 81t20 113.5q0 54 -7.5 110t-27.5 127q42 11 76.5 21.5t73.5 21.5q8 -30 14 -60.5t10.5 -64t8.5 -73.5t8 -89q3 -40 12 -84.5
t30 -82t57 -62t93 -24.5h20zM501 1345q-42 6 -84 10q-8 1 -15 1q-35 0 -69 -15q-25 -11 -44 -29.5t-29.5 -41.5t-11.5 -48v-8q0 -21 9 -41t24 -37.5t35.5 -30.5t44 -21t48.5 -8q12 0 24 1.5t26 6.5q19 7 42 18.5t44.5 23t38.5 21.5t24 16l53 -69q-42 -29 -106 -65t-154 -86
l-244 -135q-12 22 -21 39t-21 38l210 117q-55 18 -94.5 56.5t-56.5 80.5q-14 36 -14 72q0 7 1 31.5t18.5 63.5t49 69.5t72.5 47.5q52 20 105 20q39 0 72.5 -6.5t48.5 -11.5z" />
    <glyph glyph-name="uni0627.fina" unicode="&#x627;" horiz-adv-x="624" arabic-form="final" 
d="M624 20q-91 0 -163 19.5t-122 62.5t-76.5 111.5t-26.5 166.5q0 74 0.5 165t0.5 189t-1.5 199t-4.5 196.5t-9 180.5t-15 152l156 28q9 -53 15 -125t10 -155t5.5 -172.5t1.5 -175.5q0 -123 1 -237v-77q0 -76 -1 -152q0 -65 10.5 -107t36 -67.5t67.5 -35.5t106 -10h29v-156
h-20z" />
    <glyph glyph-name="uni0628.fina" unicode="&#x628;" horiz-adv-x="2316" arabic-form="final" 
d="M2336 176v-156h-42q-70 0 -137.5 18t-124.5 54t-99.5 90.5t-63.5 127.5q-70 -73 -152.5 -127.5t-184.5 -91t-226.5 -55t-277.5 -19.5q-275 1 -462.5 61t-283.5 171.5t-99 270.5v13q0 154 89 346q38 -21 70 -39.5t69 -38.5q-14 -36 -31 -89t-26 -110q-6 -37 -6 -72
q0 -20 3 -58t33 -80q35 -50 94 -89.5t140 -68t184 -43.5t226 -15q180 0 311.5 29.5t223 76.5t150 105t93 114.5t50.5 106t25 78.5l152 -42q-5 -18 -10.5 -42.5t-9.5 -50t-7 -49.5t-3 -43v-9q0 -64 27 -115t70.5 -87t96.5 -54t101 -18h38zM1205 -357l-147 -147l-147 147
l147 147z" />
    <glyph glyph-name="uni0628.init" unicode="&#x628;" horiz-adv-x="715" arabic-form="initial" 
d="M-20 176h116q60 0 110.5 4t92 17.5t74 38.5t57.5 68q15 25 17 63q1 10 1 19q0 30 -6 69.5t-20 89.5t-30.5 99.5t-35 96t-33.5 85.5l141 71q19 -46 40.5 -99.5t40.5 -110.5t34 -116.5t21 -116.5q3 -31 3 -61q0 -25 -3.5 -64.5t-24.5 -86.5q-29 -64 -70.5 -107t-96.5 -68.5
t-122.5 -36t-146.5 -10.5h-159v156zM450 -357l-147 -147l-147 147l147 147z" />
    <glyph glyph-name="uni0628.medi" unicode="&#x628;" horiz-adv-x="705" arabic-form="medial" 
d="M725 176v-156h-20q-96 0 -163 37.5t-113 96.5q-69 -68 -169 -101t-243 -33h-37v156h37q178 0 259 65.5t81 194.5q0 54 -7.5 110t-27.5 127q42 11 76.5 21.5t73.5 21.5q8 -30 14 -60.5t10.5 -64t8.5 -73.5t8 -89q3 -40 12 -84.5t30 -82t57 -62t93 -24.5h20zM483 -357
l-147 -147l-147 147l147 147z" />
    <glyph glyph-name="uni0629.fina" unicode="&#x629;" horiz-adv-x="1090" arabic-form="final" 
d="M634 720q-25 -11 -59 -26t-71 -34.5t-73 -43t-64.5 -51t-46 -59t-17.5 -67.5q0 -37 20.5 -61t53.5 -38.5t75 -20t86 -5.5q46 0 95 5.5t86 12.5q-14 69 -28.5 169.5t-30.5 228.5zM544 160q-82 0 -153.5 13.5t-124.5 45t-83.5 82t-30.5 124.5q0 66 28 123t73 105.5
t100.5 88t109.5 69t101 50t76 30.5l-15 145l157 34q1 -8 4 -35t6.5 -63t8 -76t8 -76t6.5 -62t4 -33q16 -131 29.5 -214t23.5 -132t16.5 -70.5t9.5 -28.5v1q13 -31 30 -51t40.5 -32t53.5 -17t68 -5h20v-156h-20q-38 0 -88 6t-99 29h1q-76 35 -131 126q-135 -21 -229 -21z
M567 1343l-146 -146l-148 147l146 147zM922 1341l-145 -146l-148 148l146 146z" />
    <glyph glyph-name="uni062A.fina" unicode="&#x62a;" horiz-adv-x="2316" arabic-form="final" 
d="M2336 176v-156h-42q-70 0 -137.5 18t-124.5 54t-99.5 90.5t-63.5 127.5q-70 -73 -152.5 -127.5t-184.5 -91t-226.5 -55t-277.5 -19.5q-275 1 -462.5 61t-283.5 171.5t-99 270.5v13q0 154 89 346q38 -21 70 -39.5t69 -38.5q-14 -36 -31 -89t-26 -110q-6 -37 -6 -72
q0 -20 3 -58t33 -80q35 -50 94 -89.5t140 -68t184 -43.5t226 -15q180 0 311.5 29.5t223 76.5t150 105t93 114.5t50.5 106t25 78.5l152 -42q-5 -18 -10.5 -42.5t-9.5 -50t-7 -49.5t-3 -43v-9q0 -64 27 -115t70.5 -87t96.5 -54t101 -18h38zM1079 982l-146 -146l-148 147
l146 147zM1434 980l-145 -146l-148 148l146 146z" />
    <glyph glyph-name="uni062A.init" unicode="&#x62a;" horiz-adv-x="843" arabic-form="initial" 
d="M-20 176h186q60 0 121 4t114.5 17.5t96 38.5t67.5 68q15 25 17 63q1 10 1 19q0 30 -6 69.5t-20 89.5t-30.5 99.5t-35 96t-33.5 85.5l141 71q19 -46 40.5 -99.5t40.5 -110.5t34 -116.5t21 -116.5q3 -31 3 -61q0 -25 -3.5 -64.5t-24.5 -86.5q-29 -64 -77.5 -107t-113 -68.5
t-143.5 -36t-167 -10.5h-229v156zM414 1264l-146 -146l-148 147l146 147zM769 1262l-145 -146l-148 148l146 146z" />
    <glyph glyph-name="uni062A.medi" unicode="&#x62a;" horiz-adv-x="852" arabic-form="medial" 
d="M872 176v-156h-20q-96 0 -163 37.5t-113 96.5q-34 -34 -75.5 -59t-95 -41.5t-121 -25t-154.5 -8.5h-150v156h150q102 0 173.5 16.5t116 49t64.5 81t20 113.5q0 54 -7.5 110t-27.5 127q42 11 76.5 21.5t73.5 21.5q8 -30 14 -60.5t10.5 -64t8.5 -73.5t8 -89q3 -40 12 -84.5
t30 -82t57 -62t93 -24.5h20zM414 1108l-146 -146l-148 147l146 147zM769 1106l-145 -146l-148 148l146 146z" />
    <glyph glyph-name="uni062B.fina" unicode="&#x62b;" horiz-adv-x="2316" arabic-form="final" 
d="M2336 176v-156h-42q-70 0 -137.5 18t-124.5 54t-99.5 90.5t-63.5 127.5q-70 -73 -152.5 -127.5t-184.5 -91t-226.5 -55t-277.5 -19.5q-275 1 -462.5 61t-283.5 171.5t-99 270.5v13q0 154 89 346q38 -21 70 -39.5t69 -38.5q-14 -36 -31 -89t-26 -110q-6 -37 -6 -72
q0 -20 3 -58t33 -80q35 -50 94 -89.5t140 -68t184 -43.5t226 -15q180 0 311.5 29.5t223 76.5t150 105t93 114.5t50.5 106t25 78.5l152 -42q-5 -18 -10.5 -42.5t-9.5 -50t-7 -49.5t-3 -43v-9q0 -64 27 -115t70.5 -87t96.5 -54t101 -18h38zM1160 969l146 146l148 -148
l-146 -146zM754 970l146 147l148 -148l-146 -147zM977 1260l132 132l133 -133l-132 -132z" />
    <glyph glyph-name="uni062B.init" unicode="&#x62b;" horiz-adv-x="843" arabic-form="initial" 
d="M-20 176h186q60 0 121 4t114.5 17.5t96 38.5t67.5 68q15 25 17 63q1 10 1 19q0 30 -6 69.5t-20 89.5t-30.5 99.5t-35 96t-33.5 85.5l141 71q19 -46 40.5 -99.5t40.5 -110.5t34 -116.5t21 -116.5q3 -31 3 -61q0 -25 -3.5 -64.5t-24.5 -86.5q-29 -64 -77.5 -107t-113 -68.5
t-143.5 -36t-167 -10.5h-229v156zM468 1269l146 146l148 -148l-146 -146zM62 1270l146 147l148 -148l-146 -147zM285 1560l132 132l133 -133l-132 -132z" />
    <glyph glyph-name="uni062B.medi" unicode="&#x62b;" horiz-adv-x="852" arabic-form="medial" 
d="M872 176v-156h-20q-96 0 -163 37.5t-113 96.5q-34 -34 -75.5 -59t-95 -41.5t-121 -25t-154.5 -8.5h-150v156h150q102 0 173.5 16.5t116 49t64.5 81t20 113.5q0 54 -7.5 110t-27.5 127q42 11 76.5 21.5t73.5 21.5q8 -30 14 -60.5t10.5 -64t8.5 -73.5t8 -89q3 -40 12 -84.5
t30 -82t57 -62t93 -24.5h20zM468 1109l146 146l148 -148l-146 -146zM62 1110l146 147l148 -148l-146 -147zM285 1400l132 132l133 -133l-132 -132z" />
    <glyph glyph-name="uni062C.fina" unicode="&#x62c;" horiz-adv-x="1702" arabic-form="final" 
d="M931 -608q142 0 267 39.5t248 124.5l90 -129q-143 -96 -302 -147.5t-341 -51.5q-150 0 -282 40.5t-230.5 118.5t-155.5 191t-57 257q0 110 36.5 209.5t105 184.5t166.5 153.5t221 116t269 72.5q135 22 285 22h25q-37 19 -78.5 49.5t-87.5 65.5t-95.5 70t-101.5 63
t-106 46t-108 18t-101.5 -22t-88.5 -56t-75 -74.5t-60 -76.5q-37 24 -65 42.5t-64 41.5q34 54 79.5 108.5t101 97.5t120.5 70t137 27q84 0 158.5 -21.5t142.5 -57.5t131 -82t125.5 -94.5t125.5 -96.5t131 -87l-51 -159l-154 -10v-12q0 -79 24.5 -131.5t74.5 -83t123 -41.5
t166 -11h46v-156h-46q-130 0 -231.5 20.5t-171 69.5t-105.5 130t-36 203q-167 -16 -311.5 -67t-253.5 -128t-175 -176t-75 -211v-7q0 -76 22.5 -140.5t64.5 -116.5t100 -90.5t126 -64t143.5 -38t153.5 -12.5zM1079 -113l-147 -147l-147 147l147 147z" />
    <glyph glyph-name="uni062C.init" unicode="&#x62c;" horiz-adv-x="1587" arabic-form="initial" 
d="M-20 176h217q135 0 273 27.5t273.5 72.5t267 103t254.5 120l-298 124q-48 20 -93.5 40.5t-88 37.5t-80.5 27.5t-71 10.5q-38 0 -72 -13.5t-63.5 -35.5t-54.5 -49t-44.5 -54t-34 -50.5t-22.5 -37.5l-134 80q11 23 31.5 56.5t58.5 79.5q75 91 159.5 136t175.5 45
q47 0 95.5 -11t98.5 -29t101.5 -41.5t104.5 -48.5q58 -27 105.5 -51.5t93.5 -47t95.5 -44.5t111.5 -45q8 -44 16 -79.5t16 -77.5q-35 -14 -56.5 -23.5t-41 -19t-41.5 -21t-58 -29.5q-108 -53 -235 -108t-265.5 -99.5t-284.5 -72.5t-293 -28h-217v156zM952 -355l-147 -147
l-147 147l147 147z" />
    <glyph glyph-name="uni062C.medi" unicode="&#x62c;" horiz-adv-x="1667" arabic-form="medial" 
d="M-20 176h203q136 0 261.5 25t243 66t229.5 93t220 106l60 30q-44 15 -95.5 39t-106.5 50.5t-112 54t-113 49t-109 35.5t-100 14q-56 0 -104 -28.5t-85.5 -67.5t-63.5 -79.5t-38 -63.5l-130 88q31 57 72.5 113t94 99.5t116 70.5t138.5 27q68 0 137.5 -19t139 -48.5
t139 -65.5t138.5 -70t137 -62.5t135 -42.5q4 -23 8 -42t8 -37t8 -36.5t9 -40.5l-27 -12t-20 -9t-29 -14t-55 -27q13 -45 39.5 -77t61 -53.5t72.5 -34.5t74.5 -19.5t67 -8.5t49.5 -2h34v-156h-34q-95 0 -176.5 19t-146.5 55t-112 88t-73 118q-105 -53 -217.5 -103.5
t-232.5 -89.5t-248 -63t-264 -24h-203v156zM952 -357l-147 -147l-147 147l147 147z" />
    <glyph glyph-name="uni062D.fina" unicode="&#x62d;" horiz-adv-x="1706" arabic-form="final" 
d="M931 -608q142 0 267 39.5t248 124.5l90 -129q-143 -96 -302 -147.5t-341 -51.5q-150 0 -282 40.5t-230.5 118.5t-155.5 191t-57 257q0 110 36.5 209.5t105 184.5t166.5 153.5t221 116t269 72.5q135 22 285 22h25q-37 19 -78.5 49.5t-87.5 65.5t-95.5 70t-101.5 63
t-106 46t-108 18t-101.5 -22t-88.5 -56t-75 -74.5t-60 -76.5q-37 24 -65 42.5t-64 41.5q34 54 79.5 108.5t101 97.5t120.5 70t137 27q84 0 158.5 -21.5t142.5 -57.5t131 -82t125.5 -94.5t125.5 -96.5t131 -87l-51 -159l-154 -10v-12q0 -79 24.5 -131.5t74.5 -83t123 -41.5
t166 -11h46v-156h-46q-130 0 -231.5 20.5t-171 69.5t-105.5 130t-36 203q-167 -16 -311.5 -67t-253.5 -128t-175 -176t-75 -211v-7q0 -76 22.5 -140.5t64.5 -116.5t100 -90.5t126 -64t143.5 -38t153.5 -12.5z" />
    <glyph glyph-name="uni062D.init" unicode="&#x62d;" horiz-adv-x="1587" arabic-form="initial" 
d="M-20 176h217q135 0 273 27.5t273.5 72.5t267 103t254.5 120l-298 124q-48 20 -93.5 40.5t-88 37.5t-80.5 27.5t-71 10.5q-38 0 -72 -13.5t-63.5 -35.5t-54.5 -49t-44.5 -54t-34 -50.5t-22.5 -37.5l-134 80q11 23 31.5 56.5t58.5 79.5q75 91 159.5 136t175.5 45
q47 0 95.5 -11t98.5 -29t101.5 -41.5t104.5 -48.5q58 -27 105.5 -51.5t93.5 -47t95.5 -44.5t111.5 -45q8 -44 16 -79.5t16 -77.5q-35 -14 -56.5 -23.5t-41 -19t-41.5 -21t-58 -29.5q-108 -53 -235 -108t-265.5 -99.5t-284.5 -72.5t-293 -28h-217v156z" />
    <glyph glyph-name="uni062D.medi" unicode="&#x62d;" horiz-adv-x="1667" arabic-form="medial" 
d="M-20 176h203q136 0 261.5 25t243 66t229.5 93t220 106l60 30q-44 15 -95.5 39t-106.5 50.5t-112 54t-113 49t-109 35.5t-100 14q-56 0 -104 -28.5t-85.5 -67.5t-63.5 -79.5t-38 -63.5l-130 88q31 57 72.5 113t94 99.5t116 70.5t138.5 27q68 0 137.5 -19t139 -48.5
t139 -65.5t138.5 -70t137 -62.5t135 -42.5q4 -23 8 -42t8 -37t8 -36.5t9 -40.5l-27 -12t-20 -9t-29 -14t-55 -27q13 -45 39.5 -77t61 -53.5t72.5 -34.5t74.5 -19.5t67 -8.5t49.5 -2h34v-156h-34q-95 0 -176.5 19t-146.5 55t-112 88t-73 118q-105 -53 -217.5 -103.5
t-232.5 -89.5t-248 -63t-264 -24h-203v156z" />
    <glyph glyph-name="uni062E.fina" unicode="&#x62e;" horiz-adv-x="1702" arabic-form="final" 
d="M931 -608q142 0 267 39.5t248 124.5l90 -129q-143 -96 -302 -147.5t-341 -51.5q-150 0 -282 40.5t-230.5 118.5t-155.5 191t-57 257q0 110 36.5 209.5t105 184.5t166.5 153.5t221 116t269 72.5q135 22 285 22h25q-37 19 -78.5 49.5t-87.5 65.5t-95.5 70t-101.5 63
t-106 46t-108 18t-101.5 -22t-88.5 -56t-75 -74.5t-60 -76.5q-37 24 -65 42.5t-64 41.5q34 54 79.5 108.5t101 97.5t120.5 70t137 27q84 0 158.5 -21.5t142.5 -57.5t131 -82t125.5 -94.5t125.5 -96.5t131 -87l-51 -159l-154 -10v-12q0 -79 24.5 -131.5t74.5 -83t123 -41.5
t166 -11h46v-156h-46q-130 0 -231.5 20.5t-171 69.5t-105.5 130t-36 203q-167 -16 -311.5 -67t-253.5 -128t-175 -176t-75 -211v-7q0 -76 22.5 -140.5t64.5 -116.5t100 -90.5t126 -64t143.5 -38t153.5 -12.5zM788 1391l-147 -147l-147 147l147 147z" />
    <glyph glyph-name="uni062E.init" unicode="&#x62e;" horiz-adv-x="1587" arabic-form="initial" 
d="M-20 176h217q135 0 273 27.5t273.5 72.5t267 103t254.5 120l-298 124q-48 20 -93.5 40.5t-88 37.5t-80.5 27.5t-71 10.5q-38 0 -72 -13.5t-63.5 -35.5t-54.5 -49t-44.5 -54t-34 -50.5t-22.5 -37.5l-134 80q11 23 31.5 56.5t58.5 79.5q75 91 159.5 136t175.5 45
q47 0 95.5 -11t98.5 -29t101.5 -41.5t104.5 -48.5q58 -27 105.5 -51.5t93.5 -47t95.5 -44.5t111.5 -45q8 -44 16 -79.5t16 -77.5q-35 -14 -56.5 -23.5t-41 -19t-41.5 -21t-58 -29.5q-108 -53 -235 -108t-265.5 -99.5t-284.5 -72.5t-293 -28h-217v156zM774 1266l-147 -147
l-147 147l147 147z" />
    <glyph glyph-name="uni062E.medi" unicode="&#x62e;" horiz-adv-x="1667" arabic-form="medial" 
d="M-20 176h203q136 0 261.5 25t243 66t229.5 93t220 106l60 30q-44 15 -95.5 39t-106.5 50.5t-112 54t-113 49t-109 35.5t-100 14q-56 0 -104 -28.5t-85.5 -67.5t-63.5 -79.5t-38 -63.5l-130 88q31 57 72.5 113t94 99.5t116 70.5t138.5 27q68 0 137.5 -19t139 -48.5
t139 -65.5t138.5 -70t137 -62.5t135 -42.5q4 -23 8 -42t8 -37t8 -36.5t9 -40.5l-27 -12t-20 -9t-29 -14t-55 -27q13 -45 39.5 -77t61 -53.5t72.5 -34.5t74.5 -19.5t67 -8.5t49.5 -2h34v-156h-34q-95 0 -176.5 19t-146.5 55t-112 88t-73 118q-105 -53 -217.5 -103.5
t-232.5 -89.5t-248 -63t-264 -24h-203v156zM694 1270l-147 -147l-147 147l147 147z" />
    <glyph glyph-name="uni062F.fina" unicode="&#x62f;" horiz-adv-x="1262" arabic-form="final" 
d="M1282 176v-156h-20q-62 0 -111 11t-87.5 30.5t-68 45t-51.5 54.5q-50 -32 -101 -58t-105 -44.5t-112 -28.5t-123 -10q-54 0 -107.5 11.5t-104 33t-97 53t-85.5 70.5q25 35 46 63.5t45 62.5q79 -69 165.5 -101.5t162.5 -32.5q46 0 95 10.5t94.5 28t84 40.5t64.5 48
l-313 754q41 17 73.5 31t70.5 30q15 -37 34 -82.5t42 -100.5q38 -94 97.5 -235.5t141.5 -340.5q17 -43 33 -77.5t42.5 -59t67.5 -37.5t107 -13h20z" />
    <glyph glyph-name="uni0630.fina" unicode="&#x630;" horiz-adv-x="1262" arabic-form="final" 
d="M1282 176v-156h-20q-62 0 -111 11t-87.5 30.5t-68 45t-51.5 54.5q-50 -32 -101 -58t-105 -44.5t-112 -28.5t-123 -10q-54 0 -107.5 11.5t-104 33t-97 53t-85.5 70.5q25 35 46 63.5t45 62.5q79 -69 165.5 -101.5t162.5 -32.5q46 0 95 10.5t94.5 28t84 40.5t64.5 48
l-313 754q41 17 73.5 31t70.5 30q15 -37 34 -82.5t42 -100.5q38 -94 97.5 -235.5t141.5 -340.5q17 -43 33 -77.5t42.5 -59t67.5 -37.5t107 -13h20zM840 1490l-147 -147l-147 147l147 147z" />
    <glyph glyph-name="uni0631.fina" unicode="&#x631;" horiz-adv-x="816" arabic-form="final" 
d="M605 69q0 -82 -24.5 -160.5t-68 -151.5t-103 -139.5t-129.5 -126t-148 -110t-158 -91.5q-19 40 -35.5 71t-34.5 69q64 35 131.5 79t130.5 95t117.5 109.5t93.5 122t58 132.5q13 49 13 99q0 21 -2 43q-6 54 -19.5 115t-30 121t-33 114.5t-28.5 94.5l150 46
q38 -112 75.5 -192.5t78 -132t84 -76t93.5 -24.5h20v-156h-20q-14 0 -39 1.5t-55 11t-61 30.5t-56 59v-53z" />
    <glyph glyph-name="uni0632.fina" unicode="&#x632;" horiz-adv-x="813" arabic-form="final" 
d="M605 69q0 -82 -24.5 -160.5t-68 -151.5t-103 -139.5t-129.5 -126t-148 -110t-158 -91.5q-19 40 -35.5 71t-34.5 69q64 35 131.5 79t130.5 95t117.5 109.5t93.5 122t58 132.5q13 49 13 99q0 21 -2 43q-6 54 -19.5 115t-30 121t-33 114.5t-28.5 94.5l150 46
q38 -112 75.5 -192.5t78 -132t84 -76t93.5 -24.5h20v-156h-20q-14 0 -39 1.5t-55 11t-61 30.5t-56 59v-53zM542 1062l-147 -147l-147 147l147 147z" />
    <glyph glyph-name="uni0633.fina" unicode="&#x633;" horiz-adv-x="2889" arabic-form="final" 
d="M2909 176v-156h-38q-61 0 -113 18t-95 49.5t-75 74t-53 90.5q-35 -115 -108.5 -174t-185.5 -59h-4q-81 0 -134.5 37.5t-91.5 108.5q-30 -42 -65.5 -69t-74.5 -43t-79.5 -23.5t-79.5 -10.5q-36 0 -65 4t-54.5 11.5t-49.5 19t-50 26.5q2 -29 2 -58q0 -85 -21 -173.5
t-70 -170t-119.5 -143.5t-156.5 -103t-184 -60q-81 -16 -166 -16q-18 0 -36 1q-152 0 -267 45.5t-192 127.5t-116 195.5t-39 248.5q0 73 11.5 150t32.5 151t51.5 143.5t68.5 128.5q34 -25 65 -48.5t62 -46.5q-18 -28 -41.5 -78t-44.5 -114t-35.5 -138t-14.5 -149
q0 -46 8 -97.5t28.5 -102.5t55.5 -97.5t89.5 -82t130.5 -56.5t178 -21q142 0 249.5 41.5t179 116t107.5 179t36 230.5q0 19 -6 70t-19 117t-33.5 139.5t-48.5 137.5l132 72l54 -132q24 -57 47 -112.5t53.5 -99t74 -70.5t107.5 -27q53 0 90.5 18t62 50t39 75t22 93t10.5 104
t5 109l164 -11l-7 -152q0 -47 5.5 -98t21.5 -94t46 -71t80 -28q52 0 87.5 29t57 76.5t31 109t10.5 126.5v24q0 35 -3 74.5t-7 90.5l164 11l4 -60t5.5 -63t11 -70t19.5 -81q36 -131 101.5 -197.5t144.5 -66.5h38z" />
    <glyph glyph-name="uni0633.init" unicode="&#x633;" horiz-adv-x="1658" arabic-form="initial" 
d="M0 176q58 0 105.5 22.5t86 60t68.5 87t52.5 104t38 109.5t25.5 105l157 -31q-8 -27 -19 -64t-21 -78t-17 -83t-7 -79q0 -30 5.5 -59.5t20 -52t39.5 -36.5t63 -14q53 0 95.5 26.5t75.5 70.5t57.5 100t42.5 114.5t29.5 115t18.5 100.5q42 -8 77.5 -15t74.5 -14v-1
q-4 -21 -10.5 -56t-12.5 -75t-10 -81t-4 -74q0 -42 7 -80.5t26 -68t51.5 -47.5t82.5 -18q44 0 76 15t52.5 41.5t30.5 62t10 77.5q0 55 -13.5 118t-33.5 124.5t-42.5 115.5t-40.5 90l139 74q9 -18 23.5 -49.5t31 -72t33.5 -88.5t31 -99.5t22.5 -105t8.5 -104.5
q0 -81 -22.5 -147t-68 -112.5t-114.5 -71.5q-66 -24 -154 -24h-7q-36 0 -73 12.5t-72 35t-65.5 52.5t-53.5 65q-66 -76 -142 -120.5t-157 -44.5q-35 0 -72.5 10.5t-72.5 31.5t-64.5 52t-47.5 72q-33 -35 -68.5 -63.5t-76.5 -48.5t-89 -31t-106 -11h-20v156h20z" />
    <glyph glyph-name="uni0633.medi" unicode="&#x633;" horiz-adv-x="1851" arabic-form="medial" 
d="M-20 176h27q46 0 87.5 23t77.5 59.5t66 81.5t53 88q21 40 37.5 80.5t28.5 76.5t20 65t13 46l152 -42q-11 -50 -22 -90.5t-19 -81.5q-4 -21 -8 -49.5t-4 -59.5v-13q0 -25 3.5 -54t15 -56t32 -46.5t52.5 -25.5q14 -3 28 -3q36 0 73 22.5t72 70t61.5 109t46.5 123.5
q17 53 29.5 100.5t23.5 105.5l155 -29q-11 -60 -16.5 -115.5t-5.5 -112.5q0 -53 8 -101.5t26 -86t47.5 -60t73.5 -22.5q57 0 92 33t54.5 83t27.5 108.5t11 109.5q2 51 1.5 94.5t-5.5 94.5l159 14q4 -60 14 -127t37 -155q84 -258 240 -258h26v-156h-26q-55 0 -104 17
t-92 47.5t-78 72.5t-62 92q-21 -51 -49 -93.5t-64 -72.5t-81.5 -46.5t-100.5 -16.5q-108 0 -177.5 57t-105.5 157q-33 -48 -65.5 -87.5t-70 -68.5t-81 -45t-98.5 -16q-53 0 -98 16t-78.5 45.5t-56 70t-30.5 88.5q-32 -47 -70.5 -86.5t-82.5 -68.5t-92.5 -45.5t-100.5 -16.5
h-27v156z" />
    <glyph glyph-name="uni0634.fina" unicode="&#x634;" horiz-adv-x="2889" arabic-form="final" 
d="M2909 176v-156h-38q-61 0 -113 18t-95 49.5t-75 74t-53 90.5q-35 -115 -108.5 -174t-185.5 -59h-4q-81 0 -134.5 37.5t-91.5 108.5q-30 -42 -65.5 -69t-74.5 -43t-79.5 -23.5t-79.5 -10.5q-36 0 -65 4t-54.5 11.5t-49.5 19t-50 26.5q2 -29 2 -58q0 -85 -21 -173.5
t-70 -170t-119.5 -143.5t-156.5 -103t-184 -60q-81 -16 -166 -16q-18 0 -36 1q-152 0 -267 45.5t-192 127.5t-116 195.5t-39 248.5q0 73 11.5 150t32.5 151t51.5 143.5t68.5 128.5q34 -25 65 -48.5t62 -46.5q-18 -28 -41.5 -78t-44.5 -114t-35.5 -138t-14.5 -149
q0 -46 8 -97.5t28.5 -102.5t55.5 -97.5t89.5 -82t130.5 -56.5t178 -21q142 0 249.5 41.5t179 116t107.5 179t36 230.5q0 19 -6 70t-19 117t-33.5 139.5t-48.5 137.5l132 72l54 -132q24 -57 47 -112.5t53.5 -99t74 -70.5t107.5 -27q53 0 90.5 18t62 50t39 75t22 93t10.5 104
t5 109l164 -11l-7 -152q0 -47 5.5 -98t21.5 -94t46 -71t80 -28q52 0 87.5 29t57 76.5t31 109t10.5 126.5v24q0 35 -3 74.5t-7 90.5l164 11l4 -60t5.5 -63t11 -70t19.5 -81q36 -131 101.5 -197.5t144.5 -66.5h38zM2042 1084l146 146l148 -148l-146 -146zM1636 1085l146 147
l148 -148l-146 -147zM1859 1375l132 132l133 -133l-132 -132z" />
    <glyph glyph-name="uni0634.init" unicode="&#x634;" horiz-adv-x="1658" arabic-form="initial" 
d="M0 176q58 0 105.5 22.5t86 60t68.5 87t52.5 104t38 109.5t25.5 105l157 -31q-8 -27 -19 -64t-21 -78t-17 -83t-7 -79q0 -30 5.5 -59.5t20 -52t39.5 -36.5t63 -14q53 0 95.5 26.5t75.5 70.5t57.5 100t42.5 114.5t29.5 115t18.5 100.5q42 -8 77.5 -15t74.5 -14v-1
q-4 -21 -10.5 -56t-12.5 -75t-10 -81t-4 -74q0 -42 7 -80.5t26 -68t51.5 -47.5t82.5 -18q44 0 76 15t52.5 41.5t30.5 62t10 77.5q0 55 -13.5 118t-33.5 124.5t-42.5 115.5t-40.5 90l139 74q9 -18 23.5 -49.5t31 -72t33.5 -88.5t31 -99.5t22.5 -105t8.5 -104.5
q0 -81 -22.5 -147t-68 -112.5t-114.5 -71.5q-66 -24 -154 -24h-7q-36 0 -73 12.5t-72 35t-65.5 52.5t-53.5 65q-66 -76 -142 -120.5t-157 -44.5q-35 0 -72.5 10.5t-72.5 31.5t-64.5 52t-47.5 72q-33 -35 -68.5 -63.5t-76.5 -48.5t-89 -31t-106 -11h-20v156h20zM968 1177
l146 146l148 -148l-146 -146zM562 1178l146 147l148 -148l-146 -147zM785 1468l132 132l133 -133l-132 -132z" />
    <glyph glyph-name="uni0634.medi" unicode="&#x634;" horiz-adv-x="1851" arabic-form="medial" 
d="M-20 176h27q46 0 87.5 23t77.5 59.5t66 81.5t53 88q21 40 37.5 80.5t28.5 76.5t20 65t13 46l152 -42q-11 -50 -22 -90.5t-19 -81.5q-4 -21 -8 -49.5t-4 -59.5v-13q0 -25 3.5 -54t15 -56t32 -46.5t52.5 -25.5q14 -3 28 -3q36 0 73 22.5t72 70t61.5 109t46.5 123.5
q17 53 29.5 100.5t23.5 105.5l155 -29q-11 -60 -16.5 -115.5t-5.5 -112.5q0 -53 8 -101.5t26 -86t47.5 -60t73.5 -22.5q57 0 92 33t54.5 83t27.5 108.5t11 109.5q2 51 1.5 94.5t-5.5 94.5l159 14q4 -60 14 -127t37 -155q84 -258 240 -258h26v-156h-26q-55 0 -104 17
t-92 47.5t-78 72.5t-62 92q-21 -51 -49 -93.5t-64 -72.5t-81.5 -46.5t-100.5 -16.5q-108 0 -177.5 57t-105.5 157q-33 -48 -65.5 -87.5t-70 -68.5t-81 -45t-98.5 -16q-53 0 -98 16t-78.5 45.5t-56 70t-30.5 88.5q-32 -47 -70.5 -86.5t-82.5 -68.5t-92.5 -45.5t-100.5 -16.5
h-27v156zM1048 1084l146 146l148 -148l-146 -146zM642 1085l146 147l148 -148l-146 -147zM865 1375l132 132l133 -133l-132 -132z" />
    <glyph glyph-name="uni0635.fina" unicode="&#x635;" horiz-adv-x="2868" arabic-form="final" 
d="M801 -629q-137 0 -255.5 31.5t-207 99.5t-139 174.5t-50.5 256.5q0 56 12.5 129.5t34 151.5t50 152.5t59.5 133.5l132 -85q-14 -27 -36.5 -78.5t-43.5 -118t-36 -142.5t-15 -151q0 -102 36 -176.5t101 -123.5t156.5 -72.5t201.5 -23.5q123 0 220 36.5t164.5 103.5
t103 162t35.5 212q0 78 -13.5 158t-33 152.5t-40 133t-34.5 98.5q37 14 75.5 29.5t70.5 26.5q17 -39 30.5 -70.5t26.5 -58.5t26.5 -52t30.5 -52q35 -56 72 -88.5t60 -46.5q92 148 177.5 247t166.5 162t157 96.5t150 49.5q50 11 100 11q11 0 47.5 -2.5t93 -22t106 -53
t85.5 -80t57 -105.5t21 -128q0 -64 -17.5 -117.5t-49.5 -98.5q6 -4 22 -13t39 -18.5t51.5 -17t58.5 -7.5h28v-156h-21q-55 0 -100.5 8.5t-82 22.5t-64 32t-47.5 38q-54 -37 -118 -62.5t-131 -41.5t-134 -23.5t-128 -7.5q-89 0 -165 9.5t-145.5 31t-136.5 55.5t-137 82
q0 -9 0.5 -24.5t1 -32t1 -32t0.5 -24.5q0 -152 -48 -277t-136.5 -214.5t-214 -139t-281.5 -49.5zM1732 201q78 -29 162 -43t175 -14q51 0 111 7.5t120 23t115.5 40.5t98 60t68 80.5t25.5 102.5q0 59 -31 104t-79.5 73.5t-107.5 38.5q-28 5 -56 5q-30 0 -60 -6
q-57 -12 -113 -40.5t-109 -67.5t-101.5 -86t-89.5 -95.5t-73.5 -95.5t-54.5 -87z" />
    <glyph glyph-name="uni0635.init" unicode="&#x635;" horiz-adv-x="1920" arabic-form="initial" 
d="M-20 176h24q63 0 107.5 10.5t74.5 25.5t49 33t31 34q18 25 31.5 54.5t23.5 62.5t18 69.5t16 75.5q8 38 15.5 73.5t16.5 67.5l139 -43q-2 -5 -7 -29t-10 -53.5t-8 -57.5q-3 -19 -3 -32q0 -6 1 -10q0 -26 2.5 -56t12 -61t28 -62.5t51.5 -60.5q14 32 42.5 79.5t69 103
t91 114.5t108.5 114q54 51 117 95t131 75t139 47q53 11 105 11q18 0 61 -3.5t108.5 -33t123.5 -87.5q49 -62 73 -136q21 -63 21 -128q0 -10 -3 -53t-38 -114t-104 -127q-66 -54 -147 -90t-168 -57.5t-174.5 -30.5t-166.5 -9q-105 0 -193 5t-159.5 26t-127.5 64.5t-98 121.5
q-69 -94 -165 -139t-230 -45h-29v156zM739 169q57 -11 122 -16q46 -4 93 -4q19 0 38 1q83 2 166 13.5t156 30.5t131 45t93 57q42 38 65 81t27 87q1 10 1 19q0 33 -12.5 69.5t-43.5 70.5q-47 40 -95.5 58t-97 18.5t-96.5 -14.5t-94.5 -40.5t-91.5 -59t-87 -70.5
q-47 -44 -90.5 -93.5t-80 -97t-63.5 -88.5t-40 -67z" />
    <glyph glyph-name="uni0635.medi" unicode="&#x635;" horiz-adv-x="1933" arabic-form="medial" 
d="M-20 176h24q63 0 107.5 10.5t74.5 25.5t49 33t31 34q18 25 31.5 54.5t23.5 62.5t18 69.5t16 75.5q8 38 15.5 73.5t16.5 67.5l139 -43q-2 -5 -7 -29t-10 -53.5t-8 -57.5q-3 -19 -3 -32q0 -6 1 -10q0 -26 2.5 -56t12 -61t28 -62.5t51.5 -60.5q14 32 42.5 79.5t69 103
t91 114.5t108.5 114q54 51 117 95t131 75t139 47q53 11 105 11q18 0 61 -3.5t108.5 -33t123.5 -87.5q49 -62 73 -135q21 -63 21 -128q0 -10 -3 -53t-37.5 -113.5t-102.5 -126.5h313v-156h-272q-49 0 -95 4t-83.5 9t-63.5 10t-35 7q-106 -35 -215 -49t-207 -14q-105 0 -193 5
t-159.5 26t-127.5 64.5t-98 121.5q-69 -94 -165 -139t-230 -45h-29v156zM739 169q57 -11 122 -16q46 -4 93 -4q19 0 38 1q83 2 166 13.5t156 30.5t131 45t93 57q42 38 65 81t27 87q1 10 1 19q0 33 -12.5 69.5t-43.5 70.5q-47 40 -95.5 58t-97 18.5t-96.5 -14.5t-94.5 -40.5
t-91.5 -59t-87 -70.5q-47 -44 -90.5 -93.5t-80 -97t-63.5 -88.5t-40 -67z" />
    <glyph glyph-name="uni0636.fina" unicode="&#x636;" horiz-adv-x="2868" arabic-form="final" 
d="M801 -629q-137 0 -255.5 31.5t-207 99.5t-139 174.5t-50.5 256.5q0 56 12.5 129.5t34 151.5t50 152.5t59.5 133.5l132 -85q-14 -27 -36.5 -78.5t-43.5 -118t-36 -142.5t-15 -151q0 -102 36 -176.5t101 -123.5t156.5 -72.5t201.5 -23.5q123 0 220 36.5t164.5 103.5
t103 162t35.5 212q0 78 -13.5 158t-33 152.5t-40 133t-34.5 98.5q37 14 75.5 29.5t70.5 26.5q17 -39 30.5 -70.5t26.5 -58.5t26.5 -52t30.5 -52q35 -56 72 -88.5t60 -46.5q92 148 177.5 247t166.5 162t157 96.5t150 49.5q50 11 100 11q11 0 47.5 -2.5t93 -22t106 -53
t85.5 -80t57 -105.5t21 -128q0 -64 -17.5 -117.5t-49.5 -98.5q6 -4 22 -13t39 -18.5t51.5 -17t58.5 -7.5h28v-156h-21q-55 0 -100.5 8.5t-82 22.5t-64 32t-47.5 38q-54 -37 -118 -62.5t-131 -41.5t-134 -23.5t-128 -7.5q-89 0 -165 9.5t-145.5 31t-136.5 55.5t-137 82
q0 -9 0.5 -24.5t1 -32t1 -32t0.5 -24.5q0 -152 -48 -277t-136.5 -214.5t-214 -139t-281.5 -49.5zM1732 201q78 -29 162 -43t175 -14q51 0 111 7.5t120 23t115.5 40.5t98 60t68 80.5t25.5 102.5q0 59 -31 104t-79.5 73.5t-107.5 38.5q-28 5 -56 5q-30 0 -60 -6
q-57 -12 -113 -40.5t-109 -67.5t-101.5 -86t-89.5 -95.5t-73.5 -95.5t-54.5 -87zM2501 1258l-147 -147l-147 147l147 147z" />
    <glyph glyph-name="uni0636.init" unicode="&#x636;" horiz-adv-x="1913" arabic-form="initial" 
d="M-20 176h24q63 0 107.5 10.5t74.5 25.5t49 33t31 34q18 25 31.5 54.5t23.5 62.5t18 69.5t16 75.5q8 38 15.5 73.5t16.5 67.5l139 -43q-2 -5 -7 -29t-10 -53.5t-8 -57.5q-3 -19 -3 -32q0 -6 1 -10q0 -26 2.5 -56t12 -61t28 -62.5t51.5 -60.5q14 32 42.5 79.5t69 103
t91 114.5t108.5 114q54 51 117 95t131 75t139 47q53 11 105 11q18 0 61 -3.5t108.5 -33t123.5 -87.5q49 -62 73 -136q21 -63 21 -128q0 -10 -3 -53t-38 -114t-104 -127q-66 -54 -147 -90t-168 -57.5t-174.5 -30.5t-166.5 -9q-105 0 -193 5t-159.5 26t-127.5 64.5t-98 121.5
q-69 -94 -165 -139t-230 -45h-29v156zM739 169q57 -11 122 -16q46 -4 93 -4q19 0 38 1q83 2 166 13.5t156 30.5t131 45t93 57q42 38 65 81t27 87q1 10 1 19q0 33 -12.5 69.5t-43.5 70.5q-47 40 -95.5 58t-97 18.5t-96.5 -14.5t-94.5 -40.5t-91.5 -59t-87 -70.5
q-47 -44 -90.5 -93.5t-80 -97t-63.5 -88.5t-40 -67zM1560 1258l-147 -147l-147 147l147 147z" />
    <glyph glyph-name="uni0636.medi" unicode="&#x636;" horiz-adv-x="1933" arabic-form="medial" 
d="M-20 176h24q63 0 107.5 10.5t74.5 25.5t49 33t31 34q18 25 31.5 54.5t23.5 62.5t18 69.5t16 75.5q8 38 15.5 73.5t16.5 67.5l139 -43q-2 -5 -7 -29t-10 -53.5t-8 -57.5q-3 -19 -3 -32q0 -6 1 -10q0 -26 2.5 -56t12 -61t28 -62.5t51.5 -60.5q14 32 42.5 79.5t69 103
t91 114.5t108.5 114q54 51 117 95t131 75t139 47q53 11 105 11q18 0 61 -3.5t108.5 -33t123.5 -87.5q49 -62 73 -135q21 -63 21 -128q0 -10 -3 -53t-37.5 -113.5t-102.5 -126.5h313v-156h-272q-49 0 -95 4t-83.5 9t-63.5 10t-35 7q-106 -35 -215 -49t-207 -14q-105 0 -193 5
t-159.5 26t-127.5 64.5t-98 121.5q-69 -94 -165 -139t-230 -45h-29v156zM739 169q57 -11 122 -16q46 -4 93 -4q19 0 38 1q83 2 166 13.5t156 30.5t131 45t93 57q42 38 65 81t27 87q1 10 1 19q0 33 -12.5 69.5t-43.5 70.5q-47 40 -95.5 58t-97 18.5t-96.5 -14.5t-94.5 -40.5
t-91.5 -59t-87 -70.5q-47 -44 -90.5 -93.5t-80 -97t-63.5 -88.5t-40 -67zM1546 1258l-147 -147l-147 147l147 147z" />
    <glyph glyph-name="uni0637.fina" unicode="&#x637;" horiz-adv-x="1867" arabic-form="final" 
d="M856 20q-122 0 -223 10t-189.5 28t-168 43t-157.5 55q16 41 28.5 75t27.5 72q60 -23 123 -42.5t133 -36.5q21 31 58.5 81.5t83.5 110.5q7 48 12 90t8 80.5t4.5 74.5t1.5 73q0 63 -3.5 133t-10.5 161q-7 99 -15 183.5t-15.5 150.5t-13.5 110t-9 61l157 21q3 -22 10 -81
t15 -136t16.5 -162.5t14.5 -161.5q3 -32 4.5 -55t2.5 -44.5t2 -45t1.5 -56t1.5 -79t3 -112.5q267 255 483 287q32 5 65 5q41 0 100.5 -11.5t123.5 -50t106.5 -99.5t47.5 -141q1 -11 1 -22q0 -41 -10 -86.5t-30 -91t-45.5 -83.5t-52.5 -64q-26 -26 -53 -47t-55 -40h131.5
t130.5 -0.5t111 -0.5h74v-156h-546q-60 0 -124 6t-120 14q-66 -12 -126.5 -16t-114.5 -4zM603 192q59 -11 125 -14.5t132 -3.5q60 0 133 5t151 25t155.5 59.5t146.5 108.5q19 19 35.5 46.5t28 59t17.5 65.5q3 21 3 40q0 12 -1 23q-6 48 -32.5 78.5t-64 47t-81.5 20.5
q-22 2 -43 2t-42 -2q-106 -17 -229 -97t-261 -233z" />
    <glyph glyph-name="uni0637.init" unicode="&#x637;" horiz-adv-x="1576" arabic-form="initial" 
d="M-20 176h179q3 5 11 17.5t13 22.5l-1 -1q17 30 48 80t85 117q11 67 17 162t7 224v35q0 104 -6 220t-17 228l-21 215l163 29q22 -173 33 -348.5t11 -365.5q0 -18 -0.5 -44t-1 -54t-1 -54t-0.5 -45q137 127 258 197t226 93q41 9 83 9q34 0 89.5 -10t118.5 -49t105 -101.5
t49 -144.5q2 -24 2 -46q0 -87 -32 -166.5t-97 -145t-152.5 -110t-182.5 -71.5t-191 -38.5t-177 -11.5l-592 1h-26v156zM340 177q16 -1 61 -1h130q75 0 159 5.5t166.5 22t158.5 46t135 77t95.5 115.5t40.5 161q-8 46 -37.5 77t-69.5 48.5t-85 22.5q-17 1 -33 1q-28 0 -54 -4
q-106 -23 -228.5 -107.5t-260.5 -235.5v1q-9 -10 -19 -22t-29 -36t-49.5 -64.5t-80.5 -106.5z" />
    <glyph glyph-name="uni0637.medi" unicode="&#x637;" horiz-adv-x="1583" arabic-form="medial" 
d="M-20 176h179q3 5 11 17.5t13 22.5l-1 -1q17 30 48 80t85 117q11 67 17 162t7 224v35q0 104 -6 220t-17 228l-21 215l163 29q22 -173 33 -348.5t11 -365.5q0 -18 -0.5 -44t-1 -54t-1 -54t-0.5 -45q137 127 258 197t226 93q41 9 83 9q34 0 89.5 -10t118.5 -49t105 -101.5
t49 -144.5q2 -23 2 -45q0 -50 -12 -104.5t-41.5 -108t-72 -97t-94.5 -77.5h393v-156h-262q-62 0 -113 0.5t-96.5 5t-88.5 13.5t-89 26q-93 -25 -185 -36q-84 -10 -158 -10h-13l-592 1h-26v156zM340 177q16 -1 61 -1h130q75 0 159 5.5t166.5 22t158.5 46t135 77t95.5 115.5
t40.5 161q-8 46 -37.5 77t-69.5 48.5t-85 22.5q-17 1 -33 1q-28 0 -54 -4q-106 -23 -228.5 -107.5t-260.5 -235.5v1q-9 -10 -19 -22t-29 -36t-49.5 -64.5t-80.5 -106.5z" />
    <glyph glyph-name="uni0638.fina" unicode="&#x638;" horiz-adv-x="1867" arabic-form="final" 
d="M856 20q-122 0 -223 10t-189.5 28t-168 43t-157.5 55q16 41 28.5 75t27.5 72q60 -23 123 -42.5t133 -36.5q21 31 58.5 81.5t83.5 110.5q7 48 12 90t8 80.5t4.5 74.5t1.5 73q0 63 -3.5 133t-10.5 161q-7 99 -15 183.5t-15.5 150.5t-13.5 110t-9 61l157 21q3 -22 10 -81
t15 -136t16.5 -162.5t14.5 -161.5q3 -32 4.5 -55t2.5 -44.5t2 -45t1.5 -56t1.5 -79t3 -112.5q267 255 483 287q32 5 65 5q41 0 100.5 -11.5t123.5 -50t106.5 -99.5t47.5 -141q1 -11 1 -22q0 -41 -10 -86.5t-30 -91t-45.5 -83.5t-52.5 -64q-26 -26 -53 -47t-55 -40h131.5
t130.5 -0.5t111 -0.5h74v-156h-546q-60 0 -124 6t-120 14q-66 -12 -126.5 -16t-114.5 -4zM603 192q59 -11 125 -14.5t132 -3.5q60 0 133 5t151 25t155.5 59.5t146.5 108.5q19 19 35.5 46.5t28 59t17.5 65.5q3 21 3 40q0 12 -1 23q-6 48 -32.5 78.5t-64 47t-81.5 20.5
q-22 2 -43 2t-42 -2q-106 -17 -229 -97t-261 -233zM1468 1406l-147 -147l-147 147l147 147z" />
    <glyph glyph-name="uni0638.init" unicode="&#x638;" horiz-adv-x="1549" arabic-form="initial" 
d="M-20 176h179q3 5 11 17.5t13 22.5l-1 -1q17 30 48 80t85 117q11 67 17 162t7 224v35q0 104 -6 220t-17 228l-21 215l163 29q22 -173 33 -348.5t11 -365.5q0 -18 -0.5 -44t-1 -54t-1 -54t-0.5 -45q137 127 258 197t226 93q41 9 83 9q34 0 89.5 -10t118.5 -49t105 -101.5
t49 -144.5q2 -24 2 -46q0 -87 -32 -166.5t-97 -145t-152.5 -110t-182.5 -71.5t-191 -38.5t-177 -11.5l-592 1h-26v156zM340 177q16 -1 61 -1h130q75 0 159 5.5t166.5 22t158.5 46t135 77t95.5 115.5t40.5 161q-8 46 -37.5 77t-69.5 48.5t-85 22.5q-17 1 -33 1q-28 0 -54 -4
q-106 -23 -228.5 -107.5t-260.5 -235.5v1q-9 -10 -19 -22t-29 -36t-49.5 -64.5t-80.5 -106.5zM1235 1406l-147 -147l-147 147l147 147z" />
    <glyph glyph-name="uni0638.medi" unicode="&#x638;" horiz-adv-x="1583" arabic-form="medial" 
d="M-20 176h179q3 5 11 17.5t13 22.5l-1 -1q17 30 48 80t85 117q11 67 17 162t7 224v35q0 104 -6 220t-17 228l-21 215l163 29q22 -173 33 -348.5t11 -365.5q0 -18 -0.5 -44t-1 -54t-1 -54t-0.5 -45q137 127 258 197t226 93q41 9 83 9q34 0 89.5 -10t118.5 -49t105 -101.5
t49 -144.5q2 -23 2 -45q0 -50 -12 -104.5t-41.5 -108t-72 -97t-94.5 -77.5h393v-156h-262q-62 0 -113 0.5t-96.5 5t-88.5 13.5t-89 26q-93 -25 -185 -36q-84 -10 -158 -10h-13l-592 1h-26v156zM340 177q16 -1 61 -1h130q75 0 159 5.5t166.5 22t158.5 46t135 77t95.5 115.5
t40.5 161q-8 46 -37.5 77t-69.5 48.5t-85 22.5q-17 1 -33 1q-28 0 -54 -4q-106 -23 -228.5 -107.5t-260.5 -235.5v1q-9 -10 -19 -22t-29 -36t-49.5 -64.5t-80.5 -106.5zM1235 1406l-147 -147l-147 147l147 147z" />
    <glyph glyph-name="uni0639.fina" unicode="&#x639;" horiz-adv-x="1357" arabic-form="final" 
d="M666 -607q65 -8 133 -8h48.5t116.5 12.5t147.5 38.5t137.5 67q23 -37 41.5 -69t39.5 -67q-87 -54 -188.5 -88.5t-209.5 -46.5q-58 -7 -117 -7q-49 0 -128.5 7.5t-179 44t-185.5 100.5t-148 159q-31 52 -45 118q-14 62 -14 126q0 5 0.5 41.5t15.5 103t44 118.5h-1
q30 54 75.5 103t101 91t118 77t127.5 61q-90 81 -156 150t-125 133q-3 27 -5.5 55t-4.5 54q31 45 75 78t91 56.5t93 38.5t80 23l-1 -1q108 24 209 24q54 0 103.5 -7t91.5 -21q100 -30 151 -89q48 -57 48 -132v-9q-2 -81 -41.5 -151t-106.5 -127q-37 -29 -87.5 -59
t-107.5 -56q114 -69 226.5 -114t224.5 -45h23v-156h-25q-82 0 -160 18t-154.5 50t-152 76.5t-153.5 98.5q-81 -32 -163 -74t-148 -98.5t-108 -129.5t-42 -167q0 -53 19 -102t50.5 -91.5t72.5 -78t85 -62.5t87.5 -44t80.5 -23zM473 719q36 -38 69.5 -73t67 -68.5t69.5 -66
t77 -66.5q81 33 142 64.5t102.5 65.5t63.5 72t24 84q0 15 -8 27t-20.5 22t-27.5 17t-30 12q-34 11 -71.5 15.5t-77.5 4.5q-48 0 -99.5 -8t-101.5 -22.5t-96 -34.5t-83 -45z" />
    <glyph glyph-name="uni0639.init" unicode="&#x639;" horiz-adv-x="1138" arabic-form="initial" 
d="M875 634q-22 17 -44.5 32.5t-46.5 29.5q-42 23 -93 43t-108 20q-63 0 -110.5 -21.5t-80 -57t-48.5 -82t-16 -95.5q0 -67 29.5 -122.5t79 -94t114.5 -57.5q52 -16 108 -16q14 0 28 1q48 3 92.5 8.5t82 11t66 11t43.5 8.5l19 -152q-56 -14 -126.5 -28t-163.5 -25.5
t-212 -18.5t-270 -7l-238 -2v156l355 4q-90 82 -126.5 160.5t-36.5 162.5t31 158.5t86 131t130 89.5t164 33q76 0 141 -20t115 -47t84 -54t49 -41z" />
    <glyph glyph-name="uni0639.medi" unicode="&#x639;" horiz-adv-x="1144" arabic-form="medial" 
d="M-20 176h20q52 0 112.5 5t121.5 15t118 24t101 32q-44 34 -91.5 81.5t-93 100t-86.5 104t-71 93.5l10 123q63 49 124.5 81t121.5 51t119.5 26.5t119.5 7.5q75 0 146 -13.5t131 -38.5q48 -22 78.5 -47.5t47.5 -51t23.5 -48.5t6.5 -39q1 -8 1 -16q0 -38 -22.5 -91.5
t-64.5 -114.5t-96.5 -118.5t-109.5 -99.5q86 -33 189 -49.5t208 -16.5h20v-156h-20q-158 0 -292.5 29.5t-248.5 95.5q-65 -31 -140 -54.5t-154 -39t-158 -23.5t-151 -8h-20v156zM605 331q29 15 61 42t62.5 60t58.5 69.5t48.5 70.5t33 63t12.5 48q-60 39 -133.5 59t-151.5 20
q-75 0 -156 -21.5t-159 -66.5q46 -55 87 -103.5t80 -91t77.5 -79.5t79.5 -70z" />
    <glyph glyph-name="uni063A.fina" unicode="&#x63a;" horiz-adv-x="1357" arabic-form="final" 
d="M666 -607q65 -8 133 -8h48.5t116.5 12.5t147.5 38.5t137.5 67q23 -37 41.5 -69t39.5 -67q-87 -54 -188.5 -88.5t-209.5 -46.5q-58 -7 -117 -7q-49 0 -128.5 7.5t-179 44t-185.5 100.5t-148 159q-31 52 -45 118q-14 62 -14 126q0 5 0.5 41.5t15.5 103t44 118.5h-1
q30 54 75.5 103t101 91t118 77t127.5 61q-90 81 -156 150t-125 133q-3 27 -5.5 55t-4.5 54q31 45 75 78t91 56.5t93 38.5t80 23l-1 -1q108 24 209 24q54 0 103.5 -7t91.5 -21q100 -30 151 -89q48 -57 48 -132v-9q-2 -81 -41.5 -151t-106.5 -127q-37 -29 -87.5 -59
t-107.5 -56q114 -69 226.5 -114t224.5 -45h23v-156h-25q-82 0 -160 18t-154.5 50t-152 76.5t-153.5 98.5q-81 -32 -163 -74t-148 -98.5t-108 -129.5t-42 -167q0 -53 19 -102t50.5 -91.5t72.5 -78t85 -62.5t87.5 -44t80.5 -23zM473 719q36 -38 69.5 -73t67 -68.5t69.5 -66
t77 -66.5q81 33 142 64.5t102.5 65.5t63.5 72t24 84q0 15 -8 27t-20.5 22t-27.5 17t-30 12q-34 11 -71.5 15.5t-77.5 4.5q-48 0 -99.5 -8t-101.5 -22.5t-96 -34.5t-83 -45zM978 1403l-147 -147l-147 147l147 147z" />
    <glyph glyph-name="uni063A.init" unicode="&#x63a;" horiz-adv-x="1112" arabic-form="initial" 
d="M875 634q-22 17 -44.5 32.5t-46.5 29.5q-42 23 -93 43t-108 20q-63 0 -110.5 -21.5t-80 -57t-48.5 -82t-16 -95.5q0 -67 29.5 -122.5t79 -94t114.5 -57.5q52 -16 108 -16q14 0 28 1q48 3 92.5 8.5t82 11t66 11t43.5 8.5l19 -152q-56 -14 -126.5 -28t-163.5 -25.5
t-212 -18.5t-270 -7l-238 -2v156l355 4q-90 82 -126.5 160.5t-36.5 162.5t31 158.5t86 131t130 89.5t164 33q76 0 141 -20t115 -47t84 -54t49 -41zM739 1313l-147 -147l-147 147l147 147z" />
    <glyph glyph-name="uni063A.medi" unicode="&#x63a;" horiz-adv-x="1144" arabic-form="medial" 
d="M-20 176h20q52 0 112.5 5t121.5 15t118 24t101 32q-44 34 -91.5 81.5t-93 100t-86.5 104t-71 93.5l10 123q63 49 124.5 81t121.5 51t119.5 26.5t119.5 7.5q75 0 146 -13.5t131 -38.5q48 -22 78.5 -47.5t47.5 -51t23.5 -48.5t6.5 -39q1 -8 1 -16q0 -38 -22.5 -91.5
t-64.5 -114.5t-96.5 -118.5t-109.5 -99.5q86 -33 189 -49.5t208 -16.5h20v-156h-20q-158 0 -292.5 29.5t-248.5 95.5q-65 -31 -140 -54.5t-154 -39t-158 -23.5t-151 -8h-20v156zM605 331q29 15 61 42t62.5 60t58.5 69.5t48.5 70.5t33 63t12.5 48q-60 39 -133.5 59t-151.5 20
q-75 0 -156 -21.5t-159 -66.5q46 -55 87 -103.5t80 -91t77.5 -79.5t79.5 -70zM766 1312l-147 -147l-147 147l147 147z" />
    <glyph glyph-name="uni0641.fina" unicode="&#x641;" horiz-adv-x="2106" arabic-form="final" 
d="M994 20q-98 0 -197.5 8t-193 27t-176.5 49.5t-147.5 75.5t-106 106.5t-51.5 141.5q-3 24 -3 50q0 59 21 143t90 206l126 -94q-7 -12 -19.5 -35t-25.5 -52.5t-23.5 -63.5t-14.5 -68q-3 -19 -3 -37q0 -14 3 -37t21 -47q33 -46 95 -85.5t150 -69t202.5 -46t252.5 -16.5
q77 0 139.5 1.5t113 4t91.5 6.5t76 9q-39 34 -68 71.5t-48.5 75.5t-29 75.5t-9.5 72.5q0 75 26.5 150t73.5 135.5t112 99t143 41.5q79 -5 141 -39.5t104.5 -88t64.5 -121.5t22 -139q0 -81 -33 -164.5t-102 -158.5q78 -16 152 -23.5t143 -7.5h20v-156h-19q-122 0 -244 17
t-235 55q-47 -18 -108 -31.5t-139 -22.5t-174 -13.5t-213 -4.5zM1613 761q-30 0 -67 -16.5t-69.5 -50t-54 -83.5t-21.5 -116q0 -27 15 -59.5t43.5 -65.5t70 -64t94.5 -55q43 19 75.5 48t55 63.5t34 71.5t11.5 72q0 48 -17 94t-44 82t-60.5 57.5t-65.5 21.5zM1774 1351
l-147 -147l-147 147l147 147z" />
    <glyph glyph-name="uni0641.init" unicode="&#x641;" horiz-adv-x="943" arabic-form="initial" 
d="M0 176q140 0 246.5 9.5t185.5 32t134.5 59.5t93.5 91q-66 -6 -125 -6q-64 0 -146 10t-152 54t-100 123q-19 50 -19 118q0 38 6 82q9 60 34 123.5t64.5 115t91.5 84.5t114 33q63 0 117 -27t97.5 -73t76.5 -106t55.5 -126t34 -134t11.5 -128q0 -99 -30 -174t-83.5 -129.5
t-128 -90.5t-164 -57.5t-191.5 -30.5t-209 -9h-34v156h20zM428 947q-17 0 -42.5 -13.5t-51.5 -40.5t-48.5 -68.5t-32.5 -96.5q-5 -27 -5 -49q0 -40 20.5 -73.5t68 -53t108 -23t117.5 -3.5q21 0 48.5 0.5t60.5 3.5q-1 35 -9.5 79.5t-24 90.5t-37 90.5t-48.5 79.5t-58 56
t-66 21zM567 1481l-147 -147l-147 147l147 147z" />
    <glyph glyph-name="uni0641.medi" unicode="&#x641;" horiz-adv-x="1001" arabic-form="medial" 
d="M508 761q-30 0 -67 -16.5t-69.5 -50t-54 -83.5t-21.5 -116q0 -27 15 -59.5t43.5 -65.5t70 -64t94.5 -55q43 19 75.5 48t55 63.5t34 71.5t11.5 72q0 48 -17 94t-44 82t-60.5 57.5t-65.5 21.5zM0 176q36 0 75.5 1.5t80 4t79.5 6.5t74 9q-39 34 -68 71.5t-48.5 75.5
t-29 75.5t-9.5 72.5q0 75 26.5 150t73.5 135.5t112 99t143 41.5q79 -5 141 -39.5t104.5 -88t64.5 -121.5t22 -139q0 -81 -33 -164.5t-102 -158.5q78 -16 152 -23.5t143 -7.5h20v-156h-19q-122 0 -244 17t-235 55q-47 -18 -106.5 -31.5t-127 -22.5t-141 -13.5t-148.5 -4.5
h-20v156h20zM640 1331l-147 -147l-147 147l147 147z" />
    <glyph glyph-name="uni0642.fina" unicode="&#x642;" horiz-adv-x="1570" arabic-form="final" 
d="M1297 20q-32 -1 -64 -1q-47 0 -108.5 2.5t-129 14t-123 34t-95.5 61t-62 94.5t-22 134q1 48 11.5 101.5t30 105.5t47.5 99.5t65 83t82 57t99 21.5q70 0 128.5 -29.5t104.5 -79.5t81 -116t59 -138t37 -146.5t16 -141.5h136v-156h-141q-16 -165 -74 -286.5t-151 -200.5
t-217.5 -117.5t-271.5 -38.5q-149 3 -267.5 45t-201.5 120t-127 191.5t-44 259.5q0 77 14 150t37 140.5t52.5 128.5t61.5 114l128 -94q-18 -28 -41 -73t-44 -102.5t-35 -126t-14 -143.5q0 -46 7.5 -97.5t27.5 -102t54.5 -96t88.5 -80t129 -55t177 -20.5q120 0 218 34t170 97
t116 152.5t55 200.5zM1028 670q-37 0 -73 -30t-64.5 -76t-46 -100t-17.5 -102q0 -49 24.5 -81.5t64.5 -53t90.5 -31t103.5 -15t103.5 -4.5h89.5q0 45 -8.5 99t-24.5 109t-40 106t-54.5 91t-67.5 64t-80 24zM1007 1212l-146 -146l-148 147l146 147zM1362 1210l-145 -146
l-148 148l146 146z" />
    <glyph glyph-name="uni0642.init" unicode="&#x642;" horiz-adv-x="943" arabic-form="initial" 
d="M0 176q140 0 246.5 9.5t185.5 32t134.5 59.5t93.5 91q-66 -6 -125 -6q-64 0 -146 10t-152 54t-100 123q-19 50 -19 118q0 38 6 82q9 60 34 123.5t64.5 115t91.5 84.5t114 33q63 0 117 -27t97.5 -73t76.5 -106t55.5 -126t34 -134t11.5 -128q0 -99 -30 -174t-83.5 -129.5
t-128 -90.5t-164 -57.5t-191.5 -30.5t-209 -9h-34v156h20zM428 947q-17 0 -42.5 -13.5t-51.5 -40.5t-48.5 -68.5t-32.5 -96.5q-5 -27 -5 -49q0 -40 20.5 -73.5t68 -53t108 -23t117.5 -3.5q21 0 48.5 0.5t60.5 3.5q-1 35 -9.5 79.5t-24 90.5t-37 90.5t-48.5 79.5t-58 56
t-66 21zM390 1452l-146 -146l-148 147l146 147zM745 1450l-145 -146l-148 148l146 146z" />
    <glyph glyph-name="uni0642.medi" unicode="&#x642;" horiz-adv-x="1001" arabic-form="medial" 
d="M508 761q-30 0 -67 -16.5t-69.5 -50t-54 -83.5t-21.5 -116q0 -27 15 -59.5t43.5 -65.5t70 -64t94.5 -55q43 19 75.5 48t55 63.5t34 71.5t11.5 72q0 48 -17 94t-44 82t-60.5 57.5t-65.5 21.5zM0 176q36 0 75.5 1.5t80 4t79.5 6.5t74 9q-39 34 -68 71.5t-48.5 75.5
t-29 75.5t-9.5 72.5q0 75 26.5 150t73.5 135.5t112 99t143 41.5q79 -5 141 -39.5t104.5 -88t64.5 -121.5t22 -139q0 -81 -33 -164.5t-102 -158.5q78 -16 152 -23.5t143 -7.5h20v-156h-19q-122 0 -244 17t-235 55q-47 -18 -106.5 -31.5t-127 -22.5t-141 -13.5t-148.5 -4.5
h-20v156h20zM462 1284l-146 -146l-148 147l146 147zM817 1282l-145 -146l-148 148l146 146z" />
    <glyph glyph-name="uni0643.fina" unicode="&#x643;" horiz-adv-x="2076" arabic-form="final" 
d="M1135 981q-46 6 -86 10q-7 1 -15 1q-33 0 -67 -15q-24 -11 -43 -29.5t-30.5 -41.5t-12.5 -48v-7q0 -22 10 -42q8 -20 23 -37.5t35.5 -31t44.5 -21t49 -7.5q45 1 96.5 26.5t102.5 60.5l53 -69q-42 -29 -106 -65t-154 -86l-244 -135q-12 22 -21 39t-21 38l210 117
q-54 23 -93 59t-58 78q-12 35 -12 71q0 8 1 33t18 63.5t48 69t72 47.5q52 20 105 20q39 0 72.5 -6.5t48.5 -11.5zM1855 1490q1 -971 1 -982q0 -69 11.5 -129.5t37 -105.5t67.5 -71t104 -26h19l1 -156h-20q-66 0 -115.5 14t-85 35.5t-59.5 46.5t-38 48t-20 39.5t-7 20.5
q-63 -67 -155 -107.5t-197 -63t-216 -31.5t-212 -13q-33 -1 -64 -1q-53 0 -118 4t-136.5 16t-134 28.5t-115.5 35.5q-97 38 -166 92.5t-103 126.5q-21 44 -30 89q-8 41 -8 82v29t10 70t26 88q20 51 41 89.5t34 58.5l126 -94q-19 -26 -32 -55.5t-24 -58.5q-21 -56 -24 -114
q-1 -8 -1 -16q0 -50 22 -96q28 -50 88.5 -89.5t149.5 -67.5t205 -43t254 -15q67 0 147 4t161 16.5t157 36t134.5 62.5t94 95t35.5 135l-1 957z" />
    <glyph glyph-name="uni0643.init" unicode="&#x643;" horiz-adv-x="1023" arabic-form="initial" 
d="M-20 176h125q58 0 117.5 1.5t115 10t104 25t84.5 46.5t57 75t21 111q0 79 -39 155.5t-105 154.5t-154 159.5t-186 170.5l21 182l792 339q16 -38 32 -73.5t31 -71.5l-728 -306q57 -48 121.5 -105t122.5 -123q67 -74 112.5 -142.5t73.5 -131t40 -119t12 -105.5
q0 -90 -36.5 -165.5t-101.5 -129.5t-153.5 -84t-192.5 -30h-286v156z" />
    <glyph glyph-name="uni0643.medi" unicode="&#x643;" horiz-adv-x="1188" arabic-form="medial" 
d="M-20 176h349q43 0 89.5 12.5t85.5 38.5t64.5 65.5t25.5 92.5q0 51 -22.5 111.5t-59.5 124.5t-85.5 129.5t-101 125.5t-104.5 111t-97 88q5 51 11.5 99.5t12.5 99.5l854 368q16 -38 32 -73.5t31 -71.5l-807 -339q88 -78 150 -146.5t111 -136t91.5 -137.5t91.5 -151
q45 -74 85.5 -146t89.5 -129.5t112.5 -94.5t154.5 -41h64v-156h-29q-70 0 -123 8.5t-104 25.5h1q-69 25 -131.5 80.5t-114.5 121.5q-21 -60 -58.5 -104t-88.5 -73t-113 -43.5t-132 -15.5h-335v156z" />
    <glyph glyph-name="uni0644.fina" unicode="&#x644;" horiz-adv-x="1532" arabic-form="final" 
d="M379 330q-23 -50 -41 -96t-31 -94t-19 -102q-5 -46 -5 -101v-19q2 -92 36.5 -165.5t92 -125.5t132.5 -79.5t158 -27.5q51 0 106.5 11t108.5 35t100.5 61t83.5 88.5t57 119t21 151.5q0 73 -2 170.5t-5.5 209t-7.5 231t-9 236.5t-9.5 225.5t-8.5 197.5t-6.5 153t-3.5 92
q44 1 79 3.5t77 4.5q9 -143 14.5 -282.5t9 -277t7.5 -274.5t11 -275q3 -61 21 -103.5t46.5 -69.5t64.5 -39t75 -12h20v-156h-20q-45 0 -78.5 7.5t-57.5 17t-39.5 19t-22.5 14.5q1 -25 1 -48v-44q0 -117 -28.5 -208.5t-76.5 -160.5t-111 -117t-133 -78.5t-141.5 -44
t-136.5 -13.5q-62 0 -129 13t-131.5 41.5t-123 72.5t-102 105.5t-69.5 141.5t-26 180q0 84 13 162.5t30.5 142.5t36 109t29.5 62z" />
    <glyph glyph-name="uni0644.init" unicode="&#x644;" horiz-adv-x="569" arabic-form="initial" 
d="M-20 176h76q76 0 123 19.5t72 55.5t32 87q5 39 5 85v27q-5 121 -10 239t-10 225t-9.5 200.5t-8.5 165.5t-7 120.5t-5 65.5l156 16l52 -1033q1 -15 1 -30q0 -84 -21.5 -158t-70.5 -128.5t-124 -83.5t-175 -29h-76v156z" />
    <glyph glyph-name="uni0644.medi" unicode="&#x644;" horiz-adv-x="649" arabic-form="medial" 
d="M-20 176h76q76 0 123 19.5t72 55.5t32 87q5 39 5 85v27q-5 121 -10 239t-10 225t-9.5 200.5t-8.5 165.5t-7 120.5t-5 65.5l156 16q10 -198 17.5 -350t13 -265t9.5 -192t6.5 -132t3.5 -83.5t1.5 -46.5t0.5 -22.5v-10.5q2 -100 54 -152t149 -52h20v-156h-20h-12
q-41 0 -83.5 6.5t-80.5 21t-67 36t-44 48.5q-48 -55 -123.5 -83.5t-182.5 -28.5h-76v156z" />
    <glyph glyph-name="uni0645.fina" unicode="&#x645;" horiz-adv-x="1244" arabic-form="final" 
d="M1264 176v-156h-51q-56 0 -107.5 21.5t-87.5 79.5q-22 -25 -49.5 -43t-61.5 -26q-11 -3 -26 -3q-18 0 -50.5 5.5t-86.5 22t-115.5 40t-123 47.5t-119.5 46.5t-106 37.5q-5 -6 -5.5 -14t-0.5 -31l35 -914h-156l-36 908v12q0 38 10.5 73.5t33.5 63.5t56.5 44t75.5 16
q34 0 91 -16q15 43 35.5 92.5t47 98t58.5 93t71 78t85 52.5q42 17 89 17h10q80 -3 139.5 -34t99.5 -81.5t61.5 -114.5t26.5 -133q2 -20 2 -41t-2.5 -54t-12.5 -77q7 -22 18 -42t26 -35t33.5 -24t41.5 -9h51zM730 253q61 -25 101 -35t49 -11q18 7 31.5 33t22.5 58.5
t13.5 65.5t4.5 54q0 40 -11 83.5t-33 79.5t-55.5 59.5t-78.5 23.5h-3q-22 0 -45.5 -15t-47 -41.5t-46 -60.5t-41.5 -70.5t-34.5 -73.5t-26.5 -69z" />
    <glyph glyph-name="uni0645.init" unicode="&#x645;" horiz-adv-x="1165" arabic-form="initial" 
d="M0 176q88 0 149.5 28.5t106.5 75.5t78.5 107.5t65.5 124.5q26 54 51.5 102.5t57.5 86.5q85 103 203 103q141 0 236 -114q37 -45 60 -104.5t32 -124.5q5 -40 5 -79q0 -26 -4.5 -72t-26.5 -101q-27 -66 -72 -110.5t-102 -59.5q-35 -9 -76 -9q-75 0 -165 36q-95 38 -212 123
q-34 -46 -78 -78t-94.5 -52.5t-104.5 -29.5t-109 -9h-21v156h20zM478 319q43 -32 87.5 -56.5t86 -41.5t78 -26t62.5 -9q10 0 19 1t19 4q30 10 48.5 46.5t24.5 85.5q3 23 3 47q0 27 -6 69t-29 89t-62.5 80t-96.5 38h-7q-21 0 -39.5 -11t-38 -36.5t-40.5 -64.5t-47 -91z" />
    <glyph glyph-name="uni0645.medi" unicode="&#x645;" horiz-adv-x="1178" arabic-form="medial" 
d="M1198 176v-156h-32q-82 0 -141.5 21.5t-95.5 78.5q-74 -90 -198 -90q-75 0 -165 36q-95 38 -212 123q-36 -47 -75 -79.5t-82.5 -52.5t-92 -28.5t-103.5 -8.5h-21v156h20q76 0 131 28.5t97 75.5t74.5 107.5t64.5 124.5q25 52 54 104t65.5 94t83.5 68t109 26
q86 0 150.5 -40.5t106.5 -105t62 -144.5q15 -64 15 -128q0 -16 -1 -33q0 -37 11.5 -69t31.5 -56t48.5 -38t61.5 -14h33zM445 319q43 -32 87.5 -56.5t86 -41.5t78 -26t62.5 -9q10 0 19 1t19 4q30 10 48.5 46.5t24.5 85.5q3 23 3 47q0 27 -6 69.5t-29 89.5t-62.5 79.5
t-96.5 37.5h-7q-21 0 -39.5 -11t-38 -36.5t-40.5 -64.5t-47 -91z" />
    <glyph glyph-name="uni0646.fina" unicode="&#x646;" horiz-adv-x="1711" arabic-form="final" 
d="M1729 20h-20q-67 0 -119 19t-97 59q0 -6 0.5 -18t1 -24.5t1 -24.5t0.5 -18q0 -63 -9 -128t-29 -131q-40 -110 -111 -189t-161.5 -131t-194.5 -76.5t-210 -24.5q-273 0 -435 123.5t-210 375.5v-1q-10 57 -10 118q0 32 5.5 95.5t28.5 154.5t57.5 173.5t73.5 148.5
q36 -26 64.5 -48t62.5 -46q-15 -24 -32.5 -61.5t-35 -84t-32.5 -100t-24.5 -109.5t-11.5 -111q-1 -14 -1 -28q0 -40 7 -78q6 -34 22.5 -74.5t44 -81t67 -78.5t91.5 -67t117 -46.5t144 -17.5q104 0 192 22.5t156 63t115 98t70 128.5q17 52 23.5 103t6.5 102q0 61 -9.5 120
t-24 113t-32 102t-34.5 88q-20 41 -29 61t-17 34l133 84q3 -4 16.5 -30.5t42.5 -86.5q49 -93 93 -154t84.5 -97t77 -50.5t71.5 -14.5h20v-156zM915 648l-147 -147l-147 147l147 147z" />
    <glyph glyph-name="uni0646.init" unicode="&#x646;" horiz-adv-x="723" arabic-form="initial" 
d="M-20 176h116q60 0 110.5 4t92 17.5t74 38.5t57.5 68q15 25 17 63q1 10 1 19q0 30 -6 69.5t-20 89.5t-30.5 99.5t-35 96t-33.5 85.5l141 71q19 -46 40.5 -99.5t40.5 -110.5t34 -116.5t21 -116.5q3 -31 3 -61q0 -25 -3.5 -64.5t-24.5 -86.5q-29 -64 -70.5 -107t-96.5 -68.5
t-122.5 -36t-146.5 -10.5h-159v156zM446 1256l-147 -147l-147 147l147 147z" />
    <glyph glyph-name="uni0646.medi" unicode="&#x646;" horiz-adv-x="705" arabic-form="medial" 
d="M725 176v-156h-20q-96 0 -163 37.5t-113 96.5q-69 -68 -169 -101t-243 -33h-37v156h37q178 0 259 65.5t81 194.5q0 54 -7.5 110t-27.5 127q42 11 76.5 21.5t73.5 21.5q8 -30 14 -60.5t10.5 -64t8.5 -73.5t8 -89q3 -40 12 -84.5t30 -82t57 -62t93 -24.5h20zM445 1087
l-147 -147l-147 147l147 147z" />
    <glyph glyph-name="uni0647.fina" unicode="&#x647;" horiz-adv-x="1090" arabic-form="final" 
d="M634 720q-25 -11 -59 -26t-71 -34.5t-73 -43t-64.5 -51t-46 -59t-17.5 -67.5q0 -37 20.5 -61t53.5 -38.5t75 -20t86 -5.5q46 0 95 5.5t86 12.5q-14 69 -28.5 169.5t-30.5 228.5zM544 160q-82 0 -153.5 13.5t-124.5 45t-83.5 82t-30.5 124.5q0 66 28 123t73 105.5
t100.5 88t109.5 69t101 50t76 30.5l-15 145l157 34q1 -8 4 -35t6.5 -63t8 -76t8 -76t6.5 -62t4 -33q16 -131 29.5 -214t23.5 -132t16.5 -70.5t9.5 -28.5v1q13 -31 30 -51t40.5 -32t53.5 -17t68 -5h20v-156h-20q-38 0 -88 6t-99 29h1q-76 35 -131 126q-135 -21 -229 -21z" />
    <glyph glyph-name="uni0647.init" unicode="&#x647;" horiz-adv-x="1522" arabic-form="initial" 
d="M-20 176h29q68 0 120 1.5t94 4.5t76.5 7t66.5 9q-88 85 -130 167t-42 158q0 53 15.5 111t47.5 111t82.5 95.5t120.5 65.5l-107 41l77 144q66 -25 148.5 -56.5t171 -68.5t176.5 -78t164.5 -84t136.5 -87t91 -87q88 -121 88 -248q0 -94 -49.5 -174t-149.5 -134l1 1
q-27 -16 -65 -27t-80 -18t-84.5 -10t-76.5 -3q-88 0 -169.5 13t-166.5 48q-51 -16 -118 -27t-140.5 -18t-150 -10t-148.5 -3h-29v156zM749 183q70 -15 139 -15q24 0 81.5 4.5t129.5 33.5t116 77.5t44 110.5q0 40 -23 87.5t-67.5 94.5t-109 91t-148.5 78q31 -75 31 -154
t-24 -154t-68 -140.5t-101 -113.5zM617 804q-15 2 -29 2q-42 0 -87.5 -22.5t-83 -67t-56.5 -100.5q-14 -41 -14 -79q0 -15 2 -30q6 -39 24.5 -76t45.5 -70t61.5 -61.5t72.5 -50.5q56 24 97.5 61.5t68.5 82t40.5 93t13.5 93.5q0 31 -7 67.5t-24.5 69t-47.5 57t-77 31.5z" />
    <glyph glyph-name="uni0647.medi" unicode="&#x647;" horiz-adv-x="1035" arabic-form="medial" 
d="M-20 176h183q-1 12 -1 25q0 48 10 116t32.5 147.5t56.5 156.5t77 138t95 98t110 37q40 0 74 -18.5t62 -49.5t49.5 -73t36.5 -88.5t22.5 -96t7.5 -95.5q0 -96 -36 -171.5t-97 -130t-140 -89.5t-166 -51q13 -33 36 -80.5t54.5 -97t70 -93.5t82.5 -70q-2 19 -2 38
q0 77 30 156.5t91 146.5t143 106t174 39h20v-156h-28q-61 0 -116 -29.5t-96 -77t-65.5 -107.5t-24.5 -122q0 -51 17.5 -98.5t57.5 -92.5l-104 -125q-101 63 -180 136.5t-139 153t-102 161.5t-68 162l-14 39h-213v156zM541 730q-26 0 -53 -23t-52 -61t-46.5 -87t-38 -102
t-26 -105.5t-9.5 -97.5q0 -14 1.5 -31t3.5 -34q78 0 138.5 25.5t102.5 69.5t64 103t22 127q0 31 -10.5 68.5t-26 70.5t-34.5 55t-36 22z" />
    <glyph glyph-name="uni0648.fina" unicode="&#x648;" horiz-adv-x="1043" arabic-form="final" 
d="M101 -525q152 33 274 92t209.5 132.5t139 156.5t63.5 164q-33 -1 -65 -1q-47 0 -108 2.5t-128.5 14t-123 34t-95.5 61t-62 94.5t-22 134q1 48 11.5 101.5t30 105.5t47.5 99.5t65 83t82 57t99 21.5q70 0 128.5 -29.5t104.5 -79.5t81 -116t59 -138t37 -146.5t16 -141.5h119
v-156h-128q-15 -96 -53 -181.5t-94.5 -158t-129 -132t-156 -105t-176 -76.5t-188.5 -46zM518 670q-37 0 -73 -30t-64.5 -76t-46 -100t-17.5 -102q5 -49 31 -81t66 -52t89.5 -29.5t101 -13t100.5 -3.5h88q0 45 -8.5 98.5t-24.5 107.5t-40 105t-54.5 90t-67.5 62.5t-80 23.5z
" />
    <glyph glyph-name="uni0649.fina" unicode="&#x649;" horiz-adv-x="1715" arabic-form="final" 
d="M830 -632q-85 0 -176 8.5t-175 33t-154 70t-114 120.5q-93 135 -93 351v23.5t1 24.5q7 134 46 287.5t115 339.5q40 -16 74 -30t71 -29q-72 -182 -110.5 -340.5t-38.5 -279.5q0 -161 65 -259q29 -42 67 -70t81 -46.5t88.5 -28t90.5 -13.5t86.5 -4.5t75.5 -0.5q30 0 85 5
t119.5 17t131 32t120.5 49t88.5 69t34.5 93q0 14 -11.5 33.5t-37.5 41t-68 45t-102 45.5q-36 12 -70.5 22.5t-66 18.5t-57 14t-43.5 9l11 158l771 -1v-156h-320q45 -37 74 -70.5t46.5 -62.5t24 -53.5t6.5 -43.5q-1 -81 -38 -144t-97 -110t-137.5 -79t-158.5 -52
t-160.5 -28.5t-144.5 -8.5z" />
    <glyph glyph-name="uni064A.fina" unicode="&#x64a;" horiz-adv-x="1715" arabic-form="final" 
d="M830 -632q-85 0 -176 8.5t-175 33t-154 70t-114 120.5q-93 135 -93 351v23.5t1 24.5q7 134 46 287.5t115 339.5q40 -16 74 -30t71 -29q-72 -182 -110.5 -340.5t-38.5 -279.5q0 -161 65 -259q29 -42 67 -70t81 -46.5t88.5 -28t90.5 -13.5t86.5 -4.5t75.5 -0.5q30 0 85 5
t119.5 17t131 32t120.5 49t88.5 69t34.5 93q0 14 -11.5 33.5t-37.5 41t-68 45t-102 45.5q-36 12 -70.5 22.5t-66 18.5t-57 14t-43.5 9l11 158l771 -1v-156h-320q45 -37 74 -70.5t46.5 -62.5t24 -53.5t6.5 -43.5q-1 -81 -38 -144t-97 -110t-137.5 -79t-158.5 -52
t-160.5 -28.5t-144.5 -8.5zM766 -958l-146 -146l-148 147l146 147zM1121 -960l-145 -146l-148 148l146 146z" />
    <glyph glyph-name="uni064A.init" unicode="&#x64a;" horiz-adv-x="838" arabic-form="initial" 
d="M-20 176h186q60 0 121 4t114.5 17.5t96 38.5t67.5 68q15 25 17 63q1 10 1 19q0 30 -6 69.5t-20 89.5t-30.5 99.5t-35 96t-33.5 85.5l141 71q19 -46 40.5 -99.5t40.5 -110.5t34 -116.5t21 -116.5q3 -31 3 -61q0 -25 -3.5 -64.5t-24.5 -86.5q-29 -64 -77.5 -107t-113 -68.5
t-143.5 -36t-167 -10.5h-229v156zM336 -327l-146 -146l-148 147l146 147zM691 -329l-145 -146l-148 148l146 146z" />
    <glyph glyph-name="uni064A.medi" unicode="&#x64a;" horiz-adv-x="852" arabic-form="medial" 
d="M872 176v-156h-20q-96 0 -163 37.5t-113 96.5q-34 -34 -75.5 -59t-95 -41.5t-121 -25t-154.5 -8.5h-150v156h150q102 0 173.5 16.5t116 49t64.5 81t20 113.5q0 54 -7.5 110t-27.5 127q42 11 76.5 21.5t73.5 21.5q8 -30 14 -60.5t10.5 -64t8.5 -73.5t8 -89q3 -40 12 -84.5
t30 -82t57 -62t93 -24.5h20zM350 -327l-146 -146l-148 147l146 147zM705 -329l-145 -146l-148 148l146 146z" />
    <glyph glyph-name=".notdef" horiz-adv-x="1229" 
d="M102 -362v1806h1024v-1806h-1024zM217 -248h795v1577h-795v-1577z" />
    <glyph glyph-name=".null" 
 />
    <glyph glyph-name="nonmarkingreturn" horiz-adv-x="602" 
 />
    <glyph glyph-name="NULL" unicode="&#xfeff;" 
 />
    <glyph glyph-name="NULL" 
 />
    <glyph glyph-name="space" unicode=" " horiz-adv-x="696" 
 />
    <glyph glyph-name="space" unicode="&#xa0;" horiz-adv-x="696" 
 />
    <glyph glyph-name="exclam" unicode="!" horiz-adv-x="579" 
d="M223 461l-33 872v304h183v-304l-23 -872h-127zM435 155l-149 -149l-141 141l148 150z" />
    <glyph glyph-name="quotedbl" unicode="&#x22;" horiz-adv-x="660" 
d="M273 1568l-23 -352h-89l3 509h109v-157zM538 1568l-23 -352h-90l4 509h109v-157z" />
    <glyph glyph-name="numbersign" unicode="#" horiz-adv-x="1338" 
d="M846 460h-353l-86 -460h-112l87 460h-287v105h306l93 495h-313v108h333l89 467h111l-88 -467h353l89 467h112l-88 -467h257v-108h-278l-93 -495h287v-105h-307l-87 -460h-112zM512 565h354l93 495h-354z" />
    <glyph glyph-name="dollar" unicode="$" horiz-adv-x="1275" 
d="M1012 403q0 125 -81 204t-285 150q-254 80 -356 189.5t-102 283.5q0 183 112 297t305 129v227h115v-227q198 -17 306 -147.5t108 -354.5h-133q0 177 -91.5 281t-250.5 104t-248.5 -84t-89.5 -223q0 -135 82 -210.5t279 -142.5t286.5 -128t134 -145t44.5 -201
q0 -184 -115.5 -296.5t-316.5 -128.5v-214h-113v213q-226 14 -349.5 141.5t-123.5 348.5h135q0 -175 102 -274.5t285 -99.5q160 0 260.5 85.5t100.5 222.5z" />
    <glyph glyph-name="percent" unicode="%" horiz-adv-x="1699" 
d="M122 1321q0 146 90.5 242t230.5 96q139 0 229.5 -96t90.5 -249v-80q0 -144 -89.5 -240t-228.5 -96q-138 0 -230.5 94.5t-92.5 249.5v79zM231 1234q0 -104 58 -171.5t156 -67.5q95 0 152 68t57 176v82q0 104 -58.5 172t-153.5 68q-93 0 -152 -67.5t-59 -179.5v-80z
M946 401q0 146 90 241.5t229 95.5q138 0 229.5 -95t91.5 -250v-80q0 -146 -90.5 -241.5t-228.5 -95.5t-229.5 95t-91.5 248v82zM1053 313q0 -105 58 -172.5t156 -67.5q96 0 153 68t57 178v82q0 108 -58 173.5t-154 65.5q-95 0 -153.5 -66t-58.5 -178v-83zM487 136l-84 54
l799 1278l84 -54z" />
    <glyph glyph-name="ampersand" unicode="&#x26;" horiz-adv-x="1415" 
d="M454 892q-98 118 -142.5 210.5t-44.5 183.5q0 172 102.5 272t274.5 100q156 0 252.5 -90.5t96.5 -229.5q0 -162 -187 -318l-179 -140l449 -523q102 165 102 374h125q0 -278 -144 -470l223 -261h-161l-142 164q-88 -88 -204.5 -137t-245.5 -49q-234 0 -371 119.5
t-137 319.5q0 119 70.5 225t246.5 238zM629 91q102 0 198 43t173 123l-458 530l-15 17l-52 -39q-220 -180 -220 -348q0 -147 101 -236.5t273 -89.5zM402 1290q0 -137 152 -323l147 112q72 52 118 113.5t46 145.5q0 87 -61 146t-162 59q-110 0 -175 -70.5t-65 -182.5z" />
    <glyph glyph-name="quotesingle" unicode="'" horiz-adv-x="391" 
d="M254 1567l-19 -343h-101q5 333 5 501h115v-158z" />
    <glyph glyph-name="parenleft" unicode="(" horiz-adv-x="789" 
d="M262 1295q152 354 416 561l76 -104q-480 -432 -485 -1182v-14q0 -349 151 -688q143 -321 335 -460l-65 -97q-282 203 -438 568q-140 329 -140 687v25q6 369 150 704z" />
    <glyph glyph-name="parenright" unicode=")" horiz-adv-x="807" 
d="M620 -121q-156 -365 -438 -568l-66 97q193 139 336 460q151 342 151 693v9q-6 750 -486 1182l77 104q264 -207 416 -561q143 -335 149 -704v-30q0 -356 -139 -682z" />
    <glyph glyph-name="asterisk" unicode="*" horiz-adv-x="976" 
d="M405 1123l-372 121l36 114l372 -138l-4 415h117l-9 -419l364 143l37 -114l-374 -129l250 -330l-95 -71l-241 343l-229 -340l-95 68z" />
    <glyph glyph-name="plus" unicode="+" horiz-adv-x="1298" 
d="M708 831h497v-126h-497v-541h-136v541h-488v126h488v523h136v-523z" />
    <glyph glyph-name="comma" unicode="," horiz-adv-x="440" 
d="M147 -305l-80 58q103 137 106 284v174h131v-140q0 -234 -157 -376z" />
    <glyph glyph-name="hyphen" unicode="-" horiz-adv-x="658" 
d="M593 665h-538v113h538v-113z" />
    <glyph glyph-name="period" unicode="." horiz-adv-x="592" 
d="M194 197q32 33 84 33q53 0 85 -33q32 -32 32 -81t-32 -78q-32 -31 -85 -31q-52 0 -84 31q-31 29 -31 78t31 81z" />
    <glyph glyph-name="slash" unicode="/" horiz-adv-x="913" 
d="M156 -140h-122l683 1775h121z" />
    <glyph glyph-name="zero" unicode="0" horiz-adv-x="1275" 
d="M1140 682q0 -346 -127 -525t-374 -179q-243 0 -372 175.5t-132 511.5v293q0 345 128 522.5t374 177.5q242 0 370 -171.5t133 -504.5v-300zM1005 975q0 281 -91.5 424.5t-276.5 143.5q-182 0 -274 -140.5t-95 -414.5v-321q0 -280 95 -428t276 -148q180 0 272.5 145
t93.5 424v315z" />
    <glyph glyph-name="one" unicode="1" horiz-adv-x="1275" 
d="M779 0h-134v1473l-445 -165v126l557 207h22v-1641z" />
    <glyph glyph-name="two" unicode="2" horiz-adv-x="1275" 
d="M1178 0h-1024v103l560 636q140 161 193.5 265t53.5 203q0 155 -91 245.5t-250 90.5q-165 0 -266.5 -105.5t-101.5 -274.5h-134q0 139 62.5 252t177.5 178t262 65q225 0 351 -118t126 -321q0 -115 -71 -251t-251 -339l-456 -516h859v-113z" />
    <glyph glyph-name="three" unicode="3" horiz-adv-x="1275" 
d="M453 891h139q116 0 202 41t131.5 112t45.5 164q0 158 -88.5 246.5t-254.5 88.5q-157 0 -257.5 -92.5t-100.5 -244.5h-135q0 127 64 232t177.5 162.5t251.5 57.5q222 0 350 -121.5t128 -332.5q0 -118 -74.5 -217.5t-204.5 -148.5q152 -43 231 -147t79 -247
q0 -210 -137 -338t-367 -128q-146 0 -267.5 58t-188.5 163t-67 245h135q0 -156 109 -254.5t279 -98.5q174 0 271.5 89.5t97.5 258.5q0 164 -105 250.5t-310 86.5h-134v115z" />
    <glyph glyph-name="four" unicode="4" horiz-adv-x="1275" 
d="M979 527h255v-134h-255v-393h-134v393h-770v97l757 1145h147v-1108zM240 527h605v934l-60 -103z" />
    <glyph glyph-name="five" unicode="5" horiz-adv-x="1275" 
d="M245 838l80 797h817v-125h-702l-57 -552q131 90 308 90q221 0 352.5 -144t131.5 -383q0 -258 -128 -400.5t-361 -142.5q-213 0 -345.5 119t-151.5 333h129q19 -167 113.5 -253t254.5 -86q175 0 264.5 111t89.5 317q0 180 -100 293t-273 113q-95 0 -166 -24t-149 -94z" />
    <glyph glyph-name="six" unicode="6" horiz-adv-x="1275" 
d="M947 1648v-118h-16q-293 0 -461.5 -172.5t-186.5 -479.5q67 93 171.5 144.5t233.5 51.5q216 0 343.5 -149t127.5 -389q0 -160 -59.5 -288t-170.5 -199t-254 -71q-235 0 -382 170t-147 439v135q0 439 200 680t567 246h34zM667 958q-128 0 -238.5 -76t-147.5 -192v-115
q0 -213 109.5 -348t284.5 -135q157 0 254 124.5t97 314.5q0 193 -97 310t-262 117z" />
    <glyph glyph-name="seven" unicode="7" horiz-adv-x="1275" 
d="M1161 1558l-698 -1558h-141l694 1521h-930v114h1075v-77z" />
    <glyph glyph-name="eight" unicode="8" horiz-adv-x="1275" 
d="M1117 1214q0 -127 -74 -227.5t-195 -147.5q141 -48 226.5 -156t85.5 -250q0 -210 -142.5 -332.5t-377.5 -122.5q-237 0 -379 122t-142 333q0 140 82 249t225 157q-122 47 -193.5 147.5t-71.5 227.5q0 203 130.5 323.5t346.5 120.5t347.5 -121.5t131.5 -322.5zM1025 432
q0 153 -109 251.5t-278 98.5q-170 0 -277.5 -97t-107.5 -253t104.5 -248.5t282.5 -92.5q174 0 279.5 92t105.5 249zM983 1215q0 141 -97.5 234.5t-247.5 93.5q-153 0 -248 -90.5t-95 -237.5q0 -144 95 -231.5t249 -87.5q152 0 248 88.5t96 230.5z" />
    <glyph glyph-name="nine" unicode="9" horiz-adv-x="1275" 
d="M993 757q-72 -106 -178.5 -163.5t-231.5 -57.5q-139 0 -246 71.5t-165.5 198.5t-58.5 278q0 161 62.5 293.5t174.5 206.5t258 74q246 0 383 -172.5t137 -489.5v-121q0 -443 -189 -665t-576 -222h-25l1 116h47q293 5 446 166.5t161 486.5zM600 651q134 0 241.5 80.5
t152.5 208.5v77q0 250 -104 387.5t-280 137.5q-160 0 -262 -128.5t-102 -324.5q0 -187 98 -312.5t256 -125.5z" />
    <glyph glyph-name="colon" unicode=":" horiz-adv-x="600" 
d="M202 197q32 33 85 33q52 0 85 -33q31 -32 31 -81t-31 -78q-32 -31 -85 -31t-85 31q-30 29 -30 78t30 81zM205 874q32 33 84 33q53 0 85 -33q31 -31 31 -81q0 -48 -31 -78q-32 -31 -85 -31t-84 31q-31 30 -31 78q0 50 31 81z" />
    <glyph glyph-name="semicolon" unicode=";" horiz-adv-x="448" 
d="M133 902q0 40 25 67.5t70 27.5t71 -27.5t26 -66.5q0 -40 -26 -65t-71 -25t-70 25t-25 64zM147 -305l-80 58q103 137 106 284v174h131v-140q0 -234 -157 -376z" />
    <glyph glyph-name="less" unicode="&#x3c;" horiz-adv-x="1176" 
d="M234 736l781 -337v-142l-929 426v109l929 424v-141z" />
    <glyph glyph-name="equal" unicode="=" horiz-adv-x="1272" 
d="M1104 931h-937v119h937v-119zM1104 469h-937v119h937v-119z" />
    <glyph glyph-name="greater" unicode="&#x3e;" horiz-adv-x="1192" 
d="M938 740l-799 340v139l949 -425v-109l-949 -426v140z" />
    <glyph glyph-name="question" unicode="?" horiz-adv-x="1044" 
d="M422 454q3 132 36.5 213t144.5 190.5t143 155t49.5 100t17.5 123.5q0 141 -74.5 221t-208.5 80q-135 0 -217.5 -76.5t-84.5 -208.5h-134q3 184 125 295t311 111q193 0 305 -113t112 -306q0 -122 -55 -228t-209 -247q-127 -107 -127 -310h-134zM404 79q0 38 24.5 64.5
t67.5 26.5t68.5 -26.5t25.5 -64.5q0 -37 -25.5 -62.5t-68.5 -25.5t-67.5 25.5t-24.5 62.5z" />
    <glyph glyph-name="at" unicode="@" horiz-adv-x="2100" 
d="M1970 576q-6 -165 -61 -306t-152 -216.5t-225 -75.5q-109 0 -177.5 57t-91.5 160q-121 -217 -334 -217q-157 0 -234 136q-62 107 -62 276q0 43 4 90q17 183 83.5 326t174 223.5t229.5 80.5q87 0 152 -24.5t151 -97.5l-57 -640q-2 -26 -2 -49q0 -95 40 -160t137 -65
q138 0 224 135.5t96 366.5q2 46 2 90q0 388 -184.5 606t-578.5 218q-237 0 -427.5 -118.5t-300.5 -335t-123 -499.5q-2 -38 -2 -76q0 -236 82.5 -436.5t260.5 -316.5t423 -116q104 0 204 25t167 64l35 -90q-64 -42 -178.5 -71t-231.5 -29q-281 0 -483 126.5t-302 364.5
q-89 210 -89 484q0 35 1 71q14 312 138 553t339.5 373t490.5 132q287 0 485.5 -119.5t294.5 -349.5q84 -203 84 -474q0 -38 -2 -76zM756 321q12 -112 62.5 -173.5t133.5 -61.5q208 0 307 287l50 579q-75 55 -177 55q-125 0 -216.5 -99t-133.5 -274q-31 -125 -31 -232
q0 -42 5 -81z" />
    <glyph glyph-name="A" unicode="A" horiz-adv-x="1436" 
d="M1089 458h-742l-168 -458h-145l618 1635h132l619 -1635h-144zM390 576h656l-328 891z" />
    <glyph glyph-name="B" unicode="B" horiz-adv-x="1409" 
d="M207 0v1635h483q262 0 398 -108.5t136 -319.5q0 -127 -69 -220.5t-189 -134.5q142 -31 229.5 -140t87.5 -252q0 -216 -140 -338t-389 -122h-547zM345 786v-669h414q178 0 281.5 90.5t103.5 250.5q0 152 -99 240t-275 88h-425zM345 902h377q173 3 268 81t95 228
q0 157 -98.5 231.5t-296.5 74.5h-345v-615z" />
    <glyph glyph-name="C" unicode="C" horiz-adv-x="1494" 
d="M1365 510q-29 -258 -185.5 -395t-416.5 -137q-182 0 -322 90.5t-216.5 257.5t-77.5 382v212q0 218 76.5 386.5t219.5 260t330 91.5q262 0 414.5 -142.5t177.5 -392.5h-140q-51 417 -452 417q-223 0 -355 -166.5t-132 -459.5v-200q0 -283 129 -451.5t348 -168.5
q216 0 326 104t136 312h140z" />
    <glyph glyph-name="D" unicode="D" horiz-adv-x="1506" 
d="M207 0v1635h457q201 0 360.5 -91.5t248.5 -262t89 -388.5v-151q0 -219 -88.5 -388.5t-249.5 -261.5t-370 -92h-447zM345 1517v-1400h310q258 0 414 171t156 463v144q0 282 -153.5 451.5t-405.5 170.5h-321z" />
    <glyph glyph-name="E" unicode="E" horiz-adv-x="1308" 
d="M1110 784h-765v-667h879v-117h-1017v1635h1012v-118h-874v-616h765v-117z" />
    <glyph glyph-name="F" unicode="F" horiz-adv-x="1294" 
d="M1107 764h-762v-764h-138v1635h1013v-118h-875v-635h762v-118z" />
    <glyph glyph-name="G" unicode="G" horiz-adv-x="1572" 
d="M1387 194q-72 -102 -225.5 -159t-342.5 -57q-192 0 -341.5 92t-231.5 260.5t-83 386.5v206q0 340 171.5 537.5t461.5 197.5q253 0 407 -129t183 -354h-138q-31 179 -147 272t-304 93q-229 0 -362.5 -163t-133.5 -459v-194q0 -186 63.5 -329t182 -222t272.5 -79
q178 0 306 56q83 38 124 87v422h-439v117h577v-582z" />
    <glyph glyph-name="H" unicode="H" horiz-adv-x="1627" 
d="M1418 0h-139v784h-934v-784h-138v1635h138v-734h934v734h139v-1635z" />
    <glyph glyph-name="I" unicode="I" horiz-adv-x="612" 
d="M375 0h-138v1635h138v-1635z" />
    <glyph glyph-name="J" unicode="J" horiz-adv-x="1266" 
d="M929 1635h139v-1149q0 -232 -134 -370t-360 -138q-238 0 -366 124.5t-128 347.5h138q0 -177 93 -266.5t263 -89.5q156 0 254.5 103.5t100.5 280.5v1157z" />
    <glyph glyph-name="K" unicode="K" horiz-adv-x="1451" 
d="M575 812l-230 -227v-585h-138v1635h138v-881l838 881h174l-685 -728l737 -907h-168z" />
    <glyph glyph-name="L" unicode="L" horiz-adv-x="1212" 
d="M346 117h807v-117h-946v1635h139v-1518z" />
    <glyph glyph-name="M" unicode="M" horiz-adv-x="1990" 
d="M390 1635l603 -1443l605 1443h184v-1635h-138v712l11 730l-608 -1442h-107l-606 1436l11 -719v-717h-138v1635h183z" />
    <glyph glyph-name="N" unicode="N" horiz-adv-x="1633" 
d="M1424 0h-138l-940 1399v-1399h-139v1635h139l941 -1400v1400h137v-1635z" />
    <glyph glyph-name="O" unicode="O" horiz-adv-x="1557" 
d="M1415 729q0 -226 -78 -396.5t-223 -262.5t-335 -92q-286 0 -462.5 204.5t-176.5 553.5v168q0 224 79.5 396t224 265t333.5 93t333 -91t223 -257.5t82 -385.5v-195zM1277 906q0 296 -133.5 463t-366.5 167q-228 0 -363 -167.5t-135 -468.5v-171q0 -291 134.5 -461
t365.5 -170q235 0 366.5 167.5t131.5 467.5v173z" />
    <glyph glyph-name="P" unicode="P" horiz-adv-x="1416" 
d="M345 666v-666h-138v1635h557q255 0 402.5 -130t147.5 -358q0 -231 -142 -356t-412 -125h-415zM345 783h419q201 0 306.5 95.5t105.5 265.5t-105 270.5t-298 102.5h-428v-734z" />
    <glyph glyph-name="Q" unicode="Q" horiz-adv-x="1557" 
d="M1411 729q0 -234 -83 -407.5t-235 -261.5l297 -260l-95 -85l-334 288q-92 -25 -187 -25q-187 0 -332.5 92t-225 261t-80.5 390v183q0 224 79 396t224 265t333 93q190 0 335 -92.5t224.5 -264t79.5 -396.5v-176zM1272 906q0 296 -133.5 463t-366.5 167
q-227 0 -362.5 -167.5t-135.5 -468.5v-171q0 -291 134 -461t366 -170q233 0 365.5 167t132.5 467v174z" />
    <glyph glyph-name="R" unicode="R" horiz-adv-x="1460" 
d="M818 681h-475v-681h-140v1635h531q262 0 409 -127t147 -355q0 -157 -92 -277t-247 -166l409 -695v-15h-147zM343 798h423q174 0 279.5 99t105.5 256q0 173 -110 268.5t-309 95.5h-389v-719z" />
    <glyph glyph-name="S" unicode="S" horiz-adv-x="1362" 
d="M1132 402q0 136 -95.5 215t-349.5 150.5t-370 155.5q-167 119 -167 312q0 188 154.5 305.5t395.5 117.5q163 0 291.5 -63t199 -175.5t70.5 -250.5h-139q0 167 -114.5 269t-307.5 102q-188 0 -299 -84t-111 -218q0 -125 100 -203.5t320 -138.5t333.5 -125t170.5 -154.5
t57 -212.5q0 -193 -154.5 -309.5t-406.5 -116.5q-173 0 -317.5 61.5t-219 172.5t-74.5 255h138q0 -173 129 -273t344 -100q191 0 306.5 84.5t115.5 223.5z" />
    <glyph glyph-name="T" unicode="T" horiz-adv-x="1373" 
d="M1316 1517h-560v-1517h-138v1517h-560v118h1258v-118z" />
    <glyph glyph-name="U" unicode="U" horiz-adv-x="1512" 
d="M1333 1635v-1116q-1 -165 -73 -287.5t-202.5 -188t-300.5 -65.5q-258 0 -413.5 140.5t-161.5 390.5v1126h137v-1106q0 -207 118 -321t320 -114t319.5 114.5t117.5 319.5v1107h139z" />
    <glyph glyph-name="V" unicode="V" horiz-adv-x="1418" 
d="M700 202l9 -35l10 35l514 1433h152l-609 -1635h-132l-609 1635h150z" />
    <glyph glyph-name="W" unicode="W" horiz-adv-x="2062" 
d="M509 441l50 -253l62 242l355 1205h125l350 -1205l61 -245l54 256l295 1194h141l-419 -1635h-132l-371 1279l-41 162l-41 -162l-379 -1279h-133l-417 1635h141z" />
    <glyph glyph-name="X" unicode="X" horiz-adv-x="1407" 
d="M704 943l461 692h165l-542 -806l559 -829h-167l-476 714l-478 -714h-164l559 829l-542 806h165z" />
    <glyph glyph-name="Y" unicode="Y" horiz-adv-x="1377" 
d="M686 743l500 892h159l-590 -1020v-615h-138v615l-590 1020h164z" />
    <glyph glyph-name="Z" unicode="Z" horiz-adv-x="1376" 
d="M268 117h1010v-117h-1177v104l970 1413h-941v118h1112v-99z" />
    <glyph glyph-name="bracketleft" unicode="[" horiz-adv-x="551" 
d="M554 1754h-236v-1990h236v-114h-371v2219h371v-115z" />
    <glyph glyph-name="backslash" unicode="\" horiz-adv-x="906" 
d="M54 1635h131l683 -1775h-131z" />
    <glyph glyph-name="bracketright" unicode="]" horiz-adv-x="551" 
d="M0 1869h372v-2219h-372v114h237v1990h-237v115z" />
    <glyph glyph-name="asciicircum" unicode="^" horiz-adv-x="957" 
d="M473 1458l-256 -639h-131l336 816h101l335 -816h-130z" />
    <glyph glyph-name="underscore" unicode="_" horiz-adv-x="993" 
d="M991 -113h-990v113h990v-113z" />
    <glyph glyph-name="grave" unicode="`" horiz-adv-x="657" 
d="M492 1398h-123l-253 314h161z" />
    <glyph glyph-name="a" unicode="a" horiz-adv-x="1232" 
d="M942 0q-20 57 -26 170q-70 -93 -179.5 -142.5t-232.5 -49.5q-175 0 -283.5 97.5t-108.5 246.5q0 178 148 281t412 103h243v139q0 130 -80 204.5t-234 74.5q-141 0 -233 -72t-92 -173l-134 1q0 145 134.5 251.5t331.5 106.5q203 0 320.5 -102t120.5 -284v-575
q0 -176 37 -264v-13h-144zM520 97q135 0 241 65t154 174v267h-240q-201 -2 -314.5 -73.5t-113.5 -195.5q0 -103 76 -170t197 -67z" />
    <glyph glyph-name="b" unicode="b" horiz-adv-x="1275" 
d="M1153 595q0 -284 -125.5 -450.5t-337.5 -166.5q-254 0 -385 188l-5 -166h-126v1725h134v-686q128 199 379 199q216 0 341 -164.5t125 -458.5v-20zM1019 619q0 240 -93.5 371t-262.5 131q-130 0 -219.5 -63.5t-135.5 -186.5v-548q101 -229 357 -229q166 0 260 131.5
t94 393.5z" />
    <glyph glyph-name="c" unicode="c" horiz-adv-x="1185" 
d="M624 91q141 0 236 79t102 205h130q-6 -111 -70 -202.5t-170 -143t-228 -51.5q-239 0 -378.5 166t-139.5 447v40q0 180 62.5 318t180 213.5t274.5 75.5q200 0 330 -119t139 -314h-130q-9 143 -102.5 230.5t-236.5 87.5q-182 0 -282.5 -131.5t-100.5 -368.5v-39
q0 -232 100.5 -362.5t283.5 -130.5z" />
    <glyph glyph-name="d" unicode="d" horiz-adv-x="1278" 
d="M121 619q0 283 126.5 451t343.5 168q246 0 375 -195v682h133v-1725h-125l-6 162q-129 -184 -380 -184q-210 0 -338.5 169t-128.5 456v16zM257 595q0 -232 93.5 -366.5t262.5 -134.5q248 0 353 219v571q-105 237 -351 237q-169 0 -263.5 -133t-94.5 -393z" />
    <glyph glyph-name="e" unicode="e" horiz-adv-x="1188" 
d="M646 -22q-155 0 -280.5 76t-195 212.5t-69.5 306.5v48q0 175 68 315.5t189.5 221t262.5 80.5q221 0 351 -151.5t130 -412.5v-75h-867v-26q0 -207 118.5 -344.5t297.5 -137.5q108 0 190.5 39.5t150.5 125.5l84 -64q-148 -214 -430 -214zM621 1123q-152 0 -255.5 -111
t-126.5 -299h729v15q-6 175 -100 285t-247 110z" />
    <glyph glyph-name="f" unicode="f" horiz-adv-x="761" 
d="M272 0v1105h-201v110h201v147q0 187 95 287t264 100q77 0 143 -20l-10 -112q-56 14 -123 14q-111 0 -172.5 -69t-61.5 -196v-151h289v-110h-289v-1105h-135z" />
    <glyph glyph-name="g" unicode="g" horiz-adv-x="1276" 
d="M121 619q0 285 126.5 452t343.5 167q248 0 377 -198l7 175h126v-1190q0 -235 -131.5 -372t-356.5 -137q-127 0 -242 56.5t-181 151.5l75 81q143 -176 339 -176q169 0 263 99.5t98 275.5v153q-129 -179 -377 -179q-211 0 -339 168t-128 455v18zM257 595
q0 -232 93.5 -366.5t262.5 -134.5q248 0 352 223v565q-47 116 -136 177.5t-214 61.5q-169 0 -263.5 -133t-94.5 -393z" />
    <glyph glyph-name="h" unicode="h" horiz-adv-x="1262" 
d="M309 1010q66 109 169.5 168.5t225.5 59.5q196 0 291 -110.5t97 -330.5v-797h-134v798q-1 163 -69 243t-217 80q-125 0 -221 -78t-142 -211v-832h-134v1725h134v-715z" />
    <glyph glyph-name="i" unicode="i" horiz-adv-x="515" 
d="M326 0h-135v1215h135v-1215zM167 1567q0 38 25 64.5t68 26.5q42 0 67.5 -26.5t25.5 -64.5q0 -39 -25.5 -64.5t-67.5 -25.5q-43 0 -68 25.5t-25 64.5z" />
    <glyph glyph-name="j" unicode="j" horiz-adv-x="524" 
d="M320 1215v-1360q0 -168 -81 -257t-238 -89q-61 0 -118 22l2 111q50 -15 102 -15q199 0 199 230v1358h134zM254 1658q44 0 68.5 -26.5t24.5 -64.5q0 -39 -24.5 -64.5t-68.5 -25.5q-43 0 -67 25.5t-24 64.5q0 38 24 64.5t67 26.5z" />
    <glyph glyph-name="k" unicode="k" horiz-adv-x="1126" 
d="M464 612l-154 -148v-464h-135v1725h135v-1104l127 137l465 457h169l-515 -512l560 -703h-160z" />
    <glyph glyph-name="l" unicode="l" horiz-adv-x="515" 
d="M326 0h-135v1725h135v-1725z" />
    <glyph glyph-name="m" unicode="m" horiz-adv-x="2038" 
d="M298 1215l4 -198q67 111 168.5 166t224.5 55q288 0 365 -236q65 113 174 174.5t241 61.5q390 0 398 -427v-811h-135v801q-1 163 -70 241.5t-225 78.5q-145 -2 -245 -94t-111 -223v-804h-135v811q-1 156 -73.5 233t-222.5 77q-127 0 -218 -72.5t-135 -215.5v-833h-135
v1215h130z" />
    <glyph glyph-name="n" unicode="n" horiz-adv-x="1263" 
d="M303 1215l5 -208q68 113 170.5 172t225.5 59q196 0 291 -110.5t97 -330.5v-797h-134v798q-1 163 -69 243t-217 80q-125 0 -221 -78t-142 -211v-832h-134v1215h128z" />
    <glyph glyph-name="o" unicode="o" horiz-adv-x="1288" 
d="M101 626q0 175 68 315t192 218.5t281 78.5q243 0 393.5 -170.5t150.5 -450.5v-29q0 -176 -68 -317t-191.5 -217t-281.5 -76q-242 0 -393 170t-151 451v27zM236 588q0 -217 113 -357t296 -140q182 0 294.5 140t112.5 369v26q0 139 -51.5 254.5t-144.5 179t-214 63.5
q-179 0 -292.5 -141t-113.5 -369v-25z" />
    <glyph glyph-name="p" unicode="p" horiz-adv-x="1275" 
d="M1152 595q0 -284 -125.5 -450.5t-336.5 -166.5q-250 0 -382 175v-620h-134v1682h125l6 -172q132 195 381 195q218 0 342 -165.5t124 -458.5v-19zM1017 619q0 232 -95 367t-266 135q-124 0 -212.5 -59.5t-135.5 -173.5v-583q48 -104 138 -159t212 -55q170 0 264.5 135.5
t94.5 392.5z" />
    <glyph glyph-name="q" unicode="q" horiz-adv-x="1283" 
d="M121 619q0 285 126.5 452t345.5 167q246 0 374 -188l7 165h125v-1682h-134v617q-133 -172 -374 -172q-214 0 -342 168t-128 455v18zM257 595q0 -236 95 -370t263 -134q242 0 350 210v595q-51 109 -140 168t-207 59q-170 0 -265.5 -134t-95.5 -394z" />
    <glyph glyph-name="r" unicode="r" horiz-adv-x="774" 
d="M737 1101q-43 7 -91 7q-126 0 -213 -70t-124 -204v-834h-134v1215h132l2 -193q107 216 342 216q57 0 89 -15z" />
    <glyph glyph-name="s" unicode="s" horiz-adv-x="1165" 
d="M903 309q0 100 -80.5 160.5t-242 95t-251 78.5t-132.5 108t-43 155q0 144 120 238t308 94q203 0 326 -100.5t123 -262.5h-135q0 107 -89 177.5t-225 70.5q-133 0 -213 -59t-80 -153q0 -91 66.5 -141t243.5 -91.5t265 -89t131 -113.5t43 -160q0 -154 -124 -246t-324 -92
q-213 0 -345 102.5t-132 259.5h135q8 -118 99.5 -183.5t242.5 -65.5q140 0 226.5 62t86.5 156z" />
    <glyph glyph-name="t" unicode="t" horiz-adv-x="739" 
d="M384 1526v-311h252v-110h-252v-810q0 -101 36.5 -150.5t121.5 -49.5q34 0 109 12l6 -110q-53 -19 -144 -19q-138 0 -201 80t-63 236v811h-223v110h223v311h135z" />
    <glyph glyph-name="u" unicode="u" horiz-adv-x="1263" 
d="M957 154q-121 -176 -388 -176q-194 0 -295 112.5t-103 334.5v790h133v-774q0 -347 281 -347q292 0 370 242v879h134v-1215h-130z" />
    <glyph glyph-name="v" unicode="v" horiz-adv-x="1106" 
d="M554 185l369 1030h138l-453 -1215h-109l-456 1215h138z" />
    <glyph glyph-name="w" unicode="w" horiz-adv-x="1734" 
d="M466 280l20 -105l27 110l292 930h115l288 -922l32 -128l26 118l249 932h139l-354 -1215h-114l-312 964l-15 66l-14 -68l-307 -962h-115l-352 1215h138z" />
    <glyph glyph-name="x" unicode="x" horiz-adv-x="1119" 
d="M557 722l328 493h159l-412 -596l430 -619h-158l-346 514l-346 -514h-158l429 619l-412 596h158z" />
    <glyph glyph-name="y" unicode="y" horiz-adv-x="1093" 
d="M560 193l355 1022h145l-519 -1422l-27 -63q-100 -221 -308 -221q-49 0 -104 16l-1 111l70 -7q99 0 160 49t104 168l59 164l-458 1205h147z" />
    <glyph glyph-name="z" unicode="z" horiz-adv-x="1119" 
d="M264 113h789v-113h-955v99l736 1000h-714v116h884v-100z" />
    <glyph glyph-name="braceleft" unicode="{" horiz-adv-x="759" 
d="M715 -454q-188 56 -283.5 183t-95.5 337v248q0 296 -260 296v117q260 0 260 293v257q1 205 95.5 332t283.5 185l30 -89q-274 -88 -274 -439v-240q0 -276 -207 -358q207 -86 207 -357v-256q4 -328 277 -419z" />
    <glyph glyph-name="bar" unicode="|" horiz-adv-x="508" 
d="M313 -303h-113v1938h113v-1938z" />
    <glyph glyph-name="braceright" unicode="}" horiz-adv-x="759" 
d="M10 -364q273 91 278 419v252q0 284 216 360q-216 76 -216 358v240q0 354 -275 440l30 89q192 -58 285.5 -186.5t93.5 -337.5v-250q0 -293 260 -293v-117q-260 0 -260 -296v-248q0 -210 -95.5 -337t-283.5 -183z" />
    <glyph glyph-name="asciitilde" unicode="~" horiz-adv-x="1575" 
d="M1408 858q0 -167 -93.5 -275t-238.5 -108q-81 0 -151 31t-172.5 121.5t-152 113.5t-105.5 23q-100 0 -155.5 -66.5t-55.5 -192.5l-121 -1q0 168 91 274t241 106q83 0 158 -35t178 -127q75 -71 129 -99.5t116 -28.5q99 0 157.5 71t58.5 193h116z" />
    <glyph glyph-name="exclamdown" unicode="&#xa1;" horiz-adv-x="508" 
d="M195 775h125l8 -1178h-139zM343 1148q0 -38 -25 -64t-67 -26q-43 0 -68.5 26t-25.5 64t25.5 64t68.5 26q42 0 67 -26t25 -64z" />
    <glyph glyph-name="cent" unicode="&#xa2;" horiz-adv-x="1252" 
d="M652 91q139 0 233.5 78t105.5 206h129q-9 -156 -124.5 -266t-281.5 -128v-256h-135v257q-207 26 -326 186.5t-119 422.5v40q0 249 118.5 412.5t326.5 189.5v247h135v-246q174 -18 286.5 -136t119.5 -293h-129q-9 143 -103 230.5t-237 87.5q-182 0 -282.5 -131.5
t-100.5 -368.5v-39q0 -232 100.5 -362.5t283.5 -130.5z" />
    <glyph glyph-name="sterling" unicode="&#xa3;" horiz-adv-x="1314" 
d="M454 724l10 -311v-10q0 -188 -72 -286h837v-117h-1120v117h110q57 14 86 120q21 76 21 160v15l-10 312h-212v117h207l-10 326q0 224 124 357.5t332 133.5q204 0 322.5 -118.5t118.5 -317.5h-138q0 151 -84 234.5t-229 83.5q-141 0 -224 -99.5t-83 -273.5l10 -326h387
v-117h-383z" />
    <glyph glyph-name="currency" unicode="&#xa4;" horiz-adv-x="1663" 
d="M1270 149q-87 -80 -199.5 -125.5t-239.5 -45.5q-254 0 -439 170l-174 -177l-96 96l179 181q-139 189 -139 435q0 255 149 447l-189 192l96 98l187 -191q186 157 426 157t426 -160l191 195l96 -99l-192 -197q146 -191 146 -442q0 -242 -137 -431l183 -185l-96 -97z
M289 683q0 -155 72 -290t199 -213t271 -78q145 0 270.5 78.5t197.5 213t72 289.5q0 156 -73.5 290t-198 210.5t-268.5 76.5t-269.5 -76.5t-199 -210.5t-73.5 -290z" />
    <glyph glyph-name="yen" unicode="&#xa5;" horiz-adv-x="1373" 
d="M682 824l472 811h161l-509 -843h413v-100h-470v-229h470v-99h-470v-364h-138v364h-465v99h465v229h-465v100h411l-508 843h161z" />
    <glyph glyph-name="brokenbar" unicode="&#xa6;" horiz-adv-x="499" 
d="M179 -303v866h134v-866h-134zM313 784h-134v851h134v-851z" />
    <glyph glyph-name="section" unicode="&#xa7;" horiz-adv-x="1391" 
d="M1257 484q0 -112 -69 -190t-192 -115q102 -54 156.5 -133t54.5 -202q0 -184 -141.5 -292t-384.5 -108q-123 0 -231.5 31.5t-184.5 95.5q-150 128 -150 357l134 2q0 -175 116.5 -273t315.5 -98q179 0 284.5 78t105.5 205q0 86 -38.5 139t-128.5 96.5t-288.5 97.5
t-296.5 112t-148 138t-50 194q0 112 66 191t185 117q-97 52 -148.5 131t-51.5 200q0 181 145 290.5t384 109.5q251 0 391 -127t140 -357h-135q0 164 -107.5 266.5t-288.5 102.5q-186 0 -290 -77t-104 -206q0 -89 34.5 -141.5t120 -95.5t263.5 -93q221 -57 327 -115
t155.5 -138t49.5 -193zM510 866q-121 -15 -187.5 -80t-66.5 -165q0 -93 40 -147t130.5 -96.5t318.5 -105.5l103 -32q126 15 200 79.5t74 161.5q0 110 -75.5 176t-269.5 129z" />
    <glyph glyph-name="dieresis" unicode="&#xa8;" horiz-adv-x="989" 
d="M161 1568q0 38 24 64.5t68 26.5q42 0 67.5 -26.5t25.5 -64.5q0 -37 -25.5 -63t-67.5 -26q-44 0 -68 26t-24 63zM651 1567q0 38 25 64.5t67 26.5q44 0 69 -26.5t25 -64.5q0 -37 -25 -63t-69 -26q-42 0 -67 26t-25 63z" />
    <glyph glyph-name="copyright" unicode="&#xa9;" horiz-adv-x="1838" 
d="M1259 682q0 -171 -92 -262t-260 -91q-169 0 -272 119t-103 322v101q0 196 103.5 315.5t271.5 119.5q167 0 260 -90.5t93 -260.5h-111q0 251 -243 251q-119 0 -190.5 -91t-71.5 -249v-102q0 -151 70.5 -242.5t191.5 -91.5q119 0 180.5 59.5t61.5 192.5h111zM216 819
q0 -198 91.5 -371t256.5 -274t354 -101q187 0 350 100t256.5 272.5t93.5 373.5q0 200 -93 371t-256.5 270.5t-350.5 99.5q-193 0 -358 -102t-254.5 -273t-89.5 -366zM120 819q0 227 105 421t291 306t402 112q215 0 400.5 -112t290.5 -306t105 -421q0 -222 -101 -415
t-287 -310.5t-408 -117.5t-407.5 116.5t-288 309.5t-102.5 417z" />
    <glyph glyph-name="ordfeminine" unicode="&#xaa;" horiz-adv-x="1017" 
d="M729 792q-17 48 -24 105q-97 -121 -249 -121q-131 0 -205.5 65.5t-74.5 178.5q0 123 94 191.5t276 68.5h156v69q0 95 -45 148t-136 53q-101 0 -159 -40t-58 -121l-120 7q0 114 93.5 188t243.5 74q139 0 221 -80.5t82 -230.5v-354q0 -104 30 -201h-125zM478 883
q60 0 124.5 33.5t99.5 83.5v188h-145q-258 0 -258 -164q0 -141 179 -141z" />
    <glyph glyph-name="guillemotleft" unicode="&#xab;" horiz-adv-x="900" 
d="M482 977l-8 -10q-7 -10 -19 -27.5t-27 -42.5t-30 -57q-14 -28 -29 -64t-26.5 -79t-19 -91t-7.5 -99q0 -52 7.5 -100t19 -90t26.5 -78.5t29 -64.5q15 -32 30 -56.5t27 -41.5q13 -21 26 -37l-100 -83q-3 4 -33.5 46t-67 115t-65.5 172t-29 218q0 78 14 149t35 131t45.5 110
t47 85t37 55t16.5 22zM751 873l-20 -29q-21 -28 -45 -77.5t-44 -116t-20 -143.5q0 -78 20 -144.5t44 -115t44.5 -76t20.5 -29.5l-99 -83q-3 4 -28 38.5t-54.5 93.5t-53.5 140t-24 176q0 96 24 176.5t53.5 140.5t54.5 94.5t28 37.5z" />
    <glyph glyph-name="logicalnot" unicode="&#xac;" horiz-adv-x="1254" 
d="M1051 433h-135v319h-777v119h912v-438z" />
    <glyph glyph-name="softhyphen" unicode="&#xad;" horiz-adv-x="658" 
d="M593 665h-538v113h538v-113z" />
    <glyph glyph-name="registered" unicode="&#xae;" horiz-adv-x="1844" 
d="M115 819q0 227 105 421t290.5 306t401.5 112t401.5 -112t290.5 -306t105 -421q0 -224 -102 -417t-288 -309.5t-407 -116.5t-407 116.5t-288 309.5t-102 417zM210 819q0 -201 94 -374t257 -272.5t351 -99.5q187 0 351 99.5t257 273t93 373.5q0 197 -91 368t-254.5 272
t-355.5 101q-189 0 -352.5 -99.5t-256.5 -270.5t-93 -371zM730 748v-388h-110v943h290q165 0 253.5 -69t88.5 -210q0 -149 -158 -221q81 -29 112.5 -90.5t31.5 -146.5t4.5 -123.5t14.5 -64.5v-18h-115q-16 41 -16 205q0 100 -42 141.5t-143 41.5h-211zM730 850h203
q91 0 150 47t59 125q0 95 -49 136t-168 44h-195v-352z" />
    <glyph glyph-name="macron" unicode="&#xaf;" horiz-adv-x="982" 
d="M871 1526h-752v109h752v-109z" />
    <glyph glyph-name="degree" unicode="&#xb0;" horiz-adv-x="869" 
d="M708 1377q0 -117 -80 -196.5t-192 -79.5q-114 0 -194.5 80t-80.5 196t82 198.5t193 82.5t191.5 -82.5t80.5 -198.5zM262 1377q0 -75 50 -124.5t124 -49.5t122 49.5t48 124.5q0 77 -48 127.5t-122 50.5q-73 0 -123.5 -50.5t-50.5 -127.5z" />
    <glyph glyph-name="plusminus" unicode="&#xb1;" horiz-adv-x="1219" 
d="M684 931h439v-115h-439v-491h-125v491h-465v115h465v492h125v-492zM1081 0h-937v113h937v-113z" />
    <glyph glyph-name="twosuperior" unicode="&#xb2;" horiz-adv-x="831" 
d="M749 747h-641v84l359 353q119 123 119 205q0 71 -45.5 114t-133.5 43q-98 0 -151 -50t-53 -131h-118q0 121 89 200.5t231 79.5q141 0 220.5 -69.5t79.5 -184.5q0 -113 -132 -250l-62 -62l-254 -234h492v-98z" />
    <glyph glyph-name="threesuperior" unicode="&#xb3;" horiz-adv-x="831" 
d="M300 1243h96q91 2 144.5 42.5t53.5 108.5q0 69 -48 110.5t-139 41.5q-86 0 -140 -41.5t-54 -106.5h-118q0 108 88.5 177.5t221.5 69.5q144 0 226 -67.5t82 -181.5q0 -63 -42.5 -116t-121.5 -79q182 -48 182 -213q0 -114 -88.5 -184t-234.5 -70q-145 0 -236.5 71.5
t-91.5 187.5h119q0 -70 59 -115.5t153 -45.5q98 0 150 43t52 117q0 159 -231 159h-82v92z" />
    <glyph glyph-name="acute" unicode="&#xb4;" horiz-adv-x="647" 
d="M354 1712h163l-260 -314h-118z" />
    <glyph glyph-name="mu" unicode="&#xb5;" horiz-adv-x="1280" 
d="M316 1215v-714q0 -202 70.5 -306t224.5 -104q148 0 234.5 64.5t119.5 194.5v865h134v-1215h-122l-8 173q-110 -195 -349 -195q-207 0 -304 140v-585h-134v1682h134z" />
    <glyph glyph-name="paragraph" unicode="&#xb6;" horiz-adv-x="1093" 
d="M765 0v584h-121q-169 0 -293.5 65t-191 184.5t-66.5 276.5q0 239 149.5 382t405.5 143h252v-1635h-135z" />
    <glyph glyph-name="periodcentered" unicode="&#xb7;" horiz-adv-x="565" 
d="M183 805q0 40 24.5 66.5t69.5 26.5t71 -26.5t26 -65.5q0 -40 -26 -66.5t-71 -26.5t-69.5 26.5t-24.5 65.5z" />
    <glyph glyph-name="cedilla" unicode="&#xb8;" horiz-adv-x="559" 
d="M276 0l-13 -72q185 -23 185 -192q0 -103 -88.5 -164t-241.5 -61l-8 88q100 0 163.5 36.5t63.5 98.5q0 65 -49 89.5t-149 33.5l33 143h104z" />
    <glyph glyph-name="onesuperior" unicode="&#xb9;" horiz-adv-x="831" 
d="M521 751h-119v745l-260 -79v101l363 121h16v-888z" />
    <glyph glyph-name="ordmasculine" unicode="&#xba;" horiz-adv-x="1035" 
d="M152 1271q0 172 99 279.5t263 107.5q165 0 264.5 -107.5t99.5 -284.5v-106q0 -172 -98.5 -278.5t-262.5 -106.5q-165 0 -265 106t-100 285v105zM273 1160q0 -128 63.5 -203t180.5 -75q111 0 175.5 74t64.5 209v106q0 129 -65 204t-177 75q-113 0 -177.5 -76.5
t-64.5 -207.5v-106z" />
    <glyph glyph-name="guillemotright" unicode="&#xbb;" horiz-adv-x="900" 
d="M455 977l101 82q2 -2 16.5 -22t37 -55t47 -85t45.5 -110t35 -131t14 -149q0 -119 -29 -218t-65.5 -172t-67 -115t-33.5 -46l-100 83q13 16 26 37q12 17 27 41.5t30 56.5q14 28 29 64.5t26.5 78.5t19 90t7.5 100q0 51 -7.5 99t-19 91t-26.5 79t-29 64q-15 32 -30 57
t-27 42.5t-19 27.5zM186 873l99 83q3 -3 28 -37.5t54 -94.5t53 -140.5t24 -176.5q0 -95 -24 -176t-53 -140t-54 -93.5t-28 -38.5l-99 83q0 2 20.5 29.5t44.5 76t43.5 115t19.5 144.5q0 77 -19.5 143.5t-43.5 116t-45 77.5z" />
    <glyph glyph-name="onequarter" unicode="&#xbc;" horiz-adv-x="1667" 
d="M509 746h-119v744l-261 -78v101l364 120h16v-887zM465 145l-83 54l798 1278l83 -54zM1429 309h142v-99h-142v-210h-118v210h-448l-5 74l446 602h125v-577zM986 309h325v431l-35 -56z" />
    <glyph glyph-name="onehalf" unicode="&#xbd;" horiz-adv-x="1738" 
d="M416 145l-84 54l799 1278l83 -54zM492 746h-119v744l-261 -78v101l364 120h16v-887zM1613 0h-642v84l360 353q119 123 119 205q0 71 -45.5 114.5t-134.5 43.5q-98 0 -150.5 -50t-52.5 -132h-118q0 121 88.5 200.5t230.5 79.5q141 0 221 -69.5t80 -183.5t-133 -251
l-61 -62l-254 -234h492v-98z" />
    <glyph glyph-name="threequarters" unicode="&#xbe;" horiz-adv-x="1786" 
d="M627 145l-83 54l798 1278l83 -54zM1558 309h142v-99h-142v-210h-118v210h-448l-5 74l446 602h125v-577zM1115 309h325v431l-35 -56zM353 1243h96q91 2 144.5 42.5t53.5 108.5q0 69 -48.5 110.5t-139.5 41.5q-85 0 -139 -41.5t-54 -106.5h-118q0 108 88.5 177.5
t221.5 69.5q144 0 226 -67.5t82 -181.5q0 -63 -42.5 -116t-121.5 -79q182 -48 182 -213q0 -114 -89 -184t-235 -70q-144 0 -235.5 71.5t-91.5 187.5h119q0 -70 58.5 -115.5t153.5 -45.5q98 0 150 43t52 117q0 159 -231 159h-82v92z" />
    <glyph glyph-name="questiondown" unicode="&#xbf;" horiz-adv-x="1056" 
d="M619 772q-2 -139 -30.5 -205t-134 -171.5t-131.5 -139.5q-91 -118 -91 -265q0 -145 75.5 -223.5t219.5 -78.5q133 0 213 78.5t82 210.5h135q-2 -187 -120 -297.5t-310 -110.5q-200 0 -314 112t-114 307q0 124 59.5 237.5t219.5 265.5q96 80 104 202l2 78h135zM637 1148
q0 -38 -25 -64.5t-67 -26.5q-43 0 -68.5 26.5t-25.5 64.5q0 37 25.5 62.5t68.5 25.5q42 0 67 -25.5t25 -62.5z" />
    <glyph glyph-name="AE" unicode="&#xc6;" horiz-adv-x="2094" 
d="M2047 0h-917l-19 437h-670l-258 -437h-164l989 1635h971v-114h-780l26 -612h662v-115h-657l29 -681h788v-113zM517 564h589l-39 931z" />
    <glyph glyph-name="multiply" unicode="&#xd7;" horiz-adv-x="1204" 
d="M104 201l402 410l-385 393l89 90l384 -393l385 393l89 -90l-385 -393l402 -410l-89 -89l-402 409l-401 -409z" />
    <glyph glyph-name="Oslash" unicode="&#xd8;" horiz-adv-x="1557" 
d="M1415 729q0 -226 -78 -396.5t-223 -262.5t-335 -92q-208 0 -358 108l-113 -179h-117l154 243q-205 207 -205 589v165q0 224 79.5 396t224 265t333.5 93q252 0 418 -158l120 190h116l-168 -266q151 -202 152 -518v-177zM279 729q0 -293 137 -465l709 1125
q-133 147 -348 147q-228 0 -363 -167.5t-135 -468.5v-171zM1277 906q0 237 -90 397l-700 -1111q121 -94 292 -94q235 0 366.5 167.5t131.5 467.5v173z" />
    <glyph glyph-name="Thorn" unicode="&#xde;" horiz-adv-x="1363" 
d="M340 1635v-341h365q161 0 280 -57.5t182.5 -163.5t63.5 -244q0 -208 -137 -334.5t-374 -130.5h-380v-364h-134v1635h134zM340 1180v-703h364q176 0 284 96t108 254q0 157 -102.5 253t-272.5 100h-381z" />
    <glyph glyph-name="germandbls" unicode="&#xdf;" horiz-adv-x="1348" 
d="M304 0h-134v1266q0 224 107 346t298 122q172 0 279 -95t107 -250q0 -65 -15 -119t-55 -126.5t-54 -118.5t-14 -100q0 -62 46.5 -120.5t154 -138.5t157.5 -157t50 -165q0 -164 -119 -265t-303 -101q-95 0 -197 26.5t-147 62.5l38 114q42 -33 128.5 -62t161.5 -29
q137 0 220 72t83 182q0 68 -49.5 131.5t-152 139t-154.5 151t-52 162.5q0 107 71 233t71 220q0 105 -71 171.5t-173 66.5q-277 0 -282 -343v-1276z" />
    <glyph glyph-name="ae" unicode="&#xe6;" horiz-adv-x="1945" 
d="M1421 -22q-156 0 -268 61t-179 170q-68 -110 -196 -170.5t-284 -60.5q-190 0 -294.5 94.5t-104.5 256.5q0 176 124.5 276.5t354.5 104.5h303v99q0 148 -71.5 231t-212.5 83q-146 0 -239 -73t-93 -191l-134 15q0 161 131 262.5t335 101.5q140 0 239.5 -60.5t144.5 -179.5
q67 113 173.5 176.5t236.5 63.5q220 0 346.5 -135.5t128.5 -379.5v-119h-850v-32q0 -226 107.5 -353.5t301.5 -127.5q207 0 364 132l52 -97q-163 -148 -416 -148zM514 90q103 0 208 51.5t155 123.5v337h-287q-154 0 -250.5 -68.5t-107.5 -186.5l-1 -22q0 -109 73.5 -172
t209.5 -63zM1387 1123q-148 0 -249 -110t-123 -299h713v35q0 173 -90 273.5t-251 100.5z" />
    <glyph glyph-name="eth" unicode="&#xf0;" horiz-adv-x="1338" 
d="M911 1463q267 -280 274 -739v-123q0 -179 -63 -322t-176.5 -222t-254.5 -79q-146 0 -265 69t-189 196.5t-70 279.5q0 258 134.5 409.5t357.5 151.5q113 0 210 -43.5t163 -118.5q-47 282 -236 471l-252 -157l-58 82l232 144q-154 119 -386 194l44 116q272 -81 460 -238
l217 136l58 -82zM1050 702l-2 64q-44 93 -141.5 147t-222.5 54q-181 0 -281.5 -118t-100.5 -326q0 -115 50.5 -215.5t140 -157.5t202.5 -57q159 0 257 140t98 377v92z" />
    <glyph glyph-name="divide" unicode="&#xf7;" horiz-adv-x="1307" 
d="M1202 723h-1121v131h1121v-131zM556 1222q0 39 24.5 66t69.5 27t71 -27t26 -66t-26 -65.5t-71 -26.5t-69.5 26.5t-24.5 65.5zM556 327q0 39 24.5 66t69.5 27t71 -27t26 -66t-26 -65t-71 -26t-69.5 26t-24.5 65z" />
    <glyph glyph-name="oslash" unicode="&#xf8;" horiz-adv-x="1280" 
d="M100 626q0 175 68 315t192 218.5t281 78.5q128 0 241 -54l87 179h106l-113 -229q106 -81 164.5 -212t58.5 -296v-38q0 -175 -68.5 -316.5t-192 -217.5t-280.5 -76q-122 0 -225 46l-89 -181h-105l111 228q-113 79 -174.5 213t-61.5 304v38zM234 588q0 -123 39.5 -229.5
t117.5 -175.5l437 892q-85 48 -187 48q-181 0 -294 -141t-113 -369v-25zM1050 626q0 115 -37 217.5t-108 172.5l-434 -887q76 -38 173 -38q180 0 293 140t113 369v26z" />
    <glyph glyph-name="thorn" unicode="&#xfe;" horiz-adv-x="1292" 
d="M1158 595q0 -284 -126 -450.5t-338 -166.5q-248 0 -381 175v-620h-134v2192h134v-678q132 191 379 191q215 0 340.5 -164.5t125.5 -458.5v-20zM1023 619q0 232 -95.5 367t-266.5 135q-123 0 -212 -59.5t-136 -173.5v-585q47 -101 136 -156.5t215 -55.5q169 0 264 135.5
t95 392.5z" />
    <glyph glyph-name="uni02BC" unicode="&#x2bc;" horiz-adv-x="409" 
d="M149 1234l-79 59q101 136 104 285v147h133v-113q0 -235 -158 -378z" />
    <glyph glyph-name="circumflex" unicode="&#x2c6;" horiz-adv-x="988" 
d="M803 1424v-11h-125l-188 205l-188 -205h-122v14l267 287h85z" />
    <glyph glyph-name="caron" unicode="&#x2c7;" horiz-adv-x="939" 
d="M468 1489l193 218h120v-13l-266 -294h-96l-264 295v12h120z" />
    <glyph glyph-name="uni02C9" unicode="&#x2c9;" horiz-adv-x="983" 
d="M871 1526h-752v109h752v-109z" />
    <glyph glyph-name="breve" unicode="&#x2d8;" horiz-adv-x="971" 
d="M804 1673q0 -129 -88 -208.5t-236 -79.5q-146 0 -235.5 79t-89.5 209h115q0 -93 55.5 -142.5t154.5 -49.5q98 0 154 52t56 140h114z" />
    <glyph glyph-name="dotaccent" unicode="&#x2d9;" horiz-adv-x="515" 
d="M166 1552q0 38 25 64.5t67 26.5q44 0 69 -26.5t25 -64.5q0 -37 -25 -63t-69 -26q-42 0 -67 26t-25 63z" />
    <glyph glyph-name="ring" unicode="&#x2da;" horiz-adv-x="713" 
d="M131 1567q0 89 63.5 151t153.5 62q89 0 153 -62t64 -151t-62 -149.5t-155 -60.5t-155 60.5t-62 149.5zM218 1567q0 -57 37 -94t93 -37q55 0 93.5 36.5t38.5 94.5q0 59 -39.5 96t-92.5 37q-55 0 -92.5 -38t-37.5 -95z" />
    <glyph glyph-name="ogonek" unicode="&#x2db;" horiz-adv-x="575" 
d="M390 0q-118 -90 -159.5 -149t-41.5 -114q0 -94 95 -94q61 0 118 37l17 -94q-73 -50 -161 -50q-90 0 -140.5 50t-50.5 140q0 83 70 166.5t186 149.5z" />
    <glyph glyph-name="tilde" unicode="&#x2dc;" horiz-adv-x="1001" 
d="M875 1668q0 -108 -63.5 -173.5t-155.5 -65.5q-85 0 -166.5 61.5t-145.5 61.5q-53 0 -88.5 -35t-35.5 -97l-101 3q0 103 61 170.5t158 67.5q54 0 92 -19t72 -42.5t68 -43t80 -19.5q52 0 88.5 37.5t36.5 99.5z" />
    <glyph glyph-name="hungarumlaut" unicode="&#x2dd;" horiz-adv-x="868" 
d="M711 1724h162l-314 -340h-136zM363 1724h154l-260 -340h-122z" />
    <glyph glyph-name="uni02F3" unicode="&#x2f3;" horiz-adv-x="699" 
d="M176 -258q0 68 50.5 114t122.5 46q71 0 120.5 -46.5t49.5 -113.5t-49.5 -111.5t-119.5 -44.5q-71 0 -122.5 44t-51.5 112zM258 -258q0 -35 26.5 -57.5t64.5 -22.5t64 22.5t26 57.5q0 36 -26 59.5t-64 23.5t-64.5 -23.5t-26.5 -59.5z" />
    <glyph glyph-name="gravecomb" unicode="&#x300;" 
d="M-522 1398h-123l-253 314h162z" />
    <glyph glyph-name="acutecomb" unicode="&#x301;" 
d="M-476 1712h163l-261 -314h-117z" />
    <glyph glyph-name="tildecomb" unicode="&#x303;" 
d="M-203 1668q0 -108 -63.5 -173.5t-155.5 -65.5q-86 0 -167 61.5t-145 61.5q-53 0 -88.5 -35t-35.5 -97l-101 3q0 103 61 170.5t158 67.5q54 0 92 -19t72 -42.5t68 -43t80 -19.5q52 0 88.5 37.5t36.5 99.5z" />
    <glyph glyph-name="hookabovecomb" unicode="&#x309;" 
d="M-702 1386v140q98 8 143 30t45 76q0 50 -61.5 78t-164.5 28l8 87q154 0 242 -53t88 -141q0 -74 -51 -121t-147 -55l-1 -69h-101z" />
    <glyph glyph-name="uni030F" unicode="&#x30f;" 
d="M-622 1406h-136l-339 299h172zM-349 1406h-123l-280 299h158z" />
    <glyph glyph-name="dotbelowcomb" unicode="&#x323;" 
d="M-755 -259q0 38 25 64.5t67 26.5q44 0 69 -26.5t25 -64.5q0 -37 -25 -63t-69 -26q-42 0 -67 26t-25 63z" />
    <glyph glyph-name="uni060C" unicode="&#x60c;" horiz-adv-x="630" 
d="M546 150q-2 -30 -16 -55.5t-36.5 -44t-50.5 -29t-58 -10.5q-45 0 -79 17.5t-57 47.5t-34.5 69.5t-11.5 82.5q0 115 56 211.5t172 180.5q17 -11 32.5 -24t41.5 -35q-85 -66 -133.5 -142.5t-48.5 -156.5q24 14 44.5 20.5t37.5 6.5q27 0 53 -10t46 -28t32 -43q10 -24 10 -53
v-5z" />
    <glyph glyph-name="uni0615" unicode="&#x615;" 
d="M-74 1206q-53 2 -96.5 6.5t-81 11.5t-72 17t-70.5 24q7 17 14 32.5t14 32.5q50 -20 108 -33l60 81q6 39 9 69t3 62q0 28 -2 59t-5 73q-3 32 -5.5 59t-5 52t-5.5 48.5t-6 49.5l72 14l3 -22q2 -23 5 -55.5t6.5 -68.5t5.5 -64q2 -26 3.5 -40.5t2 -24.5t1 -19t0.5 -22
q0 -11 0.5 -33.5t1.5 -45.5q33 30 62 52.5t57 38.5t55.5 24t57.5 8q28 0 57 -8.5t52 -25.5t38 -41.5t17 -55.5q1 -7 1 -15q0 -14 -4 -32.5t-13 -38.5t-20.5 -36.5t-23.5 -28.5q-36 -35 -75 -56t-77.5 -31.5t-75 -13.5t-68.5 -3zM-180 1284q15 -2 29.5 -3.5t23.5 -1.5
q14 -1 27.5 -1h27.5q27 0 57.5 4t62.5 14t64 25.5t61 39.5q19 17 28.5 38t9.5 40t-7.5 35.5t-22 28t-34.5 16.5q-11 3 -24 3q-10 0 -21 -2q-46 -7 -98.5 -43.5t-111.5 -102.5z" />
    <glyph glyph-name="uni061B" unicode="&#x61b;" horiz-adv-x="512" 
d="M364 125q0 -23 -9.5 -43.5t-25 -36t-36.5 -24.5t-44 -9t-44 9t-37 24.5t-25 36t-9 43.5t9 44t25 36.5t37 25t44 9.5t44 -9.5t36.5 -25t25 -36.5t9.5 -44zM417 570q0 -31 -14.5 -56.5t-37.5 -43.5t-52 -28t-57 -10q-45 0 -79.5 19t-57 49.5t-34 69.5t-11.5 79
q0 226 174 342q17 -11 32.5 -24t41.5 -35q-128 -89 -128 -248q51 33 94 33q25 0 48.5 -9.5t41.5 -28.5t28.5 -46t10.5 -63z" />
    <glyph glyph-name="uni061F" unicode="&#x61f;" horiz-adv-x="1024" 
d="M355 1041q47 -37 93 -73t94 -71q93 -107 93 -299v-123h-146v123q0 145 -113 246l-51 42q-36 30 -72.5 61t-73.5 60l3 -2q-99 105 -99 265q0 157 136 269v-1q133 109 294 109q94 0 170.5 -32.5t131.5 -90.5q48 -57 76.5 -136t32.5 -170h-146q-9 282 -265 282
q-45 0 -93 -17.5t-86 -44.5q-40 -35 -64.5 -78t-24.5 -89q0 -72 26.5 -128.5t83.5 -101.5zM713 155l-149 -149l-141 141l148 150zM543 897h-1q-2 2 -2 3z" />
    <glyph glyph-name="uni0640" unicode="&#x640;" horiz-adv-x="907" 
d="M927 176v-156h-947v156h947z" />
    <glyph glyph-name="uni064B" unicode="&#x64b;" 
d="M296 2074l-577 -228v98l577 220v-90zM296 1816l-577 -228v98l577 220v-90z" />
    <glyph glyph-name="uni064C" unicode="&#x64c;" 
d="M-151 1569q7 11 14.5 29t11.5 39q2 16 2 32q0 6 -0.5 19.5t-10.5 33.5t-27 25q-8 2 -15 2q-10 0 -24.5 -4t-33 -15.5t-32.5 -22.5l-54 55q24 27 57 45t68 23q9 1 18 1q25 0 52.5 -10t51.5 -41q14 -19 20 -46t6.5 -53t-1.5 -47t-3 -28q50 20 101.5 47.5t96.5 60.5
q-31 16 -66.5 32.5t-66 39t-51 54t-20.5 76.5t24 83.5t61.5 64t82.5 32.5q13 2 25 2q32 0 62 -13q42 -23 64.5 -62t29.5 -85q4 -25 4 -50q0 -22 -4.5 -57t-19.5 -77l35 -13l-26 -75q-9 2 -21.5 7.5t-28.5 12.5q-33 -35 -74.5 -63.5t-84.5 -51t-85 -39.5t-76 -29zM25 1949
q-2 -3 -4 -15q-1 -6 -1 -12q0 -8 3 -21.5t18 -33t49 -37.5l107 -50q8 21 15 54q5 28 5 58q0 5 -1 24.5t-13 49.5t-41 46q-15 7 -31 7q-5 0 -18 -2.5t-32.5 -13t-34.5 -25.5t-21 -29z" />
    <glyph glyph-name="uni064D" unicode="&#x64d;" 
d="M305 -347l-577 -228v98l577 220v-90zM305 -605l-577 -228v98l577 220v-90z" />
    <glyph glyph-name="uni064E" unicode="&#x64e;" 
d="M307 1805l-577 -228v98l577 220v-90z" />
    <glyph glyph-name="uni064F" unicode="&#x64f;" 
d="M-268 1604q27 8 67.5 22.5t85.5 34t91.5 44.5t86.5 55q-31 16 -66.5 32.5t-66 39t-51 54t-20.5 76.5t24 83.5t61.5 64t82.5 32.5q13 2 25 2q32 0 62 -13q42 -23 64.5 -62t29.5 -85q4 -25 4 -50q0 -22 -4.5 -57t-19.5 -77l35 -13l-26 -75q-9 2 -21.5 7.5t-28.5 12.5
q-42 -44 -100 -79t-115 -61t-105.5 -42.5t-71.5 -23.5zM-59 1995q-2 -3 -4 -15q-1 -6 -1 -12q0 -8 3 -21.5t18 -33t49 -37.5l107 -50q8 21 15 54q5 28 5 58q0 5 -1 24.5t-13 49.5t-41 46q-15 7 -31 7q-5 0 -18 -2.5t-32.5 -13t-34.5 -25.5t-21 -29z" />
    <glyph glyph-name="uni0650" unicode="&#x650;" 
d="M300 -354l-577 -228v98l577 220v-90z" />
    <glyph glyph-name="uni0651" unicode="&#x651;" 
d="M-146 1683q-76 3 -122 45.5t-46 114.5q0 43 11.5 81.5t21.5 57.5q18 -9 35 -16t34 -15q-9 -23 -16.5 -52.5t-7.5 -56.5q0 -45 27 -63.5t66 -18.5q36 0 57 19t31.5 47.5t13.5 60.5t3 58q0 10 -0.5 16t-0.5 13l66 18q4 -63 17.5 -105t30 -66.5t34 -35t29.5 -10.5
q36 4 55 21t25 42q4 15 4 32q0 12 -3 33t-13.5 51t-24 58t-26.5 48q16 12 32 22t31 20q9 -15 23 -39.5t27 -54.5t23 -63.5t11 -65.5v-7q0 -39 -12 -70.5t-35 -54.5t-54.5 -35t-67.5 -12q-26 0 -60 13t-67 56q-29 -42 -65.5 -64t-86.5 -22z" />
    <glyph glyph-name="uni0652" unicode="&#x652;" 
d="M1 1755q27 0 52 13t44.5 34.5t30.5 50.5q9 24 9 50v10q-1 26 -10 54t-26 51t-42 37.5t-58 14.5q-31 0 -56 -15t-43 -38.5t-28 -51t-10 -52.5q0 -28 11.5 -56t30 -50.5t43.5 -37t52 -14.5zM1 2155q49 0 89 -22t68.5 -57t45 -78t18.5 -85v-5q0 -43 -16.5 -86t-46.5 -77
t-71 -54.5t-87 -20.5h-5q-47 0 -87 20.5t-69 55.5t-44.5 79t-15.5 88q0 42 15.5 85t44.5 78t70 57t91 22z" />
    <glyph glyph-name="uni0653" unicode="&#x653;" 
d="M-339 1547q11 41 34.5 79t55.5 67t70 46.5t77 17.5q42 0 77.5 -10.5t64.5 -23.5q27 -11 56 -19.5t59 -9.5h7q19 0 39.5 9.5t40 24.5t34.5 31t24 27q25 -16 49.5 -32.5t48.5 -31.5q-6 -9 -25.5 -34t-52 -50.5t-75.5 -45.5q-39 -18 -86 -18h-9q-44 0 -81 11t-69 24
q-33 13 -63 22q-20 6 -40 6q-11 0 -22 -2q-18 -3 -34 -17t-29 -32.5t-22 -39t-15 -35.5z" />
    <glyph glyph-name="uni0654" unicode="&#x654;" 
d="M108 1984q-42 6 -84 10q-8 1 -15 1q-35 0 -69 -15q-25 -11 -44 -29.5t-29.5 -41.5t-11.5 -48v-8q0 -21 9 -41t24 -37.5t35.5 -30.5t44 -21t48.5 -8q12 0 24 1.5t26 6.5q19 7 42 18.5t44.5 23t38.5 21.5t24 16l53 -69q-42 -29 -106 -65t-154 -86l-244 -135q-12 22 -21 39
t-21 38l210 117q-55 18 -94.5 56.5t-56.5 80.5q-14 36 -14 72q0 7 1 31.5t18.5 63.5t49 69.5t72.5 47.5q52 20 105 20q39 0 72.5 -6.5t48.5 -11.5z" />
    <glyph glyph-name="uni0655" unicode="&#x655;" 
d="M125 -221q-42 6 -84 10q-8 1 -15 1q-35 0 -69 -15q-25 -11 -44 -29.5t-29.5 -41.5t-11.5 -48v-8q0 -21 9 -41t24 -37.5t35.5 -30.5t44 -21t48.5 -8q12 0 24 1.5t26 6.5q19 7 42 18.5t44.5 23t38.5 21.5t24 16l53 -69q-42 -29 -106 -65t-154 -86l-244 -135q-12 22 -21 39
t-21 38l210 117q-55 18 -94.5 56.5t-56.5 80.5q-14 36 -14 72q0 7 1 31.5t18.5 63.5t49 69.5t72.5 47.5q52 20 105 20q39 0 72.5 -6.5t48.5 -11.5z" />
    <glyph glyph-name="uni0656" unicode="&#x656;" 
d="M-48 -786q8 40 12.5 85.5t4.5 87.5q0 22 -1.5 50t-4 57t-6 56.5t-7.5 47.5q18 6 41.5 10.5t39.5 10.5q4 -20 7.5 -46.5t6 -55.5t4 -58t1.5 -54q0 -48 -4 -99t-15 -112z" />
    <glyph glyph-name="uni0660" unicode="&#x660;" horiz-adv-x="990" 
d="M168 544q0 70 26.5 132t72.5 108.5t107.5 73.5t132.5 27q70 0 132 -27t108.5 -73.5t73.5 -108.5t27 -132q0 -71 -27 -132.5t-73.5 -107.5t-108.5 -72.5t-132 -26.5q-71 0 -132.5 26.5t-107.5 72.5t-72.5 107.5t-26.5 132.5zM320 544q0 -39 15 -73.5t40.5 -60t60 -40.5
t73.5 -15t74 15t60.5 40.5t40.5 60t15 73.5t-15 74t-40.5 60.5t-60.5 40.5t-74 15t-73.5 -15t-60 -40.5t-40.5 -60.5t-15 -74z" />
    <glyph glyph-name="uni0661" unicode="&#x661;" horiz-adv-x="662" 
d="M371 9q0 193 -7.5 383.5t-31 366t-67 329.5t-115.5 274l122 78q76 -125 126 -292t79 -382q13 -96 21 -193.5t12 -193.5t5.5 -189.5t1.5 -180.5h-146z" />
    <glyph glyph-name="uni0662" unicode="&#x662;" horiz-adv-x="1137" 
d="M975 1463q4 -23 9 -70q3 -31 3 -68q0 -19 -1 -39v-1q-2 -95 -23 -178t-65 -145.5t-112.5 -98.5t-165.5 -36q-49 0 -99 11.5t-101 33.5q17 -134 27.5 -253.5t16 -226t7.5 -201.5t2 -181h-146q0 157 -4.5 314.5t-19 306.5t-41.5 286.5t-73 255.5q-19 48 -37.5 94t-46.5 95
l123 79q27 -45 51 -97t46 -110q26 -59 52 -107.5t59 -83t77 -53.5t107 -19q72 0 115.5 30.5t67 79.5t31.5 108.5t8 118.5q0 39 -3 71.5t-6 56.5z" />
    <glyph glyph-name="uni0663" unicode="&#x663;" horiz-adv-x="1439" 
d="M1280 1473q28 -149 28 -264q0 -68 -13.5 -133.5t-45 -116.5t-82.5 -82.5t-125 -31.5q-24 0 -51.5 6.5t-56 23t-58 45.5t-57.5 74q-23 -37 -49.5 -67.5t-58 -52.5t-69.5 -34.5t-83 -12.5q-20 0 -35.5 2t-31 6.5t-32.5 11.5t-40 16q25 -138 36 -255t15 -220q3 -83 3 -159
q0 -19 -0.5 -74.5t-0.5 -143.5h-145q1 41 1 73.5v73.5q0 149 -9.5 292t-30 276t-51 254.5t-72.5 227.5v-1q-1 3 -3.5 9t-10 22.5t-22 45.5t-38.5 78l135 81l15 -27.5t22 -43t31 -65t42 -92.5q30 -68 53 -114.5t46.5 -75t52 -41t70.5 -12.5q35 0 61.5 15.5t46 41.5t32 59
t20 67t11 66.5t4.5 58.5q0 9 -0.5 29t-1.5 44t-2.5 48t-2.5 41l144 18q2 -13 4 -34.5t4 -50.5q6 -66 16.5 -134.5t29.5 -125.5q16 -46 33.5 -71t33 -36.5t29 -13.5t21.5 -2q42 0 66 23t36.5 56t15.5 71t3 68q0 45 -5.5 103.5t-19.5 133.5z" />
    <glyph glyph-name="uni0664" unicode="&#x664;" horiz-adv-x="1104" 
d="M706 1338q-27 -9 -72 -27t-97 -43t-105 -55.5t-94.5 -65t-65.5 -72.5q-21 -32 -21 -63q0 -7 1 -13q4 -33 37.5 -64.5t97 -52.5t157.5 -27q24 -1 49 -1q77 0 171 13l25 -150q-87 -35 -170.5 -83t-145 -103.5t-91.5 -115.5q-18 -37 -18 -73q0 -25 8 -49q9 -29 38.5 -49.5
t68 -34.5t81 -20.5t78.5 -6.5q66 0 141.5 16.5t157.5 50.5l59 -149q-59 -22 -108.5 -37t-92.5 -24t-81.5 -12.5t-74.5 -3.5q-64 0 -128 13t-119.5 39t-99 65t-65.5 91q-19 49 -19 101q0 20 6 66t38.5 112.5t82.5 122.5t106 90h-6q-50 0 -105.5 15t-104.5 44.5t-83.5 72.5
t-43.5 98q-4 25 -4 49q0 46 19 98t64 106t106.5 98.5t127.5 79.5t130 61.5t115 43.5z" />
    </font>
</defs>
</svg>
